SplineFontDB: 1.0
FontName: Loma-Oblique
FullName: Loma Oblique
FamilyName: Loma
Weight: Book
Copyright: Copyright (c) NECTEC, 2003. All rights reserved.
Version: 0.9.1; 2003
ItalicAngle: -12
UnderlinePosition: -170
UnderlineWidth: 20
Ascent: 1638
Descent: 410
NeedsXUIDChange: 1
FSType: 0
PfmFamily: 33
TTFWeight: 400
TTFWidth: 5
Panose: 2 11 5 4 2 2 2 2 2 4
LineGap: 0
VLineGap: 0
OS2TypoAscent: 2089
OS2TypoDescent: -430
OS2TypoLinegap: 0
OS2WinAscent: 2089
OS2WinAOffset: 1
OS2WinDescent: 430
OS2WinDOffset: 1
HheadAscent: 0
HheadAOffset: 1
HheadDescent: 0
HheadDOffset: 1
ScriptLang: 3
 1 latn 1 dflt 
 1 thai 4 KUY  PAL  THA  dflt 
 1 thai 1 PAL  
ContextSub: glyph 0 2 ' RQD' 0 0 0 1
 String: 15 uni0E0D uni0E10
 BString: 0 
 FString: 0 
 1
  SeqLookup: 0 'ndsc'
EndFPST
ChainSub: coverage 0 1 'ccmp' 0 0 0 1
 2 0 0
  Coverage: 19 uni0E4B uni0E4B.low
  Coverage: 7 uni0E4D
 2
  SeqLookup: 0 'amni'
  SeqLookup: 1 'G007'
EndFPST
ChainSub: coverage 0 1 'ccmp' 0 0 0 1
 2 0 0
  Coverage: 19 uni0E4A uni0E4A.low
  Coverage: 7 uni0E4D
 2
  SeqLookup: 0 'amni'
  SeqLookup: 1 'G006'
EndFPST
ChainSub: coverage 0 1 'ccmp' 0 0 0 1
 2 0 0
  Coverage: 19 uni0E49 uni0E49.low
  Coverage: 7 uni0E4D
 2
  SeqLookup: 0 'amni'
  SeqLookup: 1 'G005'
EndFPST
ChainSub: coverage 0 1 'ccmp' 0 0 0 1
 2 0 0
  Coverage: 19 uni0E48 uni0E48.low
  Coverage: 7 uni0E4D
 2
  SeqLookup: 0 'amni'
  SeqLookup: 1 'G004'
EndFPST
ChainSub: coverage 0 1 'ccmp' 0 0 0 1
 1 0 1
  Coverage: 15 uni0E0D uni0E10
  FCoverage: 23 uni0E38 uni0E39 uni0E3A
 1
  SeqLookup: 0 'nds0'
EndFPST
ChainSub: coverage 0 1 'ccmp' 0 0 0 1
 1 2 0
  Coverage: 39 uni0E48 uni0E49 uni0E4A uni0E4B uni0E4C
  BCoverage: 23 uni0E38 uni0E39 uni0E3A

StartChar: .notdef
Encoding: 0 -1 0
OldEncoding: 0
Width: 1536
Flags: HW
Fore
256 0 m 1
 528 1280 l 1
 1552 1280 l 1
 1280 0 l 1
 256 0 l 1
295 32 m 1
 1255 32 l 1
 1513 1248 l 1
 553 1248 l 1
 295 32 l 1
EndSplineSet
EndChar
StartChar: exclam
Encoding: 3 33 5
OldEncoding: 33
Width: 569
Flags: HW
Fore
410 999 m 1
 506 1450 l 1
 686 1450 l 1
 590 999 l 1
 413 365 l 1
 320 365 l 1
 410 999 l 1
247 194 m 1
 411 194 l 1
 370 0 l 1
 206 0 l 1
 247 194 l 1
EndSplineSet
EndChar
StartChar: quotedbl
Encoding: 4 34 6
OldEncoding: 34
Width: 727
Flags: HW
Fore
357 947 m 1
 365 1217 l 1
 414 1450 l 1
 594 1450 l 1
 545 1217 l 1
 442 947 l 1
 357 947 l 1
688 947 m 1
 698 1217 l 1
 747 1450 l 1
 927 1450 l 1
 878 1217 l 1
 773 947 l 1
 688 947 l 1
EndSplineSet
EndChar
StartChar: numbersign
Encoding: 5 35 7
OldEncoding: 35
Width: 1139
Flags: HW
Fore
85 -10 m 1
 256 385 l 1
 103 385 l 1
 141 565 l 1
 324 565 l 1
 468 895 l 1
 211 895 l 1
 249 1075 l 1
 536 1075 l 1
 707 1470 l 1
 887 1470 l 1
 716 1075 l 1
 995 1075 l 1
 1166 1470 l 1
 1346 1470 l 1
 1175 1075 l 1
 1341 1075 l 1
 1303 895 l 1
 1107 895 l 1
 962 565 l 1
 1233 565 l 1
 1195 385 l 1
 894 385 l 1
 723 -10 l 1
 544 -10 l 1
 714 385 l 1
 436 385 l 1
 265 -10 l 1
 85 -10 l 1
504 565 m 1
 782 565 l 1
 927 895 l 1
 648 895 l 1
 504 565 l 1
EndSplineSet
EndChar
StartChar: dollar
Encoding: 6 36 8
OldEncoding: 36
Width: 1139
Flags: HW
Fore
487 -17 m 1
 416 -8 354 11 301 40 c 0
 250 67 210 110 182 169 c 0
 178 178 l 0
 160 219.25 151 265 151 315.25 c 0
 151 332 152 349.25 154 367 c 1
 165 417 l 1
 344 417 l 1
 342.936 401.567 342.406 386.825 342.406 372.771 c 0
 342.406 307.599 353.79 257.195 376 221 c 1
 386 207 394 195 402 185 c 0
 432 147 471 126 517 123 c 1
 629 651 l 1
 623 652 617 654 611 655 c 0
 566 665 509 690 439 731 c 1
 389 760 353 800 333 851 c 0
 321.523 880.84 315.973 913.315 315.973 948.424 c 0
 315.973 974.496 319.034 1002.02 325 1031 c 0
 350 1148 415 1243 521 1318 c 0
 526 1321 530 1323 534 1326 c 0
 603 1371 689 1399 790 1409 c 1
 807 1488 l 1
 950 1488 l 1
 933 1409 l 1
 947 1408 l 2
 1029 1399 1095 1370 1145 1323 c 0
 1156 1313 1167 1302 1176 1290 c 0
 1217.39 1236.65 1238.48 1177.37 1238.48 1111.39 c 0
 1238.48 1105.65 1238.32 1099.85 1238 1094 c 1
 1231 1050 l 1
 1056 1050 l 1
 1056.42 1055.56 1056.63 1061.09 1056.63 1066.59 c 0
 1056.63 1113.46 1041.33 1157.93 1010 1200 c 2
 1002 1211 l 1
 978 1242 945 1261 904 1269 c 1
 802 790 l 1
 803 789 l 1
 892 762 l 2
 919 754 941 747 955 741 c 0
 1029 708 1081 662 1109 604 c 0
 1126.99 567.409 1135.74 526.971 1135.74 482.687 c 0
 1135.74 455.567 1132.46 427.005 1126 397 c 0
 1102 281 1042 185 947 108 c 0
 937 100 928 93 917 86 c 0
 831 25 736 -9 631 -15 c 1
 609 -118 l 1
 466 -118 l 1
 487 -17 l 1
761 1271 m 1
 747 1269 733 1266 720 1263 c 0
 682 1252 642 1229 600 1192 c 1
 550 1150 520 1101 508 1044 c 0
 504.211 1026 502.316 1009 502.316 992.96 c 0
 502.316 958.213 511.211 928 529 902 c 0
 531 899 532 896 535 893 c 0
 563 855 606 827 663 810 c 1
 761 1271 l 1
667 124 m 2
 685 127 711 136 746 151 c 0
 778 165 808 184 834 207 c 0
 860 230 882 257 901 287 c 0
 920 318 933 351 940 386 c 0
 944.447 406.526 946.671 425.648 946.671 443.406 c 0
 946.671 477.555 938.447 506.658 922 531 c 1
 896 572 845 605 768 629 c 1
 660 123 l 1
 667 124 l 2
EndSplineSet
EndChar
StartChar: percent
Encoding: 7 37 9
OldEncoding: 37
Width: 1821
Flags: HW
Fore
356 1114 m 0
 378 1219 423 1308 490 1380 c 0
 559 1454 643 1491 743 1491 c 0
 838 1491 908 1458 951 1392 c 0
 979.668 1348.04 994.131 1293.13 994.131 1227.26 c 0
 994.131 1189.73 989.436 1148.64 980 1104 c 1
 954 986 902 890 828 817 c 1
 756 750 673 717 580 717 c 0
 489 717 423 750 381 815 c 0
 353.822 857.619 339.998 912.066 339.998 978.103 c 0
 339.998 1018.98 345.295 1064.3 356 1114 c 0
722 1366 m 0
 675 1366 633 1347 598 1308 c 0
 560 1266 530 1195 509 1096 c 0
 499.582 1051.26 494.82 1012.96 494.82 980.979 c 0
 494.82 945.049 500.831 917.105 513 897 c 0
 535 859 568 840 611 840 c 0
 656 840 698 859 736 898 c 128
 774 937 804 1007 826 1110 c 0
 835.524 1154.76 840.286 1193.17 840.286 1225.24 c 0
 840.286 1260.51 834.524 1288.1 823 1308 c 0
 801 1347 767 1366 722 1366 c 0
1534 1491 m 1
 1714 1491 l 1
 636 -10 l 1
 456 -10 l 1
 1534 1491 l 1
1140 344 m 0
 1162 449 1207 538 1275 610 c 0
 1343 684 1428 721 1529 721 c 0
 1624 721 1693 688 1736 622 c 0
 1765.68 576.833 1780.79 520.84 1780.79 454.023 c 0
 1780.79 417.288 1776.22 377.28 1767 334 c 0
 1741 213 1690 117 1614 47 c 0
 1541 -20 1458 -53 1365 -53 c 0
 1272 -53 1205 -20 1165 46 c 0
 1137.88 89.7635 1124.44 144.545 1124.44 209.877 c 0
 1124.44 250.536 1129.64 295.281 1140 344 c 0
1507 598 m 0
 1459 598 1418 579 1383 540 c 0
 1345 497 1316 426 1294 326 c 0
 1284.85 281.203 1280.1 242.671 1280.1 210.404 c 0
 1280.1 175.682 1285.6 148.214 1297 128 c 0
 1319 89 1352 70 1395 70 c 0
 1442 70 1484 89 1521 128 c 0
 1558 167 1588 237 1610 340 c 0
 1619.63 385.281 1624.4 424.065 1624.4 456.575 c 0
 1624.4 491.553 1618.88 519.269 1608 540 c 128
 1586 578 1552 598 1507 598 c 0
EndSplineSet
EndChar
StartChar: ampersand
Encoding: 8 38 10
OldEncoding: 38
Width: 1366
Flags: HW
Fore
1010 172 m 1
 865 41 711 -25 548 -25 c 0
 398 -25 290 26 222 127 c 1
 184.115 186.33 164.624 250.259 164.624 318.787 c 0
 164.624 346.126 167.726 374.197 174 403 c 0
 213 586 360 733 615 842 c 1
 590 880 571 914 557 944 c 0
 542 974 531 1002 524 1027 c 0
 517 1052 513 1076 513 1098 c 128
 512.869 1100.76 512.806 1103.54 512.806 1106.33 c 0
 512.806 1124.79 515.526 1143.89 519 1163 c 0
 538 1252 588 1328 671 1393 c 0
 754 1458 849 1491 954 1491 c 0
 1052 1491 1126 1460 1177 1399 c 0
 1215.23 1354.16 1234.54 1302.29 1234.54 1243.79 c 0
 1234.54 1222.71 1232.03 1200.78 1227 1178 c 0
 1198 1039 1081 920 875 821 c 1
 1066 485 l 1
 1108 542 1146 611 1179 690 c 1
 1359 649 l 1
 1299 522 1233 417 1161 334 c 1
 1210 247 1270 172 1342 109 c 1
 1191 -35 l 1
 1129 13 1068 82 1010 172 c 1
805 938 m 1
 893 982 952 1022 983 1057 c 0
 1013 1092 1033 1131 1043 1174 c 0
 1045.82 1187.83 1047.21 1200.94 1047.21 1213.36 c 0
 1047.21 1244.94 1038.23 1272.03 1021 1295 c 0
 996 1327 959 1343 912 1343 c 0
 864 1343 821 1327 781 1296 c 0
 742 1265 718 1227 708 1182 c 0
 705.805 1171.68 704.718 1161.22 704.718 1150.6 c 0
 704.718 1112.81 718.462 1072.93 745 1030 c 1
 805 938 l 1
684 725 m 1
 575 666 498 612 453 562 c 0
 409 512 381 463 371 416 c 0
 367.326 398.761 365.489 381.362 365.489 363.849 c 0
 365.489 319.391 377.326 274.196 401 229 c 1
 435 165 496 133 583 133 c 0
 609 133 638 137 669 146 c 0
 700 155 732 168 762 184 c 0
 793 201 823 220 851 242 c 0
 880 263 905 288 927 315 c 1
 684 725 l 1
EndSplineSet
EndChar
StartChar: quotesingle
Encoding: 9 39 11
OldEncoding: 39
Width: 391
Flags: HW
Fore
337 947 m 1
 350 1221 l 1
 402 1466 l 1
 607 1466 l 1
 555 1221 l 1
 448 947 l 1
 337 947 l 1
EndSplineSet
EndChar
StartChar: parenleft
Encoding: 10 40 12
OldEncoding: 40
Width: 682
Flags: HW
Fore
387 -431 m 1
 289 -260 230 -71 213 135 c 0
 209.4 174.9 207.6 214.71 207.6 254.43 c 0
 207.6 347.11 217.4 439.3 237 531 c 0
 288 773 393 999 552 1209 c 0
 616 1294 697 1388 796 1491 c 1
 925 1491 l 1
 798 1332 709 1211 658 1130 c 0
 562 978 490 809 443 622 c 0
 436 592 428 561 422 530 c 0
 398.35 419.978 386.566 310.074 386.566 200.247 c 0
 386.566 -10.3583 429.9 -220.679 516 -431 c 1
 387 -431 l 1
EndSplineSet
EndChar
StartChar: parenright
Encoding: 11 41 13
OldEncoding: 41
Width: 682
Flags: HW
Fore
161 -431 m 1
 32 -431 l 1
 299 -111 467 209 536 530 c 0
 563.144 657.877 576.825 777.385 576.825 888.525 c 0
 576.825 961.638 570.904 1031.13 559 1097 c 0
 543 1190 506 1316 447 1475 c 0
 444 1482 444 1482 441 1491 c 1
 570 1491 l 1
 661 1321 718 1165 740 1022 c 0
 749.888 962.277 754.77 900.521 754.77 836.793 c 0
 754.77 739.394 743.366 637.39 721 531 c 0
 668 283 547 36 357 -209 c 0
 295 -288 230 -362 161 -431 c 1
EndSplineSet
EndChar
StartChar: asterisk
Encoding: 12 42 14
OldEncoding: 42
Width: 797
Flags: HW
Fore
318 1197 m 1
 395 1339 l 1
 493 1302 563 1269 605 1242 c 1
 618 1363 629 1446 638 1491 c 1
 783 1491 l 1
 767 1425 741 1342 707 1243 c 1
 784 1278 868 1310 964 1339 c 1
 979 1197 l 1
 888 1169 801 1150 719 1141 c 1
 752 1106 796 1043 850 952 c 1
 712 867 l 1
 685 920 655 991 621 1082 c 1
 552 988 493 916 445 867 c 1
 345 952 l 1
 443 1047 512 1110 552 1141 c 1
 469 1158 391 1176 318 1197 c 1
EndSplineSet
EndChar
StartChar: plus
Encoding: 13 43 15
OldEncoding: 43
Width: 1196
Flags: HW
Fore
563 237 m 1
 649 639 l 1
 250 639 l 1
 286 807 l 1
 685 807 l 1
 769 1206 l 1
 939 1206 l 1
 855 807 l 1
 1254 807 l 1
 1218 639 l 1
 819 639 l 1
 733 237 l 1
 563 237 l 1
EndSplineSet
EndChar
StartChar: comma
Encoding: 14 44 16
OldEncoding: 44
Width: 569
Flags: HW
Fore
182 0 m 1
 226 205 l 1
 431 205 l 1
 387 0 l 2
 371 -75 345 -136 308 -182 c 0
 271 -229 222 -265 158 -290 c 1
 125 -213 l 1
 166 -196 199 -172 224 -140 c 0
 249 -107 269 -61 284 0 c 1
 182 0 l 1
EndSplineSet
EndChar
StartChar: hyphen
Encoding: 15 45 17
OldEncoding: 45
Width: 682
Flags: HW
Fore
159 440 m 1
 197 621 l 1
 750 621 l 1
 712 440 l 1
 159 440 l 1
EndSplineSet
EndChar
StartChar: period
Encoding: 16 46 18
OldEncoding: 46
Width: 569
Flags: HW
Fore
186 0 m 1
 230 205 l 1
 435 205 l 1
 391 0 l 1
 186 0 l 1
EndSplineSet
EndChar
StartChar: slash
Encoding: 17 47 19
OldEncoding: 47
Width: 595
Flags: HW
Fore
-83 -10 m 1
 818 1470 l 1
 1000 1470 l 1
 100 -10 l 1
 -83 -10 l 1
EndSplineSet
EndChar
StartChar: zero
Encoding: 18 48 20
OldEncoding: 48
Width: 1139
Flags: HW
Fore
240 723 m 0
 275 890 320 1026 376 1133 c 0
 489 1350 655 1459 873 1459 c 0
 1112.63 1459 1232.45 1319.88 1232.45 1041.21 c 0
 1232.45 950.069 1219.63 844.005 1194 723 c 0
 1155 540 1104 394 1040 285 c 0
 928 96 770 -2 561 -10 c 1
 497 -10 442 0 395 19 c 0
 265.816 71.5027 201.059 199.886 201.059 403.822 c 0
 201.059 495.092 214.029 601.494 240 723 c 0
424 723 m 0
 411 662 401 607 395 557 c 0
 388.936 508.832 385.903 464.836 385.903 425.014 c 0
 385.903 235.005 454.936 140 593 140 c 0
 788 141 927 335 1010 723 c 0
 1034.6 838.904 1046.91 937.585 1046.91 1019.07 c 0
 1046.91 1212.47 977.604 1309 839 1309 c 0
 764 1309 698 1283 642 1231 c 0
 550 1145 477 976 424 723 c 0
EndSplineSet
EndChar
StartChar: one
Encoding: 19 49 21
OldEncoding: 49
Width: 1139
Flags: HW
Fore
763 0 m 1
 583 0 l 1
 824 1135 l 1
 767 1069 689 1013 590 966 c 0
 530 937 472 918 416 907 c 1
 458 1104 l 1
 573 1153 677 1221 768 1306 c 0
 828 1363 871 1419 896 1472 c 1
 1076 1472 l 1
 763 0 l 1
EndSplineSet
KernsSLIF: 19 -152 0 0
EndChar
StartChar: two
Encoding: 20 50 22
OldEncoding: 50
Width: 1139
Flags: HW
Fore
1068 173 m 1
 1031 0 l 1
 62 0 l 1
 105 145 226 295 426 450 c 0
 463 478 504 509 552 542 c 0
 694 641 792 714 846 759 c 0
 964 858 1037 955 1066 1049 c 0
 1069 1059 1071 1069 1073 1079 c 0
 1077.65 1100.16 1079.96 1120.2 1079.96 1139.09 c 0
 1079.96 1193.42 1060.84 1238.39 1023 1274 c 0
 981 1313 924 1333 851 1333 c 0
 742 1333 654 1294 588 1217 c 0
 546 1169 518 1110 502 1039 c 1
 317 1039 l 1
 344 1168 410 1274 512 1356 c 0
 618 1440 743 1482 887 1482 c 0
 1028 1482 1132 1442 1200 1363 c 0
 1245.03 1310.11 1268.09 1245.98 1268.09 1170.61 c 0
 1268.09 1140.53 1264.42 1108.66 1257 1075 c 0
 1230 945 1152 822 1023 705 c 0
 968 656 880 588 756 501 c 2
 693 455 l 1
 497 317 l 1
 445 278 396 230 349 173 c 1
 1068 173 l 1
EndSplineSet
EndChar
StartChar: three
Encoding: 21 51 23
OldEncoding: 51
Width: 1139
Flags: HW
Fore
177 427 m 1
 357 427 l 1
 350 383 l 1
 349.833 379.056 349.75 375.154 349.75 371.296 c 0
 349.75 305.707 373.833 252.556 422 211 c 0
 465 174 519 156 586 156 c 0
 681 156 765 187 835 248 c 0
 895 301 933 366 950 445 c 0
 955.234 470.425 957.859 494.172 957.859 516.226 c 0
 957.859 582.649 934.047 633.715 886 669 c 0
 846 698 794 713 728 713 c 0
 685 713 638 707 589 694 c 1
 622 852 l 1
 676 850 l 1
 763 853 841 880 909 932 c 0
 971 979 1009 1037 1024 1105 c 0
 1028.08 1123.84 1030.11 1141.49 1030.11 1157.95 c 0
 1030.11 1214.05 1006.61 1256.4 961 1285 c 0
 927 1306 883 1317 829 1317 c 0
 687 1317 584 1244 523 1099 c 1
 511 1070 l 1
 331 1070 l 1
 353 1170 407 1259 494 1337 c 0
 584 1417 685 1464 799 1478 c 0
 820 1481 840 1482 860 1482 c 0
 977 1482 1069 1448 1135 1380 c 0
 1189.21 1324.98 1216.58 1258.18 1216.58 1180.13 c 0
 1216.58 1161.71 1215.05 1142.66 1212 1123 c 0
 1211 1116 1210 1108 1208 1101 c 0
 1187 1002 1131 919 1042 852 c 0
 1010 829 977 809 941 794 c 1
 1081 760 1151 677 1152 546 c 0
 1152.1 542.969 1152.15 539.918 1152.15 536.846 c 0
 1152.15 509.504 1148.19 480.464 1141 449 c 0
 1115 325 1051 220 949 135 c 1
 902 100 l 1
 796 27 679 -10 550 -10 c 0
 427 -10 330 29 259 106 c 0
 197.585 171.028 167.982 249.923 167.982 341.949 c 0
 167.982 351.815 168.322 361.833 169 372 c 0
 170 391 173 409 177 427 c 1
EndSplineSet
EndChar
StartChar: four
Encoding: 22 52 24
OldEncoding: 52
Width: 1139
Flags: HW
Fore
662 0 m 1
 736 347 l 1
 100 347 l 1
 137 522 l 1
 975 1472 l 1
 1155 1472 l 1
 953 522 l 1
 1151 522 l 1
 1114 347 l 1
 916 347 l 1
 842 0 l 1
 662 0 l 1
773 522 m 1
 899 1117 l 1
 362 522 l 1
 773 522 l 1
EndSplineSet
EndChar
StartChar: five
Encoding: 23 53 25
OldEncoding: 53
Width: 1139
Flags: HW
Fore
173 415 m 1
 362 415 l 1
 361.372 404.718 361.058 394.737 361.058 385.058 c 0
 361.058 271.429 404.3 199.41 490 169 c 0
 519 159 552 154 589 154 c 0
 691 154 779 191 851 265 c 0
 911 326 952 403 971 496 c 0
 978.37 529.577 982.015 560.62 982.015 589.149 c 0
 982.015 665.131 956.164 723.287 906 764 c 0
 863 799 803 817 727 817 c 0
 628 817 536 773 452 686 c 1
 267 708 l 1
 572 1472 l 1
 1301 1472 l 1
 1263 1292 l 1
 698 1292 l 1
 540 920 l 1
 602 964 690 986 801 987 c 0
 811 987 l 0
 937 987 1033 946 1101 864 c 0
 1152.82 800.753 1178.5 722.99 1178.5 631.596 c 0
 1178.5 603.051 1176 573.177 1171 542 c 0
 1170 532 1168 522 1166 512 c 0
 1136 370 1068 251 965 155 c 0
 860 57 739 3 601 -8 c 0
 586 -9 570 -10 554 -10 c 0
 393 -10 281 43 218 148 c 0
 185.889 203.607 169.113 270.255 169.113 347.944 c 0
 169.113 369.45 170.398 391.802 173 415 c 1
EndSplineSet
EndChar
StartChar: six
Encoding: 24 54 26
OldEncoding: 54
Width: 1139
Flags: HW
Fore
1253 1103 m 1
 1074 1103 l 1
 1073 1220 1021 1286 918 1302 c 0
 903 1304 886 1305 869 1305 c 0
 660 1305 521 1151 450 842 c 1
 527 918 619 962 729 973 c 0
 752 976 777 977 802 977 c 0
 917 977 1007 937 1075 858 c 0
 1133.2 789.377 1161.97 704.908 1161.97 605.249 c 0
 1161.97 590.179 1161.31 574.762 1160 559 c 0
 1158 536 1154 514 1149 491 c 0
 1120 354 1057 240 960 147 c 0
 861 51 746 -1 616 -9 c 0
 605 -10 595 -10 584 -10 c 0
 361 -10 234 97 201 312 c 0
 195.703 347.091 193.037 384.813 193.037 425.128 c 0
 193.037 506.594 203.925 598.651 226 701 c 0
 306 1078 452 1320 663 1425 c 0
 740 1463 825 1482 918 1482 c 0
 1034 1482 1124 1446 1189 1374 c 0
 1238.23 1319.92 1262.06 1256.08 1262.06 1182.46 c 0
 1262.06 1164.86 1260.7 1146.71 1258 1128 c 0
 1257 1120 1255 1112 1253 1103 c 1
410 490 m 0
 402.407 454.016 398.629 420.648 398.629 389.823 c 0
 398.629 327.276 414.186 275.202 445 233 c 0
 482 181 539 155 616 155 c 0
 709 155 790 191 856 263 c 0
 909 321 945 393 963 480 c 0
 970.414 514.907 974.106 547.238 974.106 577.022 c 0
 974.106 643.652 955.627 697.535 919 739 c 0
 880 784 823 807 748 807 c 0
 652 807 570 769 505 692 c 0
 458 637 427 570 410 490 c 0
EndSplineSet
EndChar
StartChar: seven
Encoding: 25 55 27
OldEncoding: 55
Width: 1139
Flags: HW
Fore
372 1292 m 1
 410 1472 l 1
 1359 1472 l 1
 1321 1292 l 1
 1131 1111 966 911 822 692 c 0
 661 446 557 215 511 0 c 1
 293 0 l 1
 344 235 464 494 651 776 c 0
 785 979 925 1151 1070 1292 c 1
 372 1292 l 1
EndSplineSet
EndChar
StartChar: eight
Encoding: 26 56 28
OldEncoding: 56
Width: 1139
Flags: HW
Fore
533 805 m 1
 423.211 848.916 368.316 923.255 368.316 1027.48 c 0
 368.316 1051.41 371.211 1076.92 377 1104 c 0
 401 1218 461 1310 558 1381 c 0
 650 1448 757 1482 878 1482 c 0
 1004 1482 1099 1445 1164 1372 c 0
 1209.86 1320.32 1232.41 1258.03 1232.41 1185.15 c 0
 1232.41 1157.91 1229.26 1129.2 1223 1099 c 0
 1195 967 1112 873 972 816 c 2
 944 805 l 1
 1073 760 1141 677 1150 556 c 0
 1150.83 545.752 1151.28 535.196 1151.28 524.355 c 0
 1151.28 496.057 1148.23 465.813 1141 434 c 1
 1123 368 l 1
 1080 233 996 132 873 65 c 0
 781 15 679 -10 564 -10 c 0
 423 -10 316 31 244 113 c 0
 190.71 172.86 164.065 246.042 164.065 332.547 c 0
 164.065 364.542 167.71 398.36 175 434 c 0
 176 437 176 437 176 439 c 0
 208 588 288 696 417 762 c 0
 453 781 492 795 533 805 c 1
562 1110 m 1
 557.484 1088.93 555.234 1069.17 555.234 1050.74 c 0
 555.234 995.711 575.296 952.463 615 921 c 0
 650 894 696 880 754 880 c 0
 835 880 903 907 959 960 c 0
 1000 999 1026 1045 1038 1100 c 0
 1042 1119 1044 1137 1044 1153.98 c 0
 1044 1204.94 1026 1246.75 990 1279 c 0
 953 1310 906 1326 847 1326 c 0
 768 1326 701 1301 644 1250 c 1
 617 1222 l 1
 593 1189 l 1
 575 1151 l 1
 562 1110 l 1
361 438 m 0
 355.882 413.489 353.304 390.211 353.304 368.205 c 0
 353.304 308.514 372.276 258.185 411 218 c 0
 456 171 519 147 599 147 c 0
 697 147 781 179 850 242 c 0
 905 293 941 356 957 432 c 0
 962.149 456.106 964.723 478.679 964.723 499.718 c 0
 964.723 568.573 937.149 621 882 657 c 0
 839 685 782 699 711 699 c 0
 602 699 515 666 448 601 c 0
 404 558 375 503 361 438 c 0
EndSplineSet
EndChar
StartChar: nine
Encoding: 27 57 29
OldEncoding: 57
Width: 1139
Flags: HW
Fore
217 369 m 1
 396 369 l 1
 398 252 450 186 553 170 c 0
 568 168 584 167 601 167 c 0
 810 167 950 321 1021 630 c 1
 944 554 851 510 742 499 c 0
 718 496 694 495 669 495 c 0
 554 495 464 535 396 614 c 0
 337.801 682.623 309.029 767.092 309.029 866.751 c 0
 309.029 881.821 309.686 897.238 311 913 c 0
 313 936 317 958 322 981 c 0
 351 1118 414 1232 511 1325 c 0
 610 1421 725 1473 855 1481 c 0
 866 1482 876 1482 887 1482 c 0
 1110 1482 1237 1375 1270 1160 c 0
 1275.19 1125.63 1277.75 1088.75 1277.75 1049.37 c 0
 1277.75 967.289 1266.63 874.397 1245 771 c 0
 1165 394 1019 152 808 47 c 0
 731 9 646 -10 553 -10 c 0
 437 -10 347 26 282 98 c 0
 232.767 152.076 208.938 215.923 208.938 289.542 c 0
 208.938 307.137 210.299 325.289 213 344 c 0
 214 352 216 360 217 369 c 1
1061 982 m 0
 1068.59 1017.98 1072.37 1051.35 1072.37 1082.18 c 0
 1072.37 1144.72 1056.81 1196.8 1026 1239 c 0
 988 1291 932 1317 855 1317 c 0
 762 1317 681 1281 615 1209 c 1
 584 1170 l 1
 548 1119 522 1060 508 992 c 0
 500.586 957.093 496.894 924.762 496.894 894.978 c 0
 496.894 828.348 515.373 774.465 552 733 c 0
 591 688 648 665 723 665 c 0
 819 665 900 703 966 780 c 0
 1012 835 1044 902 1061 982 c 0
EndSplineSet
EndChar
StartChar: colon
Encoding: 28 58 30
OldEncoding: 58
Width: 569
Flags: HW
Fore
367 857 m 1
 411 1062 l 1
 616 1062 l 1
 572 857 l 1
 367 857 l 1
185 0 m 1
 229 205 l 1
 434 205 l 1
 390 0 l 1
 185 0 l 1
EndSplineSet
EndChar
StartChar: semicolon
Encoding: 29 59 31
OldEncoding: 59
Width: 569
Flags: HW
Fore
364 857 m 1
 408 1062 l 1
 613 1062 l 1
 569 857 l 1
 364 857 l 1
182 0 m 1
 226 205 l 1
 431 205 l 1
 387 0 l 2
 361 -120 307 -206 223 -257 c 1
 204 -270 182 -281 158 -290 c 1
 125 -213 l 1
 185 -189 228 -147 255 -87 c 0
 266 -63 276 -34 284 0 c 1
 182 0 l 1
EndSplineSet
EndChar
StartChar: less
Encoding: 30 60 32
OldEncoding: 60
Width: 1196
Flags: HW
Fore
248 641 m 1
 284 809 l 1
 1342 1219 l 1
 1304 1040 l 1
 467 724 l 1
 1169 405 l 1
 1131 226 l 1
 248 641 l 1
EndSplineSet
EndChar
StartChar: equal
Encoding: 31 61 33
OldEncoding: 61
Width: 1196
Flags: HW
Fore
1265 862 m 1
 297 862 l 1
 333 1030 l 1
 1301 1030 l 1
 1265 862 l 1
1171 417 m 1
 203 417 l 1
 238 585 l 1
 1206 585 l 1
 1171 417 l 1
EndSplineSet
EndChar
StartChar: greater
Encoding: 32 62 34
OldEncoding: 62
Width: 1196
Flags: HW
Fore
1219 641 m 1
 160 226 l 1
 198 405 l 1
 1035 724 l 1
 333 1040 l 1
 371 1219 l 1
 1255 809 l 1
 1219 641 l 1
EndSplineSet
EndChar
StartChar: question
Encoding: 33 63 35
OldEncoding: 63
Width: 1139
Flags: HW
Fore
549 361 m 1
 567 436 l 1
 598 547 656 641 742 719 c 0
 763 738 807 773 876 826 c 0
 946 879 997 928 1030 972 c 0
 1056 1009 1075 1048 1084 1088 c 0
 1087.83 1104.6 1089.67 1120.83 1089.67 1136.7 c 0
 1089.67 1158.13 1086.32 1178.89 1080 1199 c 0
 1060 1263 1016 1306 947 1328 c 0
 918 1337 887 1341 853 1341 c 0
 713 1340 606 1268 531 1123 c 0
 519 1099 507 1073 497 1046 c 1
 312 1046 l 1
 347 1175 414 1282 514 1367 c 0
 621 1458 745 1504 885 1504 c 0
 1016 1504 1118 1467 1192 1392 c 0
 1250.43 1332.71 1279.32 1262.35 1279.32 1179.65 c 0
 1279.32 1166.1 1278.55 1152.22 1277 1138 c 1
 1266 1084 l 1
 1251 1027 1224 971 1185 914 c 0
 1158 875 1110 830 1044 780 c 0
 974 729 930 694 910 676 c 0
 820 597 760 502 729 389 c 0
 726 380 724 370 722 361 c 1
 549 361 l 1
461 0 m 1
 505 205 l 1
 710 205 l 1
 666 0 l 1
 461 0 l 1
EndSplineSet
EndChar
StartChar: at
Encoding: 34 64 36
OldEncoding: 64
Width: 2079
Flags: HW
Fore
1187 121 m 1
 1098 38 986 -3 853 -3 c 0
 746 -3 670 44 624 138 c 0
 597.586 191.443 584.379 252.81 584.379 321.87 c 0
 584.379 365.233 589.586 411.629 600 461 c 0
 623 570 669 671 736 764 c 0
 815 873 905 957 1008 1015 c 0
 1088 1061 1165 1084 1241 1084 c 0
 1383 1084 1474 1035 1512 938 c 1
 1576 1079 l 1
 1755 1079 l 1
 1461 379 l 1
 1434 315 1414 265 1401 229 c 1
 1398 212 l 1
 1399 202 1403 192 1411 182 c 0
 1422 169 1438 163 1457 163 c 0
 1527 163 1607 206 1696 291 c 0
 1782 374 1852 471 1903 580 c 0
 1926 628 1942 673 1951 716 c 0
 1961.26 764.177 1966.41 809.997 1966.41 853.506 c 0
 1966.41 962.625 1934.06 1057.21 1869 1138 c 0
 1786 1242 1664 1306 1502 1329 c 0
 1463 1335 1420 1338 1377 1338 c 0
 1166 1338 975 1276 802 1152 c 0
 764 1125 728 1095 694 1063 c 0
 546 924 444 754 389 553 c 0
 383 531 377 508 372 485 c 0
 356.757 412.866 349.145 345.696 349.145 283.471 c 0
 349.145 117.097 403.558 -13.931 512 -110 c 0
 635 -219 819 -274 1062 -274 c 0
 1288 -274 1484 -224 1650 -125 c 0
 1719 -84 1778 -36 1828 19 c 1
 2009 19 l 1
 1917 -113 1788 -219 1622 -300 c 0
 1443 -387 1245 -431 1031 -431 c 0
 739 -431 519 -361 371 -222 c 0
 247.089 -106.405 185.421 47.9195 185.421 239.823 c 0
 185.421 278.678 187.949 319.073 193 361 c 0
 197 396 203 432 211 469 c 0
 261 705 365 911 522 1087 c 0
 673 1256 854 1373 1064 1439 c 0
 1179 1475 1296 1493 1419 1493 c 0
 1628 1493 1797 1439 1925 1332 c 0
 2047 1231 2112 1098 2124 933 c 0
 2125.23 915.713 2125.86 898.244 2125.86 880.576 c 0
 2125.86 826.701 2120.05 770.985 2108 713 c 0
 2078 575 2012 440 1908 307 c 0
 1810 181 1702 88 1583 28 c 0
 1501 -13 1423 -33 1347 -33 c 0
 1301 -33 1265 -26 1239 -12 c 0
 1214 2 1198 22 1190 48 c 0
 1186.4 59.4 1184.6 72.6 1184.6 87.816 c 0
 1184.6 97.96 1185.4 109 1187 121 c 1
925 161 m 0
 1019 161 1110 207 1197 299 c 0
 1275 382 1331 480 1366 593 c 0
 1372 612 1377 630 1381 649 c 0
 1388.54 684.885 1392.35 717.405 1392.35 746.533 c 0
 1392.35 813.999 1371.91 863.268 1330 894 c 0
 1301 915 1266 925 1221 925 c 0
 1109 925 1006 862 913 737 c 0
 895 713 878 687 862 660 c 0
 855 648 848 636 841 623 c 0
 813 567 791 510 779 453 c 0
 771.102 416.023 767.199 382.269 767.199 351.69 c 0
 767.199 297.09 779.642 252.614 804 218 c 0
 832 180 872 161 925 161 c 0
EndSplineSet
EndChar
StartChar: A
Encoding: 35 65 37
OldEncoding: 65
Width: 1366
Flags: HW
Fore
867 1450 m 1
 1076 1450 l 1
 1368 0 l 1
 1149 0 l 1
 1048 471 l 1
 492 471 l 1
 203 0 l 1
 -2 0 l 1
 867 1450 l 1
1042 653 m 1
 922 1237 l 1
 574 653 l 1
 1042 653 l 1
EndSplineSet
KernsSLIF: 91 -37 0 0 89 -37 0 0 88 -37 0 0 59 -152 0 0 57 -76 0 0 56 -152 0 0 54 -152 0 0
EndChar
StartChar: B
Encoding: 36 66 38
OldEncoding: 66
Width: 1366
Flags: HW
Fore
164 0 m 1
 472 1450 l 1
 1008 1450 l 2
 1120 1450 1207 1435 1269 1406 c 0
 1337 1373 1383 1320 1407 1249 c 0
 1417.59 1217.81 1422.99 1185.58 1422.99 1151.91 c 0
 1422.99 1128.36 1420.35 1104.1 1415 1079 c 0
 1403 1019 1373 961 1328 906 c 0
 1282 851 1221 806 1145 772 c 1
 1229 746 1287 702 1322 639 c 0
 1343.79 597.404 1355.11 551.885 1355.11 501.866 c 0
 1355.11 476.128 1352.12 449.199 1346 421 c 0
 1326 326 1280 240 1207 164 c 0
 1181 137 1154 115 1127 97 c 0
 1077 65 1019 41 951 24 c 0
 883 8 802 0 709 0 c 2
 164 0 l 1
523 842 m 1
 840 842 l 2
 926 842 989 848 1029 859 c 0
 1134 888 1198 954 1219 1056 c 0
 1223.48 1077.08 1225.74 1096.7 1225.74 1114.86 c 0
 1225.74 1165.63 1208.09 1205.01 1172 1233 c 0
 1159 1243 1144 1251 1127 1256 c 0
 1087 1270 1013 1277 908 1277 c 2
 615 1277 l 1
 523 842 l 1
381 173 m 1
 746 173 l 2
 835 173 899 180 939 193 c 0
 958 199 978 208 1000 220 c 0
 1067 257 1111 312 1136 386 c 0
 1139 397 1143 409 1145 421 c 0
 1149.63 442.679 1151.94 462.994 1151.94 481.944 c 0
 1151.94 540.789 1129.63 586.474 1085 619 c 0
 1070 630 1054 638 1035 644 c 0
 988 661 918 669 825 669 c 2
 486 669 l 1
 381 173 l 1
EndSplineSet
EndChar
StartChar: C
Encoding: 37 67 39
OldEncoding: 67
Width: 1479
Flags: HW
Fore
1312 480 m 1
 1500 480 l 1
 1410 287 1285 150 1124 68 c 0
 1022 16 910 -10 789 -10 c 0
 631 -10 510 22 424 86 c 0
 339 151 283 244 258 366 c 0
 245.368 425.274 239.109 485.492 239.109 546.769 c 0
 239.109 611.615 246.118 677.647 260 745 c 0
 291 888 347 1016 430 1130 c 0
 512 1243 613 1329 733 1388 c 0
 854 1447 979 1477 1108 1477 c 0
 1255 1477 1370 1440 1454 1365 c 0
 1538 1290 1586 1185 1596 1050 c 1
 1408 1050 l 1
 1397 1171 1330 1247 1206 1280 c 0
 1164 1291 1118 1297 1066 1297 c 0
 953 1297 853 1270 766 1216 c 0
 606 1117 503 960 458 746 c 0
 445.739 689.293 439.742 634.413 439.742 581.36 c 0
 439.742 530.565 445.239 481.445 456 434 c 0
 487 309 560 228 678 191 c 0
 722 177 771 170 824 170 c 0
 950 170 1060 204 1156 272 c 0
 1235 328 1286 397 1312 480 c 1
EndSplineSet
EndChar
StartChar: D
Encoding: 38 68 40
OldEncoding: 68
Width: 1479
Flags: HW
Fore
168 0 m 1
 476 1450 l 1
 981 1450 l 2
 1280 1450 1465 1362 1533 1186 c 0
 1555.01 1130.2 1566.02 1063.4 1566.02 985.589 c 0
 1566.02 911.399 1556.01 827.202 1536 733 c 0
 1448 318 1234 80 895 17 c 0
 833 6 767 0 697 0 c 2
 168 0 l 1
387 173 m 1
 712 173 l 2
 1035 173 1240 344 1328 686 c 0
 1332 702 1336 719 1339 736 c 0
 1353.1 802.115 1360.14 862.16 1360.14 916.142 c 0
 1360.14 1134.05 1245.41 1253.16 1017 1274 c 0
 992 1276 967 1277 941 1277 c 2
 621 1277 l 1
 387 173 l 1
EndSplineSet
EndChar
StartChar: E
Encoding: 39 69 41
OldEncoding: 69
Width: 1366
Flags: HW
Fore
162 0 m 1
 470 1450 l 1
 1530 1450 l 1
 1492 1268 l 1
 611 1268 l 1
 517 826 l 1
 1197 826 l 1
 1158 646 l 1
 478 646 l 1
 379 179 l 1
 1260 179 l 1
 1222 0 l 1
 162 0 l 1
EndSplineSet
EndChar
StartChar: F
Encoding: 40 70 42
OldEncoding: 70
Width: 1251
Flags: HW
Fore
168 0 m 1
 476 1450 l 1
 1465 1450 l 1
 1427 1271 l 1
 617 1271 l 1
 521 820 l 1
 1183 820 l 1
 1145 641 l 1
 483 641 l 1
 347 0 l 1
 168 0 l 1
EndSplineSet
KernsSLIF: 35 -113 0 0 16 -227 0 0 14 -227 0 0
EndChar
StartChar: G
Encoding: 41 71 43
OldEncoding: 71
Width: 1479
Flags: HW
Fore
1549 684 m 1
 1546 666 1546 666 1542 650 c 0
 1509 497 1471 387 1430 320 c 0
 1404 276 1359 224 1295 164 c 0
 1291 161 1289 159 1286 156 c 0
 1164 45 998 -10 789 -10 c 0
 631 -10 510 22 424 86 c 0
 339 151 283 244 258 366 c 0
 245.368 425.274 239.109 485.492 239.109 546.769 c 0
 239.109 611.615 246.118 677.647 260 745 c 0
 291 888 347 1016 430 1130 c 0
 512 1243 613 1329 733 1388 c 0
 854 1447 979 1477 1108 1477 c 0
 1255 1477 1370 1440 1454 1365 c 0
 1538 1290 1586 1185 1596 1050 c 1
 1408 1050 l 1
 1405 1087 1396 1119 1382 1148 c 0
 1333 1247 1228 1297 1066 1297 c 0
 953 1297 853 1270 766 1216 c 0
 606 1117 503 960 458 746 c 0
 445.739 689.293 439.742 634.413 439.742 581.36 c 0
 439.742 530.565 445.239 481.445 456 434 c 0
 466 394 480 358 500 327 c 0
 563 222 671 170 824 170 c 0
 833 170 843 170 852 171 c 0
 976 176 1082 214 1172 284 c 1
 1190 299 l 2
 1247 350 1287 405 1309 465 c 1
 1319 504 l 1
 1012 504 l 1
 1050 684 l 1
 1549 684 l 1
EndSplineSet
EndChar
StartChar: H
Encoding: 42 72 44
OldEncoding: 72
Width: 1479
Flags: HW
Fore
164 0 m 1
 472 1450 l 1
 652 1450 l 1
 524 848 l 1
 1314 848 l 1
 1442 1450 l 1
 1622 1450 l 1
 1314 0 l 1
 1134 0 l 1
 1276 668 l 1
 486 668 l 1
 344 0 l 1
 164 0 l 1
EndSplineSet
EndChar
StartChar: I
Encoding: 43 73 45
OldEncoding: 73
Width: 650
Flags: HW
Fore
659 160 m 1
 625 0 l 1
 25 0 l 1
 59 160 l 1
 269 160 l 1
 509 1290 l 1
 299 1290 l 1
 333 1450 l 1
 933 1450 l 1
 899 1290 l 1
 689 1290 l 1
 449 160 l 1
 659 160 l 1
EndSplineSet
EndChar
StartChar: J
Encoding: 44 74 46
OldEncoding: 74
Width: 1024
Flags: HW
Fore
1173 1450 m 1
 962 456 l 2
 935 331 897 237 848 172 c 0
 836 157 824 143 810 129 c 0
 730 47 630 1 511 -8 c 1
 461 -10 l 1
 336 -10 247 24 193 92 c 0
 185 100 179 109 173 118 c 0
 148.835 155.88 136.614 206.555 136.614 269.749 c 0
 136.614 303.315 140.062 340.412 147 381 c 0
 150 402 155 427 161 455 c 1
 341 455 l 1
 327 378 l 1
 325.297 362.386 324.399 347.659 324.399 333.819 c 0
 324.399 298.905 330.11 269.632 343 246 c 0
 370 195 422 170 498 170 c 0
 556 170 605 183 644 209 c 0
 662 220 680 235 699 252 c 0
 730 281 755 333 772 408 c 0
 774 421 774 421 785 471 c 2
 957 1280 l 1
 680 1280 l 1
 716 1450 l 1
 1173 1450 l 1
EndSplineSet
EndChar
StartChar: K
Encoding: 45 75 47
OldEncoding: 75
Width: 1366
Flags: HW
Fore
150 0 m 1
 458 1450 l 1
 638 1450 l 1
 497 785 l 1
 1380 1450 l 1
 1624 1450 l 1
 781 806 l 1
 1346 0 l 1
 1113 0 l 1
 621 670 l 1
 445 539 l 1
 330 0 l 1
 150 0 l 1
EndSplineSet
EndChar
StartChar: L
Encoding: 46 76 48
OldEncoding: 76
Width: 1139
Flags: HW
Fore
150 0 m 1
 458 1450 l 1
 638 1450 l 1
 366 170 l 1
 1096 170 l 1
 1060 0 l 1
 150 0 l 1
EndSplineSet
KernsSLIF: 91 -76 0 0 59 -152 0 0 57 -152 0 0 56 -152 0 0 54 -152 0 0
EndChar
StartChar: M
Encoding: 47 77 49
OldEncoding: 77
Width: 1706
Flags: HW
Fore
152 0 m 1
 460 1450 l 1
 640 1450 l 1
 879 133 l 1
 1678 1450 l 1
 1858 1450 l 1
 1550 0 l 1
 1370 0 l 1
 1575 964 l 1
 996 0 l 1
 706 0 l 1
 537 964 l 1
 332 0 l 1
 152 0 l 1
EndSplineSet
EndChar
StartChar: N
Encoding: 48 78 50
OldEncoding: 78
Width: 1479
Flags: HW
Fore
156 0 m 1
 464 1450 l 1
 644 1450 l 1
 1198 315 l 1
 1439 1450 l 1
 1619 1450 l 1
 1311 0 l 1
 1131 0 l 1
 577 1136 l 1
 336 0 l 1
 156 0 l 1
EndSplineSet
EndChar
StartChar: O
Encoding: 49 79 51
OldEncoding: 79
Width: 1593
Flags: HW
Fore
256 714 m 0
 306 949 406 1135 558 1271 c 1
 714 1407 900 1476 1115 1478 c 1
 1314 1478 1463 1416 1562 1293 c 0
 1636.88 1199.8 1674.32 1081.84 1674.32 939.143 c 0
 1674.32 902.709 1671.88 864.661 1667 825 c 0
 1664 794 1658 763 1651 731 c 0
 1607 524 1515 354 1376 221 c 0
 1242 93 1084 18 900 -4 c 0
 866 -8 833 -10 798 -10 c 0
 608 -10 462 48 361 165 c 0
 277.863 261.692 235.556 383.7 235.556 531.76 c 0
 235.556 547.544 236.037 563.623 237 580 c 0
 240 624 246 669 256 714 c 0
455 711 m 0
 442.565 652.652 436.332 598.676 436.332 549.071 c 0
 436.332 443.096 464.782 357.073 522 291 c 0
 591 210 695 170 835 170 c 0
 1014 170 1160 233 1273 358 c 0
 1359 453 1419 578 1452 732 c 0
 1465.56 796.476 1472.33 855.704 1472.33 909.757 c 0
 1472.33 1019.18 1444.56 1107.4 1389 1175 c 0
 1321 1257 1217 1298 1078 1298 c 0
 855 1298 686 1206 572 1021 c 0
 520 936 481 832 455 711 c 0
EndSplineSet
EndChar
StartChar: P
Encoding: 50 80 52
OldEncoding: 80
Width: 1366
Flags: HW
Fore
158 0 m 1
 466 1450 l 1
 1019 1450 l 2
 1154 1450 1250 1440 1307 1421 c 0
 1343 1409 1376 1391 1406 1368 c 0
 1462 1322 1495 1255 1503 1168 c 0
 1504.92 1153.58 1505.82 1138.84 1505.82 1123.87 c 0
 1505.82 1092.12 1501.79 1059.29 1495 1026 c 0
 1469 901 1406 796 1309 710 c 0
 1211 623 1058 580 851 580 c 2
 461 580 l 1
 338 0 l 1
 158 0 l 1
498 753 m 1
 891 753 l 2
 1016 753 1110 776 1173 823 c 0
 1236 870 1276 935 1294 1020 c 0
 1299.02 1044.26 1301.55 1066.96 1301.55 1088.13 c 0
 1301.55 1142.88 1284.62 1187.38 1250 1222 c 1
 1223 1243 l 1
 1209 1252 1194 1259 1177 1264 c 0
 1146 1273 1086 1277 998 1277 c 2
 609 1277 l 1
 498 753 l 1
EndSplineSet
KernsSLIF: 35 -152 0 0 16 -264 0 0 14 -264 0 0
EndChar
StartChar: Q
Encoding: 51 81 53
OldEncoding: 81
Width: 1659
Flags: HW
Fore
1269 354 m 1
 1343 426 1398 532 1437 673 c 0
 1442 692 1447 712 1452 732 c 0
 1465.56 796.476 1472.33 855.704 1472.33 909.757 c 0
 1472.33 1019.18 1444.56 1107.4 1389 1175 c 0
 1321 1257 1217 1298 1078 1298 c 0
 855 1298 686 1206 572 1021 c 0
 520 936 481 832 455 711 c 0
 442.565 652.334 436.332 598.14 436.332 548.387 c 0
 436.332 442.096 464.782 356.073 522 290 c 0
 542 267 566 247 592 230 c 1
 632 314 698 379 789 424 c 0
 831 445 875 460 921 468 c 0
 947 473 971 475 996 475 c 0
 1087 474 1163 449 1226 399 c 0
 1244 385 1258 370 1269 354 c 1
1360 204 m 1
 1373 185 1395 176 1427 175 c 0
 1441 175 1457 177 1473 181 c 0
 1514 190 1550 206 1581 228 c 1
 1678 90 l 1
 1589 21 1495 -14 1396 -14 c 0
 1341 -14 1291 -3 1248 20 c 0
 1215 38 1191 61 1175 88 c 1
 1085 36 994 5 903 -5 c 1
 818 -10 l 2
 798 -10 l 0
 608 -10 462 48 361 165 c 0
 277.863 261.692 235.556 383.7 235.556 531.76 c 0
 235.556 547.544 236.037 563.623 237 580 c 0
 240 624 246 669 256 714 c 0
 306 949 406 1135 558 1271 c 1
 714 1407 900 1476 1115 1478 c 1
 1314 1478 1463 1416 1562 1293 c 0
 1636.88 1199.8 1674.32 1081.84 1674.32 939.143 c 0
 1674.32 902.709 1671.88 864.661 1667 825 c 0
 1664 794 1658 763 1651 731 c 0
 1608 526 1536 371 1435 266 c 0
 1410 242 1386 221 1360 204 c 1
1098 226 m 1
 1068 273 1026 297 971 297 c 0
 960 297 950 296 938 294 c 0
 867 281 813 243 778 181 c 0
 777 178 776 176 775 174 c 1
 791 169 811 167 838 167 c 0
 916 168 985 179 1049 202 c 0
 1068 209 1085 217 1098 226 c 1
EndSplineSet
EndChar
StartChar: R
Encoding: 52 82 54
OldEncoding: 82
Width: 1400
Flags: HW
Fore
821 580 m 1
 461 580 l 1
 338 0 l 1
 158 0 l 1
 466 1450 l 1
 1019 1450 l 2
 1154 1450 1250 1440 1307 1421 c 0
 1343 1409 1376 1391 1406 1368 c 0
 1462 1322 1495 1255 1503 1168 c 0
 1504.92 1153.58 1505.82 1138.84 1505.82 1123.87 c 0
 1505.82 1092.12 1501.79 1059.29 1495 1026 c 0
 1469 901 1406 796 1309 710 c 0
 1246 654 1160 616 1051 596 c 1
 1387 0 l 1
 1107 0 l 1
 821 580 l 1
498 753 m 1
 891 753 l 2
 1016 753 1110 776 1173 823 c 0
 1236 870 1276 935 1294 1020 c 0
 1299.02 1044.26 1301.55 1066.96 1301.55 1088.13 c 0
 1301.55 1142.88 1284.62 1187.38 1250 1222 c 1
 1223 1243 l 1
 1209 1252 1194 1259 1177 1264 c 0
 1146 1273 1086 1277 998 1277 c 2
 609 1277 l 1
 498 753 l 1
EndSplineSet
KernsSLIF: 59 -37 0 0 57 -37 0 0 56 -37 0 0 54 -37 0 0
EndChar
StartChar: S
Encoding: 53 83 55
OldEncoding: 83
Width: 1366
Flags: HW
Fore
199 502 m 1
 382 502 l 1
 380.62 486.62 379.93 471.755 379.93 457.406 c 0
 379.93 326.215 437.62 238.169 553 194 c 0
 606 174 669 164 743 164 c 0
 864 164 964 191 1043 245 c 0
 1106 289 1145 345 1160 413 c 0
 1163.14 428.306 1164.71 442.796 1164.71 456.483 c 0
 1164.71 517.013 1133.98 561.823 1072 592 c 0
 1049 603 1021 613 987 622 c 1
 781 666 l 1
 635 703 535 742 476 781 c 0
 402.712 830.969 365.491 899.665 365.491 986.509 c 0
 365.491 1003.94 366.991 1022.11 370 1041 c 0
 371 1050 373 1058 375 1067 c 0
 402 1193 475 1293 594 1367 c 0
 703 1436 832 1471 977 1471 c 0
 1138 1471 1261 1428 1345 1342 c 0
 1362 1325 1376 1307 1389 1287 c 1
 1411 1245 l 1
 1429.62 1202.69 1438.92 1156.09 1438.92 1105.8 c 0
 1438.92 1096.65 1438.62 1087.38 1438 1078 c 1
 1432 1019 l 1
 1246 1019 l 1
 1247.09 1030.68 1247.64 1042.03 1247.64 1053.05 c 0
 1247.64 1132.66 1219.09 1195.2 1162 1240 c 0
 1109 1280 1038 1300 948 1300 c 0
 807 1300 702 1267 633 1202 c 0
 597 1168 575 1127 565 1080 c 0
 561.784 1065.73 560.184 1052.18 560.184 1039.38 c 0
 560.184 988.501 585.463 949.367 635 923 c 0
 667 906 730 887 825 865 c 0
 842 861 855 858 866 856 c 0
 1017 820 1119 791 1172 768 c 0
 1271 727 1330 671 1351 598 c 0
 1357.38 574.935 1360.63 549.703 1360.63 522.186 c 0
 1360.63 493.629 1357.13 462.611 1350 429 c 0
 1323 302 1251 198 1134 117 c 0
 1025 40 898 -2 753 -9 c 0
 740 -10 728 -10 715 -10 c 0
 475 -10 316 55 238 186 c 0
 204.228 242.061 186.88 308.159 186.88 384.602 c 0
 186.88 421.334 190.886 460.456 199 502 c 1
EndSplineSet
EndChar
StartChar: T
Encoding: 54 84 56
OldEncoding: 84
Width: 1251
Flags: HW
Fore
538 0 m 1
 810 1280 l 1
 320 1280 l 1
 356 1450 l 1
 1518 1450 l 1
 1482 1280 l 1
 990 1280 l 1
 718 0 l 1
 538 0 l 1
EndSplineSet
KernsSLIF: 91 -113 0 0 89 -113 0 0 87 -76 0 0 85 -227 0 0 84 -76 0 0 81 -227 0 0 75 -76 0 0 71 -227 0 0 69 -227 0 0 67 -227 0 0 49 -37 0 0 35 -152 0 0 29 -227 0 0 28 -227 0 0 16 -227 0 0 15 -113 0 0 14 -227 0 0
EndChar
StartChar: U
Encoding: 55 85 57
OldEncoding: 85
Width: 1479
Flags: HW
Fore
1442 1450 m 1
 1622 1450 l 1
 1435 567 l 2
 1353 182 1121 -10 739 -10 c 0
 419.843 -10 259.506 120.549 259.506 380.887 c 0
 259.506 406.046 261.004 432.417 264 460 c 0
 268 494 274 530 282 567 c 2
 469 1450 l 1
 649 1450 l 1
 462 568 l 2
 452.04 521.591 447.065 479.268 447.065 441.013 c 0
 447.065 298.747 515.873 212.735 653 182 c 0
 688 174 728 170 773 170 c 0
 954 170 1084 226 1163 338 c 0
 1204 395 1234 472 1255 568 c 2
 1442 1450 l 1
EndSplineSet
EndChar
StartChar: V
Encoding: 56 86 58
OldEncoding: 86
Width: 1366
Flags: HW
Fore
577 0 m 1
 317 1450 l 1
 527 1450 l 1
 736 279 l 1
 1460 1450 l 1
 1658 1450 l 1
 776 0 l 1
 577 0 l 1
EndSplineSet
KernsSLIF: 91 -76 0 0 87 -76 0 0 84 -76 0 0 81 -113 0 0 75 -37 0 0 71 -113 0 0 67 -152 0 0 35 -152 0 0 29 -76 0 0 28 -76 0 0 16 -188 0 0 15 -113 0 0 14 -188 0 0
EndChar
StartChar: W
Encoding: 57 87 59
OldEncoding: 87
Width: 1933
Flags: HW
Fore
414 0 m 1
 333 1450 l 1
 532 1450 l 1
 596 390 l 1
 1142 1450 l 1
 1396 1450 l 1
 1492 390 l 1
 2006 1450 l 1
 2205 1450 l 1
 1508 0 l 1
 1310 0 l 1
 1210 1170 l 1
 612 0 l 1
 414 0 l 1
EndSplineSet
KernsSLIF: 91 -18 0 0 87 -37 0 0 84 -37 0 0 81 -37 0 0 71 -37 0 0 67 -76 0 0 35 -76 0 0 29 -37 0 0 28 -37 0 0 16 -113 0 0 15 -37 0 0 14 -113 0 0
EndChar
StartChar: X
Encoding: 58 88 60
OldEncoding: 88
Width: 1366
Flags: HW
Fore
9 0 m 1
 725 756 l 1
 384 1450 l 1
 614 1450 l 1
 873 902 l 1
 1391 1450 l 1
 1621 1450 l 1
 959 756 l 1
 1353 0 l 1
 1123 0 l 1
 811 613 l 1
 239 0 l 1
 9 0 l 1
EndSplineSet
EndChar
StartChar: Y
Encoding: 59 89 61
OldEncoding: 89
Width: 1366
Flags: HW
Fore
571 0 m 1
 703 621 l 1
 314 1451 l 1
 544 1451 l 1
 862 855 l 1
 1428 1451 l 1
 1658 1451 l 1
 897 621 l 1
 765 0 l 1
 571 0 l 1
EndSplineSet
KernsSLIF: 88 -113 0 0 87 -113 0 0 83 -188 0 0 82 -152 0 0 81 -188 0 0 75 -76 0 0 71 -188 0 0 67 -152 0 0 35 -152 0 0 29 -133 0 0 28 -113 0 0 16 -264 0 0 15 -188 0 0 14 -264 0 0
EndChar
StartChar: Z
Encoding: 60 90 62
OldEncoding: 90
Width: 1251
Flags: HW
Fore
41 0 m 1
 81 187 l 1
 1215 1270 l 1
 315 1270 l 1
 353 1450 l 1
 1521 1450 l 1
 1483 1270 l 1
 363 180 l 1
 1238 180 l 1
 1200 0 l 1
 41 0 l 1
EndSplineSet
EndChar
StartChar: bracketleft
Encoding: 61 91 63
OldEncoding: 91
Width: 569
Flags: HW
Fore
52 -407 m 1
 451 1466 l 1
 848 1466 l 1
 816 1317 l 1
 599 1317 l 1
 264 -258 l 1
 481 -258 l 1
 449 -407 l 1
 52 -407 l 1
EndSplineSet
EndChar
StartChar: backslash
Encoding: 62 92 64
OldEncoding: 92
Width: 569
Flags: HW
Fore
420 -25 m 1
 317 1491 l 1
 462 1491 l 1
 564 -25 l 1
 420 -25 l 1
EndSplineSet
EndChar
StartChar: bracketright
Encoding: 63 93 65
OldEncoding: 93
Width: 569
Flags: HW
Fore
349 -407 m 1
 -48 -407 l 1
 -16 -258 l 1
 201 -258 l 1
 536 1317 l 1
 319 1317 l 1
 351 1466 l 1
 748 1466 l 1
 349 -407 l 1
EndSplineSet
EndChar
StartChar: asciicircum
Encoding: 64 94 66
OldEncoding: 94
Width: 961
Flags: HW
Fore
386 690 m 1
 201 690 l 1
 724 1491 l 1
 869 1491 l 1
 1054 690 l 1
 873 690 l 1
 753 1287 l 1
 386 690 l 1
EndSplineSet
EndChar
StartChar: underscore
Encoding: 65 95 67
OldEncoding: 95
Width: 1139
Flags: HW
Fore
-118 -407 m 1
 -90 -277 l 1
 1103 -277 l 1
 1075 -407 l 1
 -118 -407 l 1
EndSplineSet
EndChar
StartChar: grave
Encoding: 66 96 68
OldEncoding: 96
Width: 682
Flags: HW
Fore
719 1194 m 1
 574 1194 l 1
 402 1474 l 1
 643 1474 l 1
 719 1194 l 1
EndSplineSet
EndChar
StartChar: a
Encoding: 67 97 69
OldEncoding: 97
Width: 1139
Flags: HW
Fore
856 131 m 1
 777 74 704 34 638 11 c 0
 571 -12 503 -24 432 -24 c 0
 315 -24 232 5 181 62 c 0
 144.135 103.202 126.08 152.242 126.08 209.875 c 0
 126.08 231.973 128.734 255.333 134 280 c 0
 145 332 167 379 200 422 c 0
 232 465 270 500 314 526 c 0
 358 552 406 572 456 585 c 0
 493 594 549 603 622 612 c 0
 771 629 882 650 956 674 c 1
 963 699 966 714 967 721 c 0
 972.818 747.545 975.727 771.314 975.727 792.258 c 0
 975.727 828.909 966.818 856.909 949 876 c 0
 912 917 848 937 757 937 c 0
 672 937 607 922 560 892 c 0
 513 863 472 810 437 735 c 1
 266 759 l 1
 298 834 337 895 384 942 c 0
 431 988 491 1023 566 1048 c 0
 640 1073 724 1086 815 1086 c 0
 906 1086 976 1075 1029 1054 c 0
 1082 1033 1117 1006 1137 974 c 0
 1157 941 1166 900 1167 851 c 0
 1166 820 1158 765 1141 685 c 2
 1090 445 l 2
 1054 278 1036 172 1033 128 c 0
 1032.93 124.802 1032.89 121.619 1032.89 118.451 c 0
 1032.89 77.0354 1038.99 38.0862 1052 0 c 1
 864 0 l 1
 856.737 24.4294 852.962 51.9103 852.962 82.155 c 0
 852.962 97.718 853.962 114.013 856 131 c 1
926 533 m 1
 856 506 753 484 618 465 c 0
 542 454 487 442 453 429 c 0
 419 416 392 396 370 370 c 0
 347 345 333 316 327 285 c 0
 324.082 272.268 322.642 260.098 322.642 248.492 c 0
 322.642 216.342 333.692 188.512 355 165 c 0
 385 133 435 117 505 117 c 0
 574 117 639 132 699 162 c 0
 760 193 809 234 845 287 c 0
 873 328 895 388 912 467 c 2
 926 533 l 1
EndSplineSet
EndChar
StartChar: b
Encoding: 68 98 70
OldEncoding: 98
Width: 1139
Flags: HW
Fore
301 0 m 1
 134 0 l 1
 446 1466 l 1
 626 1466 l 1
 514 943 l 1
 611 1038 718 1086 836 1086 c 0
 978 1086 1078 1032 1138 924 c 0
 1171.95 861.755 1189.3 788.836 1189.3 705.493 c 0
 1189.3 656.28 1183.25 603.432 1171 547 c 0
 1134 372 1060 233 949 131 c 0
 847 37 729 -10 594 -10 c 0
 488 -10 407 21 352 84 c 0
 342 95 334 106 326 119 c 1
 301 0 l 1
427 539 m 0
 415.5 485.334 409.708 436.89 409.708 393.668 c 0
 409.708 312.859 429.954 250.303 471 206 c 0
 506 168 554 149 613 149 c 0
 718 150 806 193 879 278 c 0
 935 345 974 429 996 532 c 0
 1006.85 582.541 1012.3 628.48 1012.3 669.738 c 0
 1012.3 750.114 991.63 812.727 950 857 c 0
 911 900 856 921 785 921 c 0
 713 921 644 889 577 824 c 0
 501 750 451 655 427 539 c 0
EndSplineSet
EndChar
StartChar: c
Encoding: 69 99 71
OldEncoding: 99
Width: 1024
Flags: HW
Fore
914 403 m 1
 1091 403 l 1
 1052 244 968 129 841 58 c 0
 760 13 666 -10 561 -10 c 0
 435 -10 337 31 265 113 c 0
 205.353 183.353 175.529 272.419 175.529 380.197 c 0
 175.529 413.36 178.353 448.294 184 485 c 0
 186 499 189 513 192 527 c 0
 232 714 311 858 432 958 c 0
 535 1043 656 1086 795 1086 c 0
 960 1086 1070 1036 1124 936 c 0
 1147.67 893.097 1159.3 842.533 1159.3 783.905 c 0
 1159.3 763.274 1157.86 741.645 1155 719 c 0
 1154 712 1153 704 1151 696 c 1
 976 696 l 1
 977.143 705.857 977.714 715.449 977.714 724.776 c 0
 977.714 780.735 957.143 827.143 916 864 c 0
 876 899 827 916 766 916 c 0
 576 916 450 805 390 583 c 1
 378 532 l 1
 368.36 486.288 363.555 444.637 363.555 407.018 c 0
 363.555 323.662 387.146 260.098 434 216 c 0
 473 179 527 160 595 160 c 0
 724 161 817 207 874 300 c 0
 891 330 904 364 914 403 c 1
EndSplineSet
EndChar
StartChar: d
Encoding: 70 100 72
OldEncoding: 100
Width: 1139
Flags: HW
Fore
824 0 m 1
 850 122 l 1
 771 34 663 -10 525 -10 c 0
 388 -10 289 41 226 142 c 0
 185.841 207.343 165.604 285.196 165.604 375.557 c 0
 165.604 417.951 170.058 463.099 179 511 c 0
 181 521 181 521 183 530 c 0
 218 697 287 831 389 933 c 0
 492 1035 612 1086 750 1086 c 0
 879 1086 966 1046 1012 965 c 2
 1016 958 l 1
 1124 1466 l 1
 1303 1466 l 1
 991 0 l 1
 824 0 l 1
368 530 m 0
 356.849 478.639 351.293 432.188 351.293 390.646 c 0
 351.293 309.247 372.626 246.699 415 203 c 0
 454 164 507 144 575 144 c 0
 634 144 695 171 758 224 c 0
 839 293 894 384 922 496 c 0
 924 505 924 505 926 515 c 0
 937.025 566.818 942.513 614.178 942.513 657.033 c 0
 942.513 730.788 926.257 791.195 894 838 c 0
 858 891 806 917 739 917 c 0
 618 917 523 861 452 750 c 0
 415 690 386 617 368 530 c 0
EndSplineSet
EndChar
StartChar: e
Encoding: 71 101 73
OldEncoding: 101
Width: 1139
Flags: HW
Fore
933 333 m 1
 1119 333 l 1
 1070 214 989 123 876 62 c 0
 801 21 720 -2 629 -8 c 0
 612 -9 596 -10 579 -10 c 0
 392 -10 267 52 207 177 c 0
 180.838 229.919 167.757 292.03 167.757 363.333 c 0
 167.757 411.949 173.838 464.838 186 522 c 0
 225 705 304 848 424 949 c 0
 530 1040 657 1086 802 1086 c 0
 969 1086 1082 1026 1142 906 c 0
 1170.51 847.791 1184.56 778.645 1184.56 698.772 c 0
 1184.56 644.172 1177.99 584.559 1165 520 c 0
 1162 508 1159 496 1156 485 c 1
 370 485 l 1
 362.991 448.254 359.5 414.53 359.5 383.83 c 0
 359.5 269.993 407.489 197.716 502 167 c 0
 535 157 572 152 614 152 c 0
 754 152 857 205 920 311 c 0
 933 333 l 1
409 649 m 1
 1000 649 l 1
 1002.25 667.688 1003.38 685.392 1003.38 702.112 c 0
 1003.38 811.548 955.023 878.844 857 904 c 0
 831 911 800 914 767 914 c 0
 684 914 609 889 540 839 c 0
 475 790 431 727 409 649 c 1
EndSplineSet
EndChar
StartChar: f
Encoding: 72 102 74
OldEncoding: 102
Width: 569
Flags: HW
Fore
178 0 m 1
 345 785 l 1
 186 785 l 1
 216 925 l 1
 375 925 l 1
 428 1175 l 2
 458 1318 527 1418 635 1474 c 0
 688 1501 746 1515 809 1515 c 0
 860 1515 909 1506 956 1488 c 1
 920 1316 l 1
 869 1334 824 1343 786 1343 c 0
 783.25 1343.12 780.516 1343.19 777.801 1343.19 c 0
 758.797 1343.19 740.75 1340.12 725 1334 c 0
 664 1312 624 1254 604 1160 c 2
 554 925 l 1
 733 925 l 1
 703 785 l 1
 524 785 l 1
 357 0 l 1
 178 0 l 1
EndSplineSet
KernsSLIF: 72 -37 0 0
EndChar
StartChar: g
Encoding: 73 103 75
OldEncoding: 103
Width: 1139
Flags: HW
Fore
86 -74 m 1
 261 -74 l 1
 256 -115 l 1
 255.89 -117.599 255.835 -120.165 255.835 -122.7 c 0
 255.835 -189.408 293.855 -233.842 369 -256 c 0
 397 -264 429 -268 464 -268 c 0
 585 -268 676 -227 737 -146 c 0
 784 -84 821 9 847 134 c 0
 848 136 848 136 849 139 c 1
 750 46 642 0 525 0 c 0
 379 0 275 54 215 163 c 0
 179.66 224.845 162.241 297.443 162.241 380.542 c 0
 162.241 429.123 168.194 481.292 180 537 c 0
 214 695 280 824 381 925 c 0
 486 1032 612 1086 757 1086 c 0
 898 1086 993 1049 1043 974 c 1
 1062 1062 l 1
 1228 1062 l 1
 1033 144 l 2
 988 -65 922 -214 834 -301 c 0
 780 -355 712 -392 629 -413 c 0
 573 -428 507 -435 430 -435 c 1
 362 -431 l 1
 240 -418 155 -370 110 -287 c 0
 88.6667 -247.667 78 -203 78 -153 c 0
 78 -128 80.6667 -101.667 86 -74 c 1
368 550 m 0
 356.73 496.835 351.102 449.312 351.102 407.432 c 0
 351.102 278.372 404.545 202.895 511 181 c 0
 532 177 554 175 579 175 c 0
 766 175 885 298 938 544 c 0
 948.688 594.999 954.061 640.868 954.061 681.609 c 0
 954.061 774.276 926.264 840.407 870 880 c 0
 835 905 790 917 734 917 c 0
 623 917 532 869 463 774 c 0
 419 714 387 639 368 550 c 0
EndSplineSet
EndChar
StartChar: h
Encoding: 74 104 76
OldEncoding: 104
Width: 1139
Flags: HW
Fore
135 0 m 1
 447 1466 l 1
 627 1466 l 1
 521 970 l 1
 576 1026 646 1064 731 1083 c 0
 765 1091 799 1095 833 1095 c 0
 984 1095 1083 1042 1130 935 c 0
 1147.99 893.798 1156.89 847.208 1156.89 795.034 c 0
 1156.89 757.301 1152.23 716.648 1143 673 c 2
 1000 0 l 1
 820 0 l 1
 953 624 l 2
 959.975 657.325 963.459 687.422 963.459 714.29 c 0
 963.459 826.097 903.131 882 783 882 c 0
 646 882 545 817 480 687 c 0
 457 642 441 591 428 532 c 2
 315 0 l 1
 135 0 l 1
EndSplineSet
EndChar
StartChar: i
Encoding: 75 105 77
OldEncoding: 105
Width: 455
Flags: HW
Fore
404 1259 m 1
 448 1466 l 1
 628 1466 l 1
 584 1259 l 1
 404 1259 l 1
136 0 m 1
 362 1062 l 1
 542 1062 l 1
 316 0 l 1
 136 0 l 1
EndSplineSet
EndChar
StartChar: j
Encoding: 76 106 78
OldEncoding: 106
Width: 455
Flags: HW
Fore
401 1257 m 1
 446 1466 l 1
 626 1466 l 1
 581 1257 l 1
 401 1257 l 1
-182 -412 m 1
 -149 -259 l 1
 -115 -264 -87 -267 -64 -267 c 0
 -5 -267 39 -247 67 -206 c 0
 89 -174 108 -123 123 -54 c 2
 360 1062 l 1
 540 1062 l 1
 302 -58 l 2
 262 -246 186 -362 74 -406 c 0
 36 -421 -6 -428 -52 -428 c 0
 -92 -428 -135 -423 -182 -412 c 1
EndSplineSet
EndChar
StartChar: k
Encoding: 77 107 79
OldEncoding: 107
Width: 1024
Flags: HW
Fore
136 0 m 1
 448 1466 l 1
 628 1466 l 1
 450 630 l 1
 968 1062 l 1
 1201 1062 l 1
 711 668 l 1
 1016 0 l 1
 794 0 l 1
 558 543 l 1
 405 421 l 1
 316 0 l 1
 136 0 l 1
EndSplineSet
EndChar
StartChar: l
Encoding: 78 108 80
OldEncoding: 108
Width: 455
Flags: HW
Fore
131 0 m 1
 443 1466 l 1
 623 1466 l 1
 311 0 l 1
 131 0 l 1
EndSplineSet
EndChar
StartChar: m
Encoding: 79 109 81
OldEncoding: 109
Width: 1706
Flags: HW
Fore
135 0 m 1
 361 1062 l 1
 522 1062 l 1
 490 913 l 1
 534 965 588 1007 650 1038 c 0
 711 1070 778 1086 849 1086 c 0
 928 1086 988 1070 1032 1037 c 0
 1075 1004 1101 959 1109 900 c 1
 1220 1024 1342 1086 1477 1086 c 0
 1582 1086 1657 1057 1701 998 c 0
 1729.37 961.43 1743.43 912.138 1743.43 850.374 c 0
 1743.43 814.182 1738.61 773.707 1729 729 c 2
 1574 0 l 1
 1395 0 l 1
 1537 669 l 2
 1549.05 723.22 1554.86 766.097 1554.86 797.207 c 0
 1554.86 807.408 1554.23 816.345 1553 824 c 0
 1548 856 1532 882 1506 901 c 0
 1479 920 1445 930 1404 930 c 0
 1329 930 1261 905 1202 856 c 0
 1142 806 1100 726 1077 617 c 2
 946 0 l 1
 766 0 l 1
 913 690 l 2
 920.471 725.159 924.08 756.455 924.08 783.888 c 0
 924.08 818.875 918.21 847.579 907 870 c 0
 886 910 843 930 776 930 c 0
 725 930 676 917 627 890 c 0
 578 863 538 824 508 773 c 0
 478 722 453 648 432 551 c 2
 315 0 l 1
 135 0 l 1
EndSplineSet
EndChar
StartChar: n
Encoding: 80 110 82
OldEncoding: 110
Width: 1139
Flags: HW
Fore
135 0 m 1
 361 1064 l 1
 541 1064 l 1
 521 970 l 1
 576 1026 646 1064 731 1083 c 0
 765 1091 799 1095 833 1095 c 0
 984 1095 1083 1042 1130 935 c 0
 1147.99 893.798 1156.89 847.208 1156.89 795.034 c 0
 1156.89 757.301 1152.23 716.648 1143 673 c 2
 1000 0 l 1
 820 0 l 1
 953 624 l 2
 959.975 657.325 963.459 687.422 963.459 714.29 c 0
 963.459 826.097 903.131 882 783 882 c 0
 646 882 545 817 480 687 c 0
 457 642 441 591 428 532 c 2
 315 0 l 1
 135 0 l 1
EndSplineSet
EndChar
StartChar: o
Encoding: 81 111 83
OldEncoding: 111
Width: 1139
Flags: HW
Fore
181 531 m 0
 221 721 305 865 431 964 c 0
 535 1045 657 1086 797 1086 c 0
 953 1086 1065 1035 1133 932 c 0
 1175.09 868.207 1196.42 790.574 1196.42 699.385 c 0
 1196.42 651.917 1190.64 600.775 1179 546 c 0
 1128 305 1018 141 850 54 c 0
 766 11 671 -11 564 -11 c 0
 385 -11 264 50 202 171 c 0
 175.278 225.631 161.604 290.135 161.604 364.512 c 0
 161.604 415.388 168.002 470.884 181 531 c 0
366 531 m 0
 355.305 480.703 349.957 435.253 349.957 394.672 c 0
 349.957 294.867 382.305 224.523 447 184 c 0
 487 159 536 147 597 147 c 0
 734 147 839 208 914 329 c 0
 949 386 975 456 992 537 c 0
 1002.45 585.653 1007.67 629.935 1007.67 669.879 c 0
 1007.67 752.266 985.449 816.204 941 862 c 0
 900 906 840 928 763 928 c 0
 640 928 540 875 465 770 c 0
 419 706 386 626 366 531 c 0
EndSplineSet
EndChar
StartChar: p
Encoding: 82 112 84
OldEncoding: 112
Width: 1139
Flags: HW
Fore
492 957 m 1
 505 970 519 981 533 992 c 0
 615 1055 709 1086 815 1086 c 0
 950 1086 1048 1039 1110 945 c 0
 1153.19 879.247 1175.19 798.118 1175.19 701.881 c 0
 1175.19 648.83 1168.5 591.188 1155 529 c 0
 1123 377 1058 251 962 152 c 0
 856 44 733 -10 591 -10 c 0
 473 -10 386 38 330 133 c 1
 219 -390 l 1
 39 -390 l 1
 351 1076 l 1
 518 1076 l 1
 492 957 l 1
414 537 m 0
 405.071 495.571 400.607 456.821 400.607 420.75 c 0
 400.607 355.821 415.071 299.571 444 252 c 0
 483 187 538 155 610 155 c 0
 681 155 745 176 803 219 c 0
 894 286 955 395 987 544 c 0
 990 561 993 578 995 595 c 0
 998.472 621.039 1000.25 645.759 1000.25 669.243 c 0
 1000.25 699.872 997.226 728.397 991 755 c 1
 978 798 l 1
 941 883 871 926 766 927 c 0
 707 927 651 908 600 870 c 0
 508 802 447 691 414 537 c 0
EndSplineSet
EndChar
StartChar: q
Encoding: 83 113 85
OldEncoding: 113
Width: 1139
Flags: HW
Fore
1070 1076 m 1
 1237 1076 l 1
 925 -390 l 1
 745 -390 l 1
 856 133 l 1
 760 38 653 -10 535 -10 c 0
 393 -10 292 44 232 152 c 0
 198.093 214.163 181.14 286.971 181.14 370.176 c 0
 181.14 419.484 187.093 472.442 199 529 c 0
 237 704 311 843 422 945 c 0
 524 1039 642 1086 777 1086 c 0
 883 1086 963 1055 1019 992 c 0
 1029 981 1037 970 1044 957 c 1
 1070 1076 l 1
944 537 m 0
 955.385 590.128 961.056 638.139 961.056 681.032 c 0
 961.056 762.47 940.611 825.459 900 870 c 0
 865 908 817 927 758 927 c 0
 653 926 565 883 492 798 c 1
 459 755 l 1
 428 708 405 655 387 595 c 0
 383 578 378 561 375 544 c 0
 364.146 493.459 358.699 447.52 358.699 406.262 c 0
 358.699 325.887 379.37 263.273 421 219 c 0
 459 176 515 155 586 155 c 0
 658 155 727 187 794 252 c 0
 869 326 919 421 944 537 c 0
EndSplineSet
EndChar
StartChar: r
Encoding: 84 114 86
OldEncoding: 114
Width: 682
Flags: HW
Fore
133 0 m 1
 359 1062 l 1
 521 1062 l 1
 496 947 l 1
 529 992 577 1027 640 1052 c 0
 647 1055 657 1058 667 1062 c 0
 695 1072 727 1077 762 1077 c 0
 827 1077 883 1061 929 1028 c 1
 831 861 l 1
 793 887 752 900 709 900 c 0
 686 900 664 896 643 889 c 0
 627 883 610 875 594 864 c 0
 518 815 465 713 431 556 c 2
 313 0 l 1
 133 0 l 1
EndSplineSet
KernsSLIF: 16 -113 0 0 14 -113 0 0
EndChar
StartChar: s
Encoding: 85 115 87
OldEncoding: 115
Width: 1024
Flags: HW
Fore
139 358 m 1
 317 358 l 1
 316.458 350.208 316.187 342.636 316.187 335.285 c 0
 316.187 234.141 367.521 174.713 471 157 c 0
 495 153 520 151 548 151 c 0
 633 151 704 172 760 214 c 0
 796 241 818 271 825 306 c 0
 826.635 314.622 827.453 322.89 827.453 330.801 c 0
 827.453 376.111 800.635 409.716 747 431 c 0
 721 442 679 452 621 463 c 0
 503 486 426 505 390 520 c 0
 330 544 289 583 268 638 c 0
 257.679 664.107 252.518 691.689 252.518 720.969 c 0
 252.518 739.915 254.679 759.571 259 780 c 0
 281 884 343 964 446 1021 c 0
 526 1064 616 1086 715 1086 c 0
 881 1086 989 1040 1041 949 c 0
 1062.17 912.144 1072.28 869.755 1072.28 820.866 c 0
 1072.28 807.41 1071.51 793.461 1070 779 c 0
 1070 774 1068 769 1067 764 c 1
 891 764 l 1
 891.305 769.027 891.457 773.936 891.457 778.727 c 0
 891.457 868.267 838.16 916.406 729 924 c 1
 694 925 l 2
 603 925 533 902 486 856 c 1
 466 833 l 1
 453 807 l 1
 444 778 l 1
 443.732 774.517 443.608 770.962 443.608 767.373 c 0
 443.608 757.569 444.536 747.517 446 738 c 0
 452 709 478 687 524 673 c 0
 544 667 588 657 654 644 c 0
 776 620 859 597 904 575 c 0
 982 538 1022 479 1022 400 c 0
 1022 377 1020 352 1014 325 c 0
 992 220 929 136 827 73 c 0
 736 17 632 -11 515 -11 c 0
 344 -11 229 39 171 138 c 0
 146.161 181.104 134.131 232.214 134.131 290.55 c 0
 134.131 312.063 135.767 334.56 139 358 c 1
EndSplineSet
EndChar
StartChar: t
Encoding: 86 116 88
OldEncoding: 116
Width: 569
Flags: HW
Fore
562 161 m 1
 554 2 l 1
 504 -8 455 -13 408 -13 c 0
 342 -13 296 -3 270 17 c 0
 234 44 214 82 212 130 c 0
 211.586 135.524 211.381 141.429 211.381 147.719 c 0
 211.381 186.972 219.348 241.186 234 311 c 2
 364 922 l 1
 214 922 l 1
 244 1062 l 1
 394 1062 l 1
 473 1433 l 1
 652 1433 l 1
 573 1062 l 1
 723 1062 l 1
 693 922 l 1
 543 922 l 1
 411 301 l 2
 402.386 260.803 397.895 230.911 397.895 211.694 c 0
 397.895 204.138 398.589 198.233 400 194 c 0
 404 184 412 175 423 167 c 0
 437 158 456 153 482 153 c 0
 499 153 525 156 562 161 c 1
EndSplineSet
EndChar
StartChar: u
Encoding: 87 117 89
OldEncoding: 117
Width: 1139
Flags: HW
Fore
1200 1085 m 1
 969 0 l 1
 789 0 l 1
 803 64 l 1
 750 17 665 -7 546 -10 c 0
 540 -10 540 -10 535 -10 c 2
 466 -7 l 1
 325 8 235 71 197 181 c 0
 184.677 215.825 178.67 254.095 178.67 295.81 c 0
 178.67 331.954 183.18 370.684 192 412 c 2
 335 1085 l 1
 515 1085 l 1
 382 461 l 2
 375.856 432.582 372.792 406.393 372.792 382.449 c 0
 372.792 312.868 398.665 262.247 450 231 c 0
 483 211 526 201 577 201 c 0
 747 201 850 286 886 456 c 2
 1020 1085 l 1
 1200 1085 l 1
EndSplineSet
EndChar
StartChar: v
Encoding: 88 118 90
OldEncoding: 118
Width: 1024
Flags: HW
Fore
429 0 m 1
 252 1062 l 1
 442 1062 l 1
 577 269 l 1
 1036 1062 l 1
 1226 1062 l 1
 599 0 l 1
 429 0 l 1
EndSplineSet
KernsSLIF: 16 -152 0 0 14 -152 0 0
EndChar
StartChar: w
Encoding: 89 119 91
OldEncoding: 119
Width: 1479
Flags: HW
Fore
331 0 m 1
 232 1062 l 1
 418 1062 l 1
 476 246 l 1
 874 1062 l 1
 1058 1062 l 1
 1121 246 l 1
 1514 1062 l 1
 1689 1062 l 1
 1163 0 l 1
 975 0 l 1
 957 265 l 1
 930 623 916 807 914 817 c 1
 519 0 l 1
 331 0 l 1
EndSplineSet
KernsSLIF: 16 -113 0 0 14 -113 0 0
EndChar
StartChar: x
Encoding: 90 120 92
OldEncoding: 120
Width: 1024
Flags: HW
Fore
15 0 m 1
 513 552 l 1
 270 1062 l 1
 495 1062 l 1
 647 694 l 1
 992 1062 l 1
 1207 1062 l 1
 726 562 l 1
 1009 0 l 1
 788 0 l 1
 594 419 l 1
 233 0 l 1
 15 0 l 1
EndSplineSet
EndChar
StartChar: y
Encoding: 91 121 93
OldEncoding: 121
Width: 1024
Flags: HW
Fore
40 -409 m 1
 56 -240 l 1
 88 -249 123 -254 160 -254 c 0
 207 -254 247 -246 278 -231 c 0
 323 -209 357 -181 379 -146 c 0
 401 -112 419 -64 436 -2 c 1
 259 1062 l 1
 453 1062 l 1
 568 201 l 1
 1052 1062 l 1
 1232 1062 l 1
 602 -1 l 1
 556 -145 504 -245 447 -302 c 0
 418 -331 383 -355 340 -375 c 0
 282 -402 218 -418 149 -422 c 1
 96 -421 l 1
 75 -419 56 -415 40 -409 c 1
EndSplineSet
KernsSLIF: 16 -152 0 0 14 -152 0 0
EndChar
StartChar: z
Encoding: 92 122 94
OldEncoding: 122
Width: 1024
Flags: HW
Fore
40 0 m 1
 73 155 l 1
 911 916 l 1
 255 916 l 1
 286 1062 l 1
 1174 1062 l 1
 1143 916 l 1
 295 155 l 1
 1013 155 l 1
 980 0 l 1
 40 0 l 1
EndSplineSet
EndChar
StartChar: braceleft
Encoding: 93 123 95
OldEncoding: 123
Width: 684
Flags: HW
Fore
187 612 m 1
 238 613 283 627 321 654 c 0
 360 680 388 716 409 762 c 0
 430 808 452 887 476 998 c 0
 501 1109 518 1183 529 1218 c 0
 547 1274 567 1319 592 1353 c 0
 615 1387 641 1414 669 1434 c 0
 697 1455 731 1470 771 1481 c 0
 797 1488 840 1491 897 1491 c 2
 953 1491 l 1
 920 1334 l 1
 889 1334 l 2
 820 1334 771 1321 742 1296 c 0
 714 1271 691 1216 673 1129 c 0
 636 954 608 844 592 798 c 0
 565 727 533 672 495 633 c 128
 458 594 405 560 337 530 c 1
 403 499 447 453 467 390 c 0
 474.623 365.989 478.323 336.022 478.323 300.21 c 0
 478.323 242.06 468.566 168.498 450 80 c 0
 422 -50 407 -127 405 -152 c 0
 403.949 -161.458 403.428 -170.341 403.428 -178.641 c 0
 403.428 -209.833 410.783 -232.783 425 -247 c 0
 443 -265 484 -274 547 -274 c 2
 578 -274 l 1
 544 -431 l 1
 488 -431 l 2
 423 -431 376 -426 350 -415 c 0
 310 -400 280 -375 260 -340 c 0
 241.625 -310.25 232.438 -273.609 232.438 -229.408 c 0
 232.438 -223.094 232.625 -216.625 233 -210 c 0
 236 -157 250 -71 274 49 c 0
 297.322 160.946 310.201 240.692 310.201 288.238 c 0
 310.201 291.659 310.134 294.913 310 298 c 0
 309 344 296 380 269 407 c 0
 242 434 203 448 152 449 c 1
 187 612 l 1
EndSplineSet
EndChar
StartChar: bar
Encoding: 94 124 96
OldEncoding: 124
Width: 532
Flags: HW
Fore
96 -431 m 1
 505 1491 l 1
 662 1491 l 1
 253 -431 l 1
 96 -431 l 1
EndSplineSet
EndChar
StartChar: braceright
Encoding: 95 125 97
OldEncoding: 125
Width: 684
Flags: HW
Fore
756 612 m 1
 721 449 l 1
 670 448 625 434 587 407 c 0
 549 380 520 344 499 298 c 0
 479 253 457 174 432 63 c 0
 408 -48 390 -122 380 -157 c 0
 362 -214 341 -259 318 -292 c 0
 294 -326 268 -353 240 -374 c 0
 211 -394 177 -409 138 -420 c 0
 111 -427 68 -431 11 -431 c 2
 -45 -431 l 1
 -11 -274 l 1
 20 -274 l 2
 89 -274 138 -261 166 -236 c 0
 194 -211 217 -155 236 -68 c 0
 271 99 296 204 312 249 c 0
 339 323 372 382 414 426 c 0
 455 471 507 505 572 530 c 1
 503 567 459 615 441 676 c 0
 433.78 698.8 430.17 727.665 430.17 762.54 c 0
 430.17 819.44 439.78 892.34 459 981 c 0
 486 1111 501 1189 503 1214 c 0
 504.06 1223.54 504.581 1232.46 504.581 1240.75 c 0
 504.581 1271.56 497.395 1293.82 484 1308 c 0
 466 1325 425 1334 362 1334 c 2
 331 1334 l 1
 364 1491 l 1
 420 1491 l 2
 485 1491 532 1486 559 1475 c 0
 598 1460 628 1436 649 1401 c 0
 667.182 1369.18 676.273 1330.75 676.273 1284.21 c 0
 676.273 1279.55 676.182 1274.82 676 1270 c 0
 673 1217 658 1131 634 1011 c 0
 609.962 895.615 597.942 814.439 597.942 767.472 c 0
 597.942 765.593 597.962 763.769 598 762 c 0
 599 717 613 681 639 654 c 0
 666 627 705 613 756 612 c 1
EndSplineSet
EndChar
StartChar: asciitilde
Encoding: 96 126 98
OldEncoding: 126
Width: 1196
Flags: HW
Fore
205 557 m 1
 249 762 l 1
 337 842 437 882 552 882 c 0
 592 882 633 876 675 864 c 0
 716 853 774 830 848 795 c 0
 890 776 921 763 943 757 c 0
 965 751 988 748 1011 748 c 0
 1054 748 1102 761 1153 787 c 0
 1206 813 1254 846 1298 885 c 1
 1253 673 l 1
 1202 633 1152 604 1105 586 c 0
 1058 568 1007 559 952 559 c 0
 912 559 875 564 840 573 c 0
 806 582 754 605 682 640 c 0
 610 675 548 693 495 693 c 0
 452 693 410 684 370 666 c 0
 328 647 273 611 205 557 c 1
EndSplineSet
EndChar
StartChar: exclamdown
Encoding: 99 161 101
OldEncoding: 161
Width: 680
Flags: HW
Fore
714 1278 m 1
 510 1278 l 1
 554 1489 l 1
 758 1489 l 1
 714 1278 l 1
452 0 m 1
 228 0 l 1
 485 1079 l 1
 651 1079 l 1
 452 0 l 1
EndSplineSet
EndChar
StartChar: cent
Encoding: 100 162 102
OldEncoding: 162
Width: 1118
Flags: HW
Fore
557 2 m 1
 418 19 320 75 264 171 c 128
 229.866 230.58 212.679 302.87 212.679 387.633 c 0
 212.679 439.446 219.101 495.92 232 557 c 0
 266 716 332 844 432 943 c 128
 532 1042 653 1099 794 1115 c 1
 871 1475 l 1
 985 1475 l 1
 908 1116 l 1
 966 1114 1020 1105 1070 1090 c 128
 1120 1074 1162 1056 1195 1037 c 1
 1153 837 l 1
 1143 837 l 1
 1109 871 1072 901 1030 926 c 128
 988 951 938 968 879 977 c 1
 701 141 l 1
 735 144 768 152 805 164 c 128
 839 176 870 189 896 202 c 0
 923 216 947 230 969 244 c 128
 991 257 1009 270 1025 281 c 1
 1035 281 l 1
 993 83 l 1
 945 63 896 45 846 30 c 128
 795 14 737 4 671 1 c 1
 594 -361 l 1
 480 -361 l 1
 557 2 l 1
588 146 m 1
 763 971 l 1
 683 957 613 915 554 846 c 128
 494 776 452 680 425 557 c 0
 413.122 499.896 407.088 448.635 407.088 403.409 c 0
 407.088 349.635 415.619 304.392 433 268 c 128
 464 200 516 159 588 146 c 1
EndSplineSet
EndChar
StartChar: sterling
Encoding: 101 163 103
OldEncoding: 163
Width: 1118
Flags: HW
Fore
1031 0 m 1
 89 0 l 1
 133 207 l 1
 212 229 273 272 317 335 c 128
 361 398 395 491 421 613 c 1
 260 613 l 1
 290 751 l 1
 451 751 l 1
 519 1071 l 2
 547 1205 609 1313 704 1395 c 128
 798 1477 908 1518 1031 1518 c 0
 1096 1518 1150 1513 1193 1502 c 128
 1237 1492 1277 1481 1313 1470 c 1
 1270 1264 l 1
 1260 1264 l 1
 1226 1291 1188 1313 1144 1328 c 128
 1100 1343 1057 1351 1014 1351 c 0
 932 1351 866 1325 815 1274 c 128
 763 1223 727 1149 707 1052 c 2
 643 751 l 1
 1007 751 l 1
 977 613 l 1
 613 613 l 1
 600 552 l 2
 584 474 550 403 496 340 c 128
 445 276 378 223 300 182 c 1
 297 171 l 1
 1067 171 l 1
 1031 0 l 1
EndSplineSet
EndChar
StartChar: currency
Encoding: 102 164 104
OldEncoding: 164
Width: 1118
Flags: HW
Fore
1115 272 m 1
 986 166 l 1
 817 378 l 1
 784 360 753 347 725 338 c 128
 697 330 665 326 629 326 c 0
 598 326 568 331 540 341 c 128
 511 351 486 364 466 379 c 1
 205 164 l 1
 123 273 l 1
 380 486 l 1
 369 513 363 542 360 572 c 128
 359.5 580 359.25 587.812 359.25 595.469 c 0
 359.25 618.438 361.5 640 366 661 c 0
 372 690 383 720 397 750 c 128
 414 779 433 808 455 835 c 1
 288 1051 l 1
 418 1157 l 1
 587 944 l 1
 615 960 645 973 678 982 c 128
 711 991 742 996 772 996 c 0
 807 996 838 991 866 980 c 128
 894 970 918 958 937 945 c 1
 1194 1157 l 1
 1281 1052 l 1
 1021 836 l 1
 1033 807 1040 780 1043 753 c 128
 1043.87 745.129 1044.32 737.004 1044.32 728.574 c 0
 1044.32 708.085 1041.67 685.797 1036 661 c 0
 1030 631 1019 600 1003 570 c 128
 986 538 968 511 946 486 c 1
 1115 272 l 1
892 661 m 0
 895.452 676.247 897.166 690.915 897.166 705.028 c 0
 897.166 739.97 886.657 771.507 866 800 c 128
 836 838 795 858 742 858 c 0
 691 858 642 839 596 800 c 128
 549 762 520 716 508 661 c 0
 504.975 646.425 503.462 632.379 503.462 618.842 c 0
 503.462 583.154 513.975 551 535 522 c 128
 565 484 606 464 659 464 c 0
 710 464 759 483 805 522 c 128
 852 560 881 606 892 661 c 0
EndSplineSet
EndChar
StartChar: yen
Encoding: 103 165 105
OldEncoding: 165
Width: 1118
Flags: HW
Fore
1375 1489 m 1
 795 678 l 1
 774 578 l 1
 1116 578 l 1
 1087 440 l 1
 747 440 l 1
 653 0 l 1
 465 0 l 1
 559 440 l 1
 219 440 l 1
 248 578 l 1
 590 578 l 1
 607 657 l 1
 372 1489 l 1
 582 1489 l 1
 741 850 l 1
 1174 1489 l 1
 1375 1489 l 1
EndSplineSet
EndChar
StartChar: brokenbar
Encoding: 104 166 106
OldEncoding: 166
Width: 783
Flags: HW
Fore
636 758 m 1
 469 758 l 1
 639 1556 l 1
 806 1556 l 1
 636 758 l 1
392 -392 m 1
 225 -392 l 1
 394 406 l 1
 561 406 l 1
 392 -392 l 1
EndSplineSet
EndChar
StartChar: section
Encoding: 105 167 107
OldEncoding: 167
Width: 1118
Flags: HW
Fore
844 401 m 0
 865 424 883 447 895 468 c 128
 910 490 920 519 928 555 c 0
 932.304 575.29 934.34 593.689 934.34 610.431 c 0
 934.34 620.919 933.541 630.756 932 640 c 128
 927 664 918 684 905 699 c 0
 892 714 876 727 857 738 c 128
 838 748 815 757 789 766 c 0
 758 776 758 776 716 788 c 128
 689 797 659 807 624 819 c 1
 609 811 593 801 576 789 c 128
 559 777 540 760 518 738 c 0
 501 721 484 697 466 668 c 128
 450 639 437 609 431 579 c 0
 426.793 558.35 424.634 539.308 424.634 521.875 c 0
 424.634 493.721 430.266 469.763 442 450 c 128
 460 418 503 391 570 369 c 0
 602 359 602 359 644 346 c 128
 684 332 684 332 734 315 c 1
 749 323 765 334 785 348 c 128
 805 362 825 380 844 401 c 0
154 -133 m 1
 169 -142 189 -151 212 -162 c 128
 235 -173 258 -182 281 -190 c 0
 309 -200 337 -208 363 -212 c 128
 389 -218 421 -220 462 -220 c 0
 538 -220 605 -204 663 -174 c 128
 720 -142 755 -97 768 -36 c 0
 772.133 -17.3993 774.131 -0.667408 774.131 14.3337 c 0
 774.131 28.366 772.383 40.8838 769 52 c 128
 761 74 745 94 722 111 c 0
 697 128 666 142 627 154 c 128
 569 171 569 171 501 192 c 0
 445 209 400 226 366 243 c 128
 329 260 299 283 274 312 c 0
 250 339 235 371 228 407 c 128
 224.661 422.027 223.064 438.1 223.064 455.218 c 0
 223.064 479.109 226.174 505.036 232 533 c 0
 246 596 274 655 319 712 c 128
 364 768 425 817 500 858 c 1
 502 865 l 1
 448 898 414 939 398 986 c 128
 388.367 1012.63 383.55 1041.51 383.55 1072.46 c 0
 383.55 1096.13 386.367 1121 392 1147 c 0
 416 1259 478 1349 577 1417 c 128
 677 1485 802 1519 951 1519 c 0
 1008 1519 1059 1515 1105 1506 c 128
 1151 1497 1202 1483 1257 1462 c 1
 1216 1268 l 1
 1206 1268 l 1
 1152 1298 1101 1320 1052 1334 c 128
 1004 1348 951 1355 895 1355 c 0
 820 1355 754 1340 696 1310 c 128
 638 1279 603 1235 590 1176 c 0
 586 1157 584 1139.75 584 1124.25 c 0
 584 1108.75 586 1095 590 1083 c 128
 599 1059 615 1039 638 1024 c 0
 660 1008 690 994 729 981 c 128
 766 968 809 955 857 942 c 0
 973 909 1051 866 1093 814 c 128
 1121.02 777.783 1135.03 733.162 1135.03 680.135 c 0
 1135.03 655.562 1132.02 629.183 1126 601 c 0
 1110 529 1079 466 1032 412 c 128
 983 358 926 313 858 277 c 1
 856 270 l 1
 908 239 943 201 961 154 c 128
 970.633 127.367 975.45 98.4856 975.45 66.9927 c 0
 975.45 42.91 972.633 17.3 967 -10 c 0
 956 -59 935 -108 905 -155 c 128
 873 -202 836 -242 790 -274 c 0
 741 -309 685 -337 624 -356 c 128
 562 -375 490 -385 408 -385 c 0
 355 -385 304 -380 254 -371 c 128
 204 -362 153 -347 102 -327 c 1
 144 -133 l 1
 154 -133 l 1
EndSplineSet
EndChar
StartChar: dieresis
Encoding: 106 168 108
OldEncoding: 168
Width: 1118
Flags: HW
Fore
1144 1304 m 1
 943 1304 l 1
 985 1499 l 1
 1186 1499 l 1
 1144 1304 l 1
731 1304 m 1
 530 1304 l 1
 572 1499 l 1
 773 1499 l 1
 731 1304 l 1
EndSplineSet
EndChar
StartChar: copyright
Encoding: 107 169 109
OldEncoding: 169
Width: 1902
Flags: HW
Fore
1955 655 m 0
 1904 416 1777 212 1571 44 c 128
 1367 -126 1145 -210 906 -210 c 128
 667 -210 481 -126 349 44 c 128
 252.086 165.505 203.817 305.84 203.817 464.628 c 0
 203.817 525.391 210.885 588.855 225 655 c 128
 276 894 403 1097 609 1266 c 128
 813 1435 1035 1519 1274 1519 c 128
 1513 1519 1699 1435 1831 1266 c 128
 1927.91 1143.77 1976.18 1003.76 1976.18 845.205 c 0
 1976.18 784.533 1969.11 721.145 1955 655 c 0
1840 655 m 0
 1852.56 713.357 1858.81 769.298 1858.81 822.799 c 0
 1858.81 960.908 1817.17 1082.77 1735 1188 c 128
 1619 1336 1458 1409 1251 1409 c 128
 1044 1409 853 1336 675 1188 c 128
 497 1042 387 864 342 655 c 128
 329.768 596.9 323.642 541.195 323.642 487.886 c 0
 323.642 349.431 364.969 227.135 448 121 c 128
 563 -26 724 -100 931 -100 c 128
 1138 -100 1329 -26 1508 121 c 128
 1685 268 1796 446 1840 655 c 0
1328 255 m 1
 1279 235 1231 218 1183 202 c 128
 1135 188 1081 180 1020 180 c 0
 881 180 780 221 717 304 c 128
 674.922 357.913 654.025 427.819 654.025 513.436 c 0
 654.025 558.04 659.697 606.908 671 660 c 0
 704 813 771 932 872 1016 c 128
 973 1101 1091 1143 1225 1143 c 0
 1280 1143 1331 1136 1379 1121 c 128
 1427 1106 1467 1089 1501 1070 c 1
 1463 889 l 1
 1447 889 l 1
 1423 914 1389 938 1343 962 c 128
 1297 984 1249 996 1198 996 c 0
 1116 996 1044 969 984 914 c 128
 923 859 881 775 856 660 c 0
 846.879 617.172 842.319 578.433 842.319 543.658 c 0
 842.319 490.74 852.879 447 874 412 c 128
 909 356 969 327 1056 327 c 0
 1112 327 1167 339 1222 364 c 128
 1277 388 1320 411 1350 434 c 1
 1366 434 l 1
 1328 255 l 1
EndSplineSet
EndChar
StartChar: ordfeminine
Encoding: 108 170 110
OldEncoding: 170
Width: 1010
Flags: HW
Fore
994 566 m 1
 828 566 l 1
 848 657 l 1
 825 642 825 642 788 618 c 128
 764 603 740 590 717 581 c 0
 688 568 659 558 631 552 c 128
 603 544 566 541 519 541 c 0
 436 541 373 569 330 624 c 128
 299.543 663.665 284.137 711.357 284.137 766.721 c 0
 284.137 789.521 286.75 813.623 292 839 c 0
 307 908 333 965 371 1008 c 128
 410 1052 458 1087 516 1112 c 0
 571 1136 638 1153 716 1163 c 128
 794 1173 876 1180 960 1184 c 1
 964 1203 l 2
 967.794 1221.97 969.531 1238.88 969.531 1253.74 c 0
 969.531 1266.29 968.29 1277.38 966 1287 c 128
 958 1308 946 1325 927 1337 c 0
 911 1348 888 1356 860 1360 c 128
 832 1363 803 1365 772 1365 c 0
 720 1365 665 1357 609 1342 c 128
 552 1326 509 1313 481 1304 c 1
 466 1304 l 1
 502 1474 l 1
 533 1483 579 1492 639 1503 c 128
 701 1514 756 1519 806 1519 c 0
 934 1519 1026 1494 1081 1442 c 128
 1119.9 1407.27 1139.02 1356.6 1139.02 1290.35 c 0
 1139.02 1261.24 1135.33 1229.11 1128 1194 c 2
 994 566 l 1
878 802 m 1
 930 1045 l 1
 886 1042 835 1038 777 1033 c 128
 719 1028 671 1020 635 1010 c 0
 592 999 556 980 526 954 c 128
 495 929 476 894 466 849 c 0
 463.033 834.165 461.562 820.386 461.562 807.663 c 0
 461.562 777.507 469.824 753.286 486 735 c 128
 510 709 551 696 609 696 c 0
 660 696 707 707 753 729 c 128
 798 751 840 775 878 802 c 1
EndSplineSet
EndChar
StartChar: guillemotleft
Encoding: 109 171 111
OldEncoding: 171
Width: 1174
Flags: HW
Fore
1084 191 m 1
 685 610 l 1
 703 695 l 1
 1280 1113 l 1
 1240 925 l 1
 865 652 l 1
 1124 379 l 1
 1084 191 l 1
647 162 m 1
 232 608 l 1
 251 697 l 1
 856 1142 l 1
 814 946 l 1
 421 652 l 1
 689 358 l 1
 647 162 l 1
EndSplineSet
EndChar
StartChar: logicalnot
Encoding: 110 172 112
OldEncoding: 172
Width: 1490
Flags: HW
Fore
1335 57 m 1
 1164 57 l 1
 1280 602 l 1
 285 602 l 1
 319 762 l 1
 1485 762 l 1
 1335 57 l 1
EndSplineSet
EndChar
StartChar: registered
Encoding: 112 174 114
OldEncoding: 174
Width: 1902
Flags: HW
Fore
1955 655 m 0
 1904 416 1777 212 1571 44 c 128
 1367 -126 1145 -210 906 -210 c 128
 667 -210 481 -126 349 44 c 128
 252.086 165.505 203.817 305.84 203.817 464.628 c 0
 203.817 525.391 210.885 588.855 225 655 c 128
 276 894 403 1097 609 1266 c 128
 813 1435 1035 1519 1274 1519 c 128
 1513 1519 1699 1435 1831 1266 c 128
 1927.91 1143.77 1976.18 1003.76 1976.18 845.205 c 0
 1976.18 784.533 1969.11 721.145 1955 655 c 0
1840 655 m 0
 1852.56 713.357 1858.81 769.298 1858.81 822.799 c 0
 1858.81 960.908 1817.17 1082.77 1735 1188 c 128
 1619 1336 1458 1409 1251 1409 c 128
 1044 1409 853 1336 675 1188 c 128
 497 1042 387 864 342 655 c 128
 329.768 596.9 323.642 541.195 323.642 487.886 c 0
 323.642 349.431 364.969 227.135 448 121 c 128
 563 -26 724 -100 931 -100 c 128
 1138 -100 1329 -26 1508 121 c 128
 1685 268 1796 446 1840 655 c 0
1494 215 m 1
 1267 215 l 1
 1059 570 l 1
 936 570 l 1
 861 215 l 1
 696 215 l 1
 890 1130 l 1
 1169 1130 l 2
 1232 1130 1281 1128 1317 1123 c 128
 1352 1118 1386 1105 1418 1084 c 0
 1454 1061 1477 1034 1488 1002 c 128
 1493.63 985.619 1496.38 966.879 1496.38 945.781 c 0
 1496.38 925.665 1493.88 903.404 1489 879 c 0
 1475 812 1445 758 1398 715 c 128
 1353 672 1297 639 1233 615 c 1
 1494 215 l 1
1304 868 m 0
 1307.3 881.763 1308.79 894.313 1308.79 905.818 c 0
 1308.79 915.212 1307.8 923.909 1306 932 c 128
 1302 950 1291 965 1274 978 c 0
 1259 989 1243 996 1223 1000 c 128
 1202 1003 1177 1005 1144 1005 c 2
 1029 1005 l 1
 963 696 l 1
 1061 696 l 2
 1093 696 1124 699 1153 706 c 128
 1182 712 1208 723 1228 738 c 128
 1248 753 1265 771 1276 791 c 128
 1288 811 1298 837 1304 868 c 0
EndSplineSet
EndChar
StartChar: macron
Encoding: 113 175 115
OldEncoding: 175
Width: 1118
Flags: HW
Fore
1487 1659 m 1
 337 1659 l 1
 364 1789 l 1
 1514 1789 l 1
 1487 1659 l 1
EndSplineSet
EndChar
StartChar: degree
Encoding: 114 176 116
OldEncoding: 176
Width: 964
Flags: HW
Fore
1104 1135 m 0
 1082 1028 1025 938 937 865 c 128
 848 792 749 755 642 755 c 0
 536 755 454 791 396 864 c 128
 353.549 916.524 332.323 977.85 332.323 1048.35 c 0
 332.323 1075.83 335.549 1104.71 342 1135 c 0
 365 1242 421 1332 510 1405 c 128
 598 1478 697 1515 804 1515 c 128
 911 1515 994 1478 1052 1405 c 128
 1092.9 1352.62 1113.72 1291.48 1113.72 1221.59 c 0
 1113.72 1194.08 1110.5 1165.22 1104 1135 c 0
947 1135 m 0
 951.108 1153.78 953.15 1171.7 953.15 1188.76 c 0
 953.15 1229.83 941.316 1265.91 918 1297 c 128
 884 1341 836 1363 772 1363 c 128
 708 1363 650 1341 598 1297 c 128
 545 1253 513 1199 499 1135 c 0
 495.058 1116.7 493.098 1099.19 493.098 1082.51 c 0
 493.098 1039.98 505.855 1002.89 531 972 c 128
 564 929 613 907 675 907 c 0
 739 907 796 929 849 974 c 128
 901 1018 934 1072 947 1135 c 0
EndSplineSet
EndChar
StartChar: plusminus
Encoding: 115 177 117
OldEncoding: 177
Width: 1490
Flags: HW
Fore
1362 159 m 1
 196 159 l 1
 229 317 l 1
 729 317 l 1
 819 739 l 1
 319 739 l 1
 353 897 l 1
 853 897 l 1
 960 1402 l 1
 1126 1402 l 1
 1019 897 l 1
 1519 897 l 1
 1485 739 l 1
 985 739 l 1
 895 317 l 1
 1395 317 l 1
 1362 159 l 1
EndSplineSet
EndChar
StartChar: uni00B2
Encoding: 116 178 118
OldEncoding: 178
Width: 1010
Flags: HW
Fore
986 566 m 1
 305 566 l 1
 338 718 l 1
 427 777 427 777 509 832 c 128
 564 868 609 900 644 929 c 0
 730 997 787 1050 817 1088 c 128
 848 1127 868 1173 880 1227 c 0
 882.967 1240.65 884.438 1253.33 884.438 1265.09 c 0
 884.438 1292.98 876.176 1315.71 860 1334 c 128
 836 1358 799 1371 748 1371 c 0
 702 1371 653 1361 603 1341 c 128
 551 1321 509 1300 478 1279 c 1
 463 1279 l 1
 501 1458 l 1
 547 1476 597 1491 649 1502 c 128
 704 1513 755 1519 804 1519 c 0
 908 1519 982 1493 1026 1440 c 128
 1058.29 1402.69 1074.62 1357.66 1074.62 1304.9 c 0
 1074.62 1284.13 1072.08 1262.16 1067 1239 c 0
 1055 1182 1031 1128 993 1076 c 128
 955 1023 894 965 808 900 c 0
 767 869 720 837 666 802 c 128
 587 751 587 751 524 710 c 1
 1017 710 l 1
 986 566 l 1
EndSplineSet
EndChar
StartChar: uni00B3
Encoding: 117 179 119
OldEncoding: 179
Width: 1010
Flags: HW
Fore
1013 828 m 0
 1003 781 984 738 956 700 c 128
 928 663 896 633 859 611 c 0
 819 586 777 569 733 558 c 128
 690 547 642 542 589 542 c 0
 534 542 484 547 438 557 c 128
 394 567 350 581 312 600 c 1
 349 775 l 1
 366 775 l 1
 386 752 419 730 466 710 c 128
 513 691 563 681 616 681 c 0
 672 681 720 693 763 718 c 128
 805 742 830 778 841 826 c 0
 843.845 839.657 845.233 852.343 845.233 864.034 c 0
 845.233 893.433 836.456 916.544 820 933 c 128
 795 956 749 968 680 968 c 2
 540 968 l 1
 569 1107 l 1
 694 1107 l 2
 752 1107 800 1120 837 1145 c 128
 874 1170 897 1205 906 1249 c 0
 908.554 1260.35 909.819 1271.06 909.819 1281.1 c 0
 909.819 1306.44 901.757 1327.53 886 1344 c 128
 864 1368 823 1380 765 1380 c 0
 721 1380 671 1370 617 1349 c 128
 560 1328 519 1306 489 1283 c 1
 472 1283 l 1
 509 1458 l 1
 556 1476 605 1491 657 1502 c 128
 710 1513 762 1519 815 1519 c 0
 916 1519 990 1496 1037 1449 c 128
 1073.08 1412.92 1090.89 1371.55 1090.89 1324.87 c 0
 1090.89 1310.73 1089.25 1296.11 1086 1281 c 0
 1074 1223 1048 1175 1008 1138 c 128
 967 1100 919 1072 864 1055 c 1
 863 1047 l 1
 913 1036 955 1013 985 976 c 128
 1008.07 950.832 1018.92 919.311 1018.92 881.095 c 0
 1018.92 864.646 1016.91 846.957 1013 828 c 0
EndSplineSet
EndChar
StartChar: acute
Encoding: 118 180 120
OldEncoding: 180
Width: 1118
Flags: HW
Fore
1227 1676 m 1
 875 1302 l 1
 726 1302 l 1
 984 1676 l 1
 1227 1676 l 1
EndSplineSet
EndChar
StartChar: mu
Encoding: 119 181 121
OldEncoding: 181
Width: 1163
Flags: HW
Fore
1027 0 m 1
 855 0 l 1
 880 116 l 1
 874 116 l 1
 825 74 778 41 732 18 c 128
 687 -5 634 -17 574 -17 c 0
 513 -17 467 -5 437 18 c 128
 407 41 377 74 348 115 c 1
 236 -412 l 1
 48 -412 l 1
 373 1117 l 1
 561 1117 l 1
 382 275 l 1
 403 242 433 215 470 194 c 128
 508 174 556 164 613 164 c 0
 673 164 725 174 771 193 c 128
 815 212 858 240 897 275 c 1
 1076 1117 l 1
 1264 1117 l 1
 1027 0 l 1
EndSplineSet
EndChar
StartChar: paragraph
Encoding: 120 182 122
OldEncoding: 182
Width: 1118
Flags: HW
Fore
905 -363 m 1
 765 -363 l 1
 1131 1359 l 1
 944 1359 l 1
 578 -363 l 1
 438 -363 l 1
 641 593 l 1
 505 596 403 639 336 722 c 128
 290.001 779.848 266.832 850.325 266.832 933.77 c 0
 266.832 970.053 271.212 1008.79 280 1050 c 0
 310 1188 375 1296 479 1373 c 128
 582 1450 714 1489 876 1489 c 2
 1298 1489 l 1
 905 -363 l 1
EndSplineSet
EndChar
StartChar: periodcentered
Encoding: 121 183 123
OldEncoding: 183
Width: 724
Flags: HW
Fore
659 832 m 1
 420 832 l 1
 480 1117 l 1
 719 1117 l 1
 659 832 l 1
EndSplineSet
EndChar
StartChar: cedilla
Encoding: 122 184 124
OldEncoding: 184
Width: 1118
Flags: HW
Fore
771 20 m 1
 770 8 768 -7 764 -26 c 128
 763 -44 759 -65 754 -89 c 0
 731 -197 684 -280 614 -337 c 128
 544 -394 465 -423 376 -423 c 0
 351 -423 323 -421 290 -417 c 128
 258 -413 229 -407 204 -399 c 1
 238 -239 l 1
 247 -239 l 1
 262 -246 281 -254 305 -262 c 128
 330 -269 355 -273 382 -273 c 0
 445 -273 492 -260 524 -234 c 128
 557 -207 579 -165 591 -107 c 0
 595 -90 599 -71 602 -50 c 128
 606 -29 610 -6 614 20 c 1
 771 20 l 1
EndSplineSet
EndChar
StartChar: uni0E01
Encoding: 123 3585 125
OldEncoding: 3585
Width: 1240
Flags: W
HStem: 0 21G<188 348 922 1082> 989 160<832 868>
VStem: 1073 169<760 818>
DStem: 265 361 425 361 188 0 348 0 1061 655 1225 671 922 0 1082 0
Fore
1225 671 m 2
 1082 0 l 1
 922 0 l 1
 1061 655 l 2
 1069 693 1073 728 1073 760 c 0
 1073 912 983 989 834 989 c 0
 696 989 576 938 471 823 c 1
 551 802 602 748 626 661 c 1
 521 596 453 496 425 361 c 2
 348 0 l 1
 188 0 l 1
 265 361 l 2
 293 492 357 595 458 669 c 1
 425 738 367 778 286 790 c 1
 433 1026 628 1149 868 1149 c 0
 1121 1149 1242 1027 1242 818 c 0
 1242 773 1236 724 1225 671 c 2
EndSplineSet
EndChar
StartChar: uni0E02
Encoding: 124 3586 126
OldEncoding: 3586
Width: 1400
Flags: W
HStem: 0 164<742 1217> 545 113<414 447> 823 102<488 520> 995 154<667 704>
VStem: 256 125<703 721> 552 109<762 798> 852 158<836 882>
DStem: 669 575 829 575 547 0 742 164 1299 1139 1459 1139 1092 164 1217 0
Fore
447 658 m 0
 502 658 538 689 550 741 c 0
 552 749 552 756 552 762 c 0
 552 799 529 823 488 823 c 0
 434 823 396 800 384 741 c 0
 382 732 381 724 381 716 c 0
 381 681 402 658 447 658 c 0
998 771 m 1
 904 718 846 654 829 575 c 2
 742 164 l 1
 1092 164 l 1
 1299 1139 l 1
 1459 1139 l 1
 1217 0 l 1
 547 0 l 1
 669 575 l 2
 687 658 752 730 847 783 c 1
 851 802 852 819 852 836 c 0
 852 879 840 914 815 942 c 128
 781 980 739 995 667 995 c 0
 601 995 551 970 520 925 c 1
 614 924 661 881 661 798 c 0
 661 787 660 777 659 765 c 0
 633 622 551 548 414 545 c 0
 309 551 256 606 256 711 c 0
 256 737 259 766 265 797 c 0
 287 890 337 971 414 1042 c 128
 492 1113 589 1149 704 1149 c 0
 808 1149 888 1120 948 1060 c 128
 990 1017 1010 958 1010 882 c 0
 1010 848 1006 811 998 771 c 1
EndSplineSet
EndChar
StartChar: uni0E03
Encoding: 125 3587 127
OldEncoding: 3587
Width: 1450
Flags: W
HStem: 0 164<819 1294> 507 116<411 454> 790 104<490 537> 1119 20G<1376 1536>
VStem: 253 133<661 684> 551 111<731 777> 932 157<848 881>
DStem: 749 587 909 587 624 0 819 164 1376 1139 1536 1139 1169 164 1294 0
Fore
454 623 m 0
 502 623 540 666 549 712 c 0
 550 719 551 725 551 731 c 0
 551 764 531 790 490 790 c 0
 433 790 400 758 389 706 c 0
 387 698 386 690 386 682 c 0
 386 646 409 623 454 623 c 0
749 587 m 2
 766 670 824 738 926 798 c 1
 930 815 932 832 932 848 c 0
 932 900 911 944 871 979 c 1
 871 978 816 946 706 881 c 1
 568 979 l 1
 533 958 507 927 489 886 c 1
 505 892 521 894 537 894 c 0
 564 894 591 886 617 870 c 128
 647 851 662 820 662 777 c 0
 662 762 661 745 657 727 c 0
 640 650 610 594 564 558 c 128
 519 521 469 507 411 507 c 0
 312 507 253 562 253 661 c 0
 253 681 255 703 260 726 c 0
 304 930 419 1079 604 1150 c 1
 604 1149 650 1113 740 1041 c 1
 907 1149 l 1
 964 1140 1012 1100 1051 1030 c 128
 1077 985 1089 936 1089 881 c 0
 1089 850 1085 817 1077 783 c 1
 980 721 923 656 909 587 c 2
 819 164 l 1
 1169 164 l 1
 1376 1139 l 1
 1536 1139 l 1
 1294 0 l 1
 624 0 l 1
 749 587 l 2
EndSplineSet
EndChar
StartChar: uni0E04
Encoding: 126 3588 128
OldEncoding: 3588
Width: 1370
Flags: W
HStem: 0 21G<245 455 1035 1195> 342 118<820 835> 625 121<868 886> 989 160<876 922>
VStem: 286 147<271 385> 939 103<565 604> 1184 166<745 799>
DStem: 1173 650 1333 651 1035 0 1195 0
Fore
434 256 m 1
 492 418 562 540 642 623 c 128
 722 705 801 746 878 746 c 0
 881 746 l 0
 988 745 1042 698 1042 604 c 0
 1042 588 1041 571 1038 553 c 0
 1009 432 937 362 822 342 c 0
 821 342 819 342 818 342 c 0
 739 342 694 369 679 424 c 1
 604 319 529 177 455 0 c 1
 245 0 l 1
 268 108 l 2
 280 166 286 240 286 333 c 0
 286 362 285 392 284 424 c 0
 284 436 283 448 283 461 c 0
 283 536 291 607 306 673 c 0
 370 970 579 1149 920 1149 c 0
 1205 1149 1350 1027 1350 799 c 0
 1350 754 1344 704 1333 651 c 2
 1195 0 l 1
 1035 0 l 1
 1173 650 l 2
 1180 684 1184 716 1184 745 c 0
 1184 896 1089 989 891 989 c 0
 653 989 506 857 461 646 c 0
 442 547 433 439 433 321 c 0
 433 300 433 278 434 256 c 1
835 460 m 0
 892 460 928 500 937 543 c 0
 939 550 939 558 939 565 c 0
 939 599 919 625 876 625 c 0
 822 625 783 596 771 543 c 0
 769 535 769 528 769 522 c 0
 769 484 792 460 835 460 c 0
EndSplineSet
EndChar
StartChar: uni0E05
Encoding: 127 3589 129
OldEncoding: 3589
Width: 1370
Flags: W
HStem: 0 21G<235 445 1025 1185> 342 118<811 825> 625 121<858 876>
VStem: 274 149<321 391.989> 929 105<564 606> 1177 166<766 811>
DStem: 1165 660 1326 661 1025 0 1185 0
Fore
424 256 m 1
 482 418 552 540 632 623 c 128
 713 706 793 746 871 746 c 0
 977 746 1034 695 1034 606 c 0
 1034 590 1032 572 1028 553 c 0
 1002 432 927 362 812 342 c 0
 811 342 809 342 808 342 c 0
 729 342 684 369 669 424 c 1
 594 319 519 177 445 0 c 1
 235 0 l 1
 258 108 l 2
 273 183 272 287 274 424 c 0
 275 514 280 600 298 683 c 0
 353 938 503 1094 746 1149 c 1
 896 1028 l 1
 1086 1149 l 1
 1257 1103 1343 990 1343 811 c 0
 1343 765 1337 715 1326 661 c 2
 1185 0 l 1
 1025 0 l 1
 1165 660 l 2
 1173 698 1177 734 1177 766 c 0
 1177 872 1132 944 1042 981 c 1
 866 868 l 1
 728 981 l 1
 581 932 489 824 453 656 c 0
 433 552 423 439 423 321 c 0
 423 299 423 278 424 256 c 1
825 460 m 0
 876 460 916 491 927 543 c 0
 929 550 929 558 929 564 c 0
 929 600 907 625 866 625 c 0
 812 625 771 586 761 543 c 0
 760 536 759 529 759 523 c 0
 759 485 783 460 825 460 c 0
EndSplineSet
EndChar
StartChar: uni0E06
Encoding: 128 3590 130
OldEncoding: 3590
Width: 1520
Flags: W
HStem: -10 119<618 632> 328 118<712 730> 508 112<433 458> 789 99<496 530> 1119 20G<1447 1607>
VStem: 266 126<677 695> 473 108<154 171> 561 113<728 755> 938 161<853 881>
DStem: 846 243 882 409 1205 0 1240 166 1447 1139 1607 1139 1240 166 1365 0
Fore
456 620 m 0xfd80
 512 620 547 656 559 712 c 0
 560 717 561 723 561 728 c 0
 561 759 541 789 496 789 c 0
 444 789 405 756 394 708 c 0
 392 700 392 692 392 685 c 0
 392 649 410 620 456 620 c 0xfd80
760 587 m 2
 777 668 835 743 933 814 c 1
 937 831 938 847 938 862 c 0
 938 912 920 951 882 979 c 1
 717 881 l 1
 579 979 l 1
 546 961 520 930 500 886 c 1
 510 887 520 888 530 888 c 0
 611 888 674 841 674 755 c 0xfd80
 674 742 672 727 669 712 c 0
 645 596 572 508 433 508 c 0
 324 508 266 571 266 679 c 0
 266 705 269 734 276 765 c 0
 293 846 329 921 389 991 c 128
 449 1061 524 1114 615 1149 c 1
 751 1041 l 1
 918 1149 l 1
 1039 1089 1099 998 1099 877 c 0
 1099 847 1095 816 1088 783 c 1
 992 728 936 663 920 587 c 2
 882 409 l 1
 1240 166 l 1
 1447 1139 l 1
 1607 1139 l 1
 1365 0 l 1
 1205 0 l 1
 846 243 l 1
 825 146 l 2
 803 43 739 -9 634 -10 c 0
 633 -10 631 -10 630 -10 c 0
 573 -10 531 11 503 52 c 128
 484 80 473 113 473 155 c 0xfe80
 473 174 475 195 480 218 c 0
 492 274 519 327 566 374 c 128
 613 421 668 445 730 446 c 1
 760 587 l 2
714 328 m 1
 682 328 655 314 631 287 c 128
 606 260 591 231 585 202 c 0
 583 190 581 179 581 169 c 0xfe80
 581 134 596 111 619 109 c 0
 621 109 622 109 624 109 c 0
 649 109 671 132 679 166 c 2
 714 328 l 1
EndSplineSet
EndChar
StartChar: uni0E07
Encoding: 129 3591 131
OldEncoding: 3591
Width: 1000
Flags: W
HStem: -10 160<551 585> 741 113<763 802> 1021 129<840 895>
VStem: 631 106<874 921> 906 147<960 978>
DStem: 298 719 462 640 285 272 446 272 858 770 1042 881 752 272 913 272
Fore
913 272 m 2
 873 85 752 -9 551 -10 c 0
 374 -10 285 82 285 266 c 0
 285 272 l 2
 298 719 l 1
 462 640 l 1
 446 272 l 2
 450 193 496 150 585 150 c 0
 680 150 735 194 752 272 c 2
 858 770 l 1
 838 751 806 741 763 741 c 0
 675 748 631 792 631 874 c 0
 631 893 634 913 638 935 c 0
 678 1076 764 1148 895 1150 c 0
 1001 1142 1053 1085 1053 978 c 0
 1053 949 1050 917 1042 881 c 2
 913 272 l 2
802 854 m 0
 854 854 893 894 904 944 c 0
 905 950 906 956 906 962 c 0
 906 998 879 1021 840 1021 c 0
 790 1021 749 990 739 940 c 0
 738 933 737 927 737 921 c 0
 737 884 761 854 802 854 c 0
EndSplineSet
EndChar
StartChar: uni0E08
Encoding: 130 3592 132
OldEncoding: 3592
Width: 1200
Flags: W
HStem: -10 160<746 780> 345 110<466 488> 623 130<535 586> 989 160<782 817>
VStem: 323 109<488 521> 518 166<187 237> 601 146<563 599> 1027 170<781 849>
DStem: 1020 715 1185 740 927 279 1087 279
Fore
689 283 m 2xfb
 685 266 684 251 684 237 c 0
 684 180 716 151 780 150 c 0
 860 150 909 193 927 279 c 2
 1020 715 l 2
 1025 738 1027 760 1027 781 c 0
 1027 909 938 989 783 989 c 0
 635 989 495 938 365 843 c 1
 290 912 l 1
 459 1067 635 1149 817 1149 c 0
 1062 1149 1197 1043 1197 849 c 0
 1197 815 1193 779 1185 740 c 2
 1087 279 l 2
 1046 87 933 -9 746 -10 c 0
 594 -10 518 56 518 187 c 0xfd
 518 215 522 248 529 283 c 2
 548 373 l 1
 533 357 505 345 466 345 c 0
 383 345 323 398 323 488 c 0
 323 504 324 520 328 537 c 0
 357 672 456 753 586 753 c 0
 694 753 747 701 747 599 c 0
 747 573 744 544 737 512 c 2
 689 283 l 2xfb
488 455 m 0
 548 455 586 486 599 546 c 0
 600 552 601 558 601 563 c 0xfb
 601 597 577 623 535 623 c 0
 485 623 445 592 434 542 c 0
 433 535 432 528 432 521 c 0
 432 485 452 455 488 455 c 0
EndSplineSet
EndChar
StartChar: uni0E09
Encoding: 131 3593 133
OldEncoding: 3593
Width: 1395
Flags: W
HStem: 0 21G<399 559> 362 111<401 422> 641 130<469 520> 986 163<844 878>
VStem: 260 106<506 540> 535 143<579 603> 978 148<125 143> 1104 170<785 850> 1245 113<242 280>
DStem: 482 391 666 502 399 0 596 176 1031 409 993 227 596 176 559 0 1096 715 1261 740 1031 409 1199 446
Fore
1261 740 m 2xfd
 1199 446 l 1
 1304 434 1358 379 1358 280 c 0
 1358 258 1355 232 1349 205 c 0
 1319 66 1233 -9 1101 -10 c 0
 1039 -10 1000 18 984 75 c 0
 980 90 978 107 978 125 c 0xfe80
 978 155 983 189 993 227 c 1
 559 0 l 1
 399 0 l 1
 482 391 l 1
 459 369 437 362 401 362 c 0
 306 362 260 418 260 506 c 0
 260 526 262 548 267 571 c 0
 305 704 389 770 520 771 c 0
 625 767 678 711 678 603 c 0
 678 573 674 539 666 502 c 2
 596 176 l 1
 1031 409 l 1
 1096 715 l 2
 1101 740 1104 763 1104 785 c 0
 1104 911 1018 986 844 986 c 0
 711 986 577 938 441 843 c 1
 366 912 l 1
 536 1069 707 1149 878 1149 c 0
 1137 1149 1274 1043 1274 850 c 0
 1274 816 1269 779 1261 740 c 2xfd
1165 328 m 1
 1128 156 l 2
 1127 150 1126 145 1126 141 c 0
 1126 117 1141 104 1165 103 c 1
 1201 108 1227 141 1240 202 c 0
 1243 217 1245 230 1245 242 c 0
 1245 292 1218 319 1165 328 c 1
422 473 m 0
 482 473 519 504 533 564 c 0
 534 570 535 576 535 581 c 0
 535 618 507 641 469 641 c 0
 419 641 380 614 368 560 c 0
 367 553 366 547 366 540 c 0
 366 503 387 473 422 473 c 0
EndSplineSet
EndChar
StartChar: uni0E0A
Encoding: 132 3594 134
OldEncoding: 3594
Width: 1390
Flags: W
HStem: 0 164<777 1208> 545 113<451 484> 823 102<525 557> 1005 144<708 743>
VStem: 293 125<703 721> 589 109<762 798> 1175 165<599 634>
DStem: 704 575 866 572 582 0 777 164 1173 578 1335 589 1083 164 1208 0
Fore
1335 589 m 2
 1208 0 l 1
 582 0 l 1
 704 575 l 2
 721 655 779 726 879 789 c 1
 879 794 879 799 879 803 c 0
 879 926 817 1005 726 1005 c 0
 659 1005 588 970 557 925 c 1
 651 924 698 881 698 798 c 0
 698 787 697 777 696 765 c 0
 670 622 588 548 451 545 c 0
 346 551 293 606 293 711 c 0
 293 737 296 766 302 797 c 0
 324 890 374 971 451 1042 c 128
 529 1113 626 1149 741 1149 c 0
 892 1149 997 1072 1037 921 c 1
 1245 972 1361 1052 1384 1163 c 2
 1390 1188 l 1
 1556 1188 l 1
 1551 1161 l 2
 1527 1028 1391 905 1197 858 c 1
 1285 818 1340 724 1340 634 c 0
 1340 619 1338 604 1335 589 c 2
866 572 m 2
 777 164 l 1
 1083 164 l 1
 1173 578 l 2
 1174 585 1175 592 1175 599 c 0
 1175 662 1120 741 1033 768 c 1
 938 715 883 650 866 572 c 2
484 658 m 0
 539 658 575 689 587 741 c 0
 589 749 589 756 589 762 c 0
 589 799 566 823 525 823 c 0
 471 823 433 800 421 741 c 0
 419 732 418 724 418 716 c 0
 418 681 439 658 484 658 c 0
EndSplineSet
EndChar
StartChar: uni0E0B
Encoding: 133 3595 135
OldEncoding: 3595
Width: 1390
Flags: W
HStem: 0 164<782 1213> 507 116<379 422> 790 104<458 505>
VStem: 219 128<675 689> 519 111<731 777> 1179 165<608 637>
DStem: 709 575 869 575 587 0 782 164 1176 581 1339 592 1088 164 1213 0
Fore
422 623 m 0
 470 623 508 666 517 712 c 0
 518 719 519 725 519 731 c 0
 519 764 499 790 458 790 c 0
 401 790 359 752 349 704 c 0
 347 697 347 691 347 685 c 0
 347 648 375 623 422 623 c 0
711 1041 m 1
 876 1149 l 1
 971 1115 1026 1039 1041 921 c 1
 1245 957 1362 1040 1388 1163 c 2
 1394 1188 l 1
 1560 1188 l 1
 1554 1164 l 2
 1525 1024 1394 908 1201 861 c 1
 1289 821 1344 728 1344 637 c 0
 1344 622 1342 607 1339 592 c 2
 1213 0 l 1
 587 0 l 1
 709 575 l 2
 724 646 782 713 883 776 c 1
 888 803 891 828 891 851 c 0
 891 909 874 952 840 979 c 1
 677 881 l 1
 536 979 l 1
 501 958 475 927 457 886 c 1
 473 892 489 894 505 894 c 0
 532 894 559 886 585 870 c 128
 615 851 630 820 630 777 c 0
 630 762 629 745 625 727 c 0
 608 650 578 594 532 558 c 128
 487 521 437 507 379 507 c 0
 287 507 219 577 219 677 c 0
 219 693 220 709 224 726 c 0
 268 930 380 1084 575 1150 c 1
 575 1149 621 1113 711 1041 c 1
1176 581 m 2
 1178 590 1179 599 1179 608 c 0
 1179 678 1123 744 1037 771 c 1
 942 718 886 653 869 575 c 2
 782 164 l 1
 1088 164 l 1
 1176 581 l 2
EndSplineSet
EndChar
StartChar: uni0E0C
Encoding: 134 3596 136
OldEncoding: 3596
Width: 1750
Flags: W
HStem: -11 116<392 427> 273 124<475 511> 989 160<836 872>
VStem: 234 138<157 182> 541 115<212 270> 760 111<138 165> 1078 167<771 824>
DStem: 1065 657 1228 673 1020 446 1172 409 1136 243 1172 409 1495 0 1532 176 1737 1139 1897 1139 1532 176 1655 0
Fore
1065 657 m 2
 1074 699 1078 737 1078 771 c 0
 1078 913 1002 989 838 989 c 0
 692 989 571 934 475 825 c 1
 550 808 602 754 630 663 c 1
 523 592 458 505 437 403 c 2
 429 369 l 1
 449 387 477 396 511 397 c 0
 613 396 656 347 656 270 c 0
 656 252 653 233 649 213 c 0
 613 44 518 -10 392 -11 c 0
 287 -6 234 51 234 158 c 0
 234 188 238 221 246 258 c 2
 277 403 l 2
 299 508 361 598 463 671 c 1
 448 730 390 770 290 792 c 1
 446 1030 640 1149 872 1149 c 0
 1118 1149 1245 1038 1245 824 c 0
 1245 778 1240 728 1228 673 c 2
 1172 409 l 1
 1532 176 l 1
 1737 1139 l 1
 1897 1139 l 1
 1655 0 l 1
 1495 0 l 1
 1136 243 l 1
 1115 146 l 2
 1095 52 1024 -8 924 -10 c 0
 818 -8 760 42 760 138 c 0
 760 158 763 181 768 205 c 0
 800 357 889 435 1020 446 c 1
 1065 657 l 2
1004 328 m 1
 937 326 891 279 876 208 c 0
 873 191 871 177 871 165 c 0
 871 131 884 114 909 109 c 0
 912 108 915 108 917 108 c 0
 943 108 962 134 971 172 c 2
 1004 328 l 1
427 105 m 0
 490 105 526 136 539 196 c 0
 540 202 541 207 541 212 c 0
 541 245 519 273 475 273 c 0
 425 273 383 236 374 192 c 0
 372 185 372 178 372 171 c 0
 372 135 393 105 427 105 c 0
EndSplineSet
EndChar
StartChar: uni0E0D
Encoding: 135 3597 137
OldEncoding: 3597
Width: 1745
Flags: W
HStem: -466 118<1107 1147> -143 82<1034 1058> -11 116<360 395> 0 176<1090 1623> 273 124<443 479> 989 160<804 840>
VStem: 202 137<156 177> 509 113<215 265> 844 106<-279 -235> 1045 168<762 825> 1100 91<-197 -180>
DStem: 1033 657 1196 673 893 0 1090 176 1705 1139 1865 1139 1500 176 1623 0
Fore
1058 -61 m 0xcfa0
 1140 -61 1191 -110 1191 -180 c 0
 1191 -191 1189 -202 1187 -214 c 0
 1173 -278 1148 -316 1094 -345 c 1
 1112 -347 1130 -348 1147 -348 c 0
 1303 -348 1416 -253 1485 -65 c 1
 1601 -65 l 1
 1537 -322 1363 -466 1107 -466 c 0
 941 -466 844 -378 844 -279 c 0
 844 -269 845 -258 847 -248 c 0
 872 -130 944 -61 1058 -61 c 0xcfa0
952 -215 m 0
 951 -222 950 -228 950 -235 c 0
 950 -266 969 -287 1011 -287 c 0
 1061 -287 1089 -257 1098 -215 c 0
 1099 -209 1100 -203 1100 -197 c 0
 1100 -163 1075 -143 1043 -143 c 0
 995 -143 963 -166 952 -215 c 0
1033 657 m 2
 1041 695 1045 730 1045 762 c 0
 1045 910 961 989 806 989 c 0
 660 989 539 934 443 825 c 1
 518 808 570 754 598 663 c 1
 491 592 426 505 405 403 c 2
 397 369 l 1
 417 387 445 396 479 397 c 0
 579 396 622 348 622 265 c 0
 622 244 619 221 614 196 c 0
 585 60 486 -10 360 -11 c 0xefc0
 255 -6 202 51 202 158 c 0
 202 188 206 221 214 258 c 2
 245 403 l 2
 267 508 329 598 431 671 c 1
 416 730 358 770 258 792 c 1
 414 1030 608 1149 840 1149 c 0
 1087 1149 1213 1038 1213 825 c 0
 1213 779 1208 728 1196 673 c 2
 1090 176 l 1
 1500 176 l 1
 1705 1139 l 1
 1865 1139 l 1
 1623 0 l 1
 893 0 l 1xdfc0
 1033 657 l 2
395 105 m 0
 455 105 495 142 507 196 c 0
 508 203 509 209 509 215 c 0
 509 251 483 273 443 273 c 0
 393 273 352 242 342 192 c 0
 340 184 339 176 339 168 c 0
 339 133 358 105 395 105 c 0
EndSplineSet
Substitution: 0 65534 'nds0' uni0E0D.descless
Substitution: 0 65534 'ndsc' uni0E0D.descless
EndChar
StartChar: uni0E0E
Encoding: 136 3598 138
OldEncoding: 3598
Width: 1375
Flags: W
HStem: -413 125<442 485> -112 104<610 645> -10 122<270 287> 280 119<318 336> 990 160<974 1011>
VStem: 111 110<136 181> 279 146<-299 -243> 1216 168<762 818>
DStem: 897 140 995 105 767 -34 866 -76 1204 658 1367 674 1020 -209 1137 -410
Fore
1020 -209 m 1xdf
 1204 658 l 2
 1212 696 1216 730 1216 762 c 0
 1216 908 1132 990 977 990 c 0
 847 990 726 937 615 826 c 1
 694 801 746 747 769 664 c 1
 662 591 597 505 576 404 c 2
 545 259 l 2
 508 84 418 -10 283 -10 c 0xbf
 173 -10 111 39 111 136 c 0
 111 155 113 176 118 198 c 0
 142 312 229 399 331 399 c 0
 367 399 393 389 409 370 c 1
 416 404 l 2
 440 516 502 603 602 672 c 1
 578 731 520 771 430 793 c 1
 584 1031 778 1150 1011 1150 c 0
 1248 1150 1384 1036 1384 818 c 0
 1384 774 1378 726 1367 674 c 2
 1137 -410 l 1
 977 -410 l 1
 933 -319 873 -248 797 -196 c 1
 697 -339 578 -413 442 -413 c 0
 334 -413 279 -374 279 -299 c 0
 279 -286 281 -272 284 -257 c 0
 317 -104 518 -8 645 -8 c 0
 691 -8 731 -18 767 -34 c 1
 897 140 l 1
 995 105 l 1
 866 -76 l 1
 923 -103 975 -148 1020 -209 c 1xdf
485 -288 m 0
 555 -288 661 -224 702 -147 c 1
 675 -123 645 -112 610 -112 c 0xdf
 544 -112 440 -168 426 -232 c 0
 425 -236 425 -240 425 -243 c 0
 425 -275 456 -288 485 -288 c 0
277 112 m 0xbf
 337 112 376 144 388 203 c 0
 389 210 390 216 390 223 c 0
 390 256 370 280 325 280 c 0
 276 280 233 246 223 199 c 0
 222 193 221 187 221 181 c 0
 221 143 245 112 277 112 c 0xbf
EndSplineSet
EndChar
StartChar: uni0E0F
Encoding: 137 3599 139
OldEncoding: 3599
Width: 1375
Flags: W
HStem: -413 125<297 336> -121 112<473 513> -10 122<274 297> 280 120<314 342> 990 160<975 1011>
VStem: 117 106<144 176> 1215 169<759 824>
DStem: 752 140 850 105 622 -34 721 -76 1204 658 1367 674 1020 -209 1137 -410
Fore
1020 -209 m 1xde
 1204 658 l 2
 1212 694 1215 728 1215 759 c 0
 1215 901 1137 990 977 990 c 0
 843 990 722 935 615 826 c 1
 705 795 757 741 769 664 c 1
 664 601 599 514 576 404 c 2
 545 259 l 2
 508 83 420 -10 285 -10 c 0xbe
 175 -10 117 42 117 144 c 0
 117 167 120 193 126 221 c 0
 144 308 233 400 316 400 c 0
 362 400 393 393 409 370 c 1
 416 404 l 2
 441 518 503 607 602 672 c 1
 568 743 511 783 430 793 c 1
 589 1030 783 1150 1011 1150 c 0
 1257 1150 1384 1038 1384 824 c 0
 1384 778 1379 728 1367 674 c 2
 1137 -410 l 1
 977 -410 l 1
 874 -252 l 1
 735 -362 l 1
 715 -287 685 -234 646 -203 c 1
 578 -328 432 -413 297 -413 c 0
 188 -413 138 -373 138 -301 c 0
 138 -287 140 -273 143 -257 c 0
 172 -118 346 -9 513 -9 c 0
 558 -9 594 -18 622 -34 c 1
 752 140 l 1
 850 105 l 1
 721 -76 l 1
 748 -97 768 -124 779 -156 c 1
 920 -38 l 1
 1020 -209 l 1xde
336 -288 m 0
 427 -288 529 -211 557 -147 c 1
 533 -130 505 -121 473 -121 c 0xde
 382 -121 292 -178 277 -248 c 0
 276 -251 276 -254 276 -257 c 0
 276 -285 312 -288 336 -288 c 0
279 112 m 0xbe
 340 112 377 143 390 203 c 0
 392 210 392 218 392 224 c 0
 392 258 371 280 327 280 c 0
 277 280 237 252 225 199 c 0
 223 191 223 183 223 176 c 0
 223 140 240 112 279 112 c 0xbe
EndSplineSet
EndChar
StartChar: uni0E10
Encoding: 138 3600 140
OldEncoding: 3600
Width: 1130
Flags: W
HStem: -532 71<107 133> -530 496<736 812> -413 129<586 614> -347 75<195 229> -276 62<659 684> -102 68<709 736> -10 160<635 669> 290 113<353 363> 571 126<408 453> 998 151<761 795>
VStem: -28 91<-442 -436> 198 106<424 465> 406 166<187 237> 475 144<507 529> 562 74<-184 -171> 753 132<-162 -144> 871 171<547 604>
DStem: 426 -208 509 -230 356 -294 433 -324 869 529 1039 574 816 279 976 279
Fore
869 529 m 2x03f8
 870 535 871 541 871 547 c 0
 871 592 828 628 744 656 c 0
 624 695 456 730 242 762 c 1
 380 1020 564 1149 793 1149 c 0
 880 1148 963 1132 1040 1098 c 128
 1093 1076 1142 1065 1187 1065 c 0
 1207 1065 1226 1067 1245 1072 c 1
 1173 917 l 1
 1158 915 1143 913 1128 913 c 0
 1079 913 1029 926 979 952 c 128
 917 982 845 998 763 998 c 0
 748 998 l 0
 645 995 566 953 509 872 c 1
 740 823 885 780 945 744 c 0
 1010 705 1042 658 1042 604 c 0
 1042 595 1041 584 1039 574 c 2
 976 279 l 2
 935 86 821 -10 635 -10 c 0
 482 -10 406 56 406 187 c 0x03f880
 406 216 410 248 417 283 c 2
 424 317 l 1
 410 303 386 290 355 290 c 0
 255 290 198 334 198 424 c 0
 198 441 200 460 204 481 c 0
 234 620 320 697 453 697 c 0
 562 697 619 636 619 524 c 0x03f4
 619 495 616 463 608 428 c 2
 577 283 l 2
 573 266 572 251 572 237 c 0
 572 179 604 150 669 150 c 0
 749 151 798 194 816 279 c 2
 869 529 l 2x03f8
702 -329 m 1
 716 -262 l 1
 704 -271 685 -276 659 -276 c 0x2bf3
 598 -276 562 -240 562 -184 c 0
 562 -174 563 -164 565 -153 c 0
 581 -78 643 -34 736 -34 c 0
 835 -34 885 -77 885 -162 c 0
 885 -180 883 -201 878 -223 c 2
 812 -530 l 1
 662 -530 l 1x43f3
 657 -455 632 -416 586 -413 c 0x23f3
 539 -414 493 -453 448 -529 c 1
 437 -463 414 -422 380 -406 c 1
 297 -490 207 -532 107 -532 c 0
 29 -532 -28 -496 -28 -442 c 0
 -28 -436 -27 -431 -26 -425 c 0
 -5 -328 104 -272 211 -272 c 0x93f3
 254 -272 303 -280 356 -294 c 1
 426 -208 l 1
 509 -230 l 1
 433 -324 l 1
 458 -335 473 -349 480 -368 c 1
 536 -312 581 -284 614 -284 c 0x23f3
 655 -284 684 -299 702 -329 c 1
709 -102 m 0x0ff3
 676 -102 646 -124 638 -158 c 0
 637 -163 636 -169 636 -173 c 0
 636 -198 651 -214 684 -214 c 0
 718 -214 744 -191 752 -157 c 0
 753 -153 753 -149 753 -146 c 0
 753 -124 740 -102 709 -102 c 0x0ff3
63 -437 m 0
 63 -438 l 0
 63 -449 97 -461 123 -461 c 0
 196 -461 282 -418 309 -362 c 1
 270 -352 235 -347 204 -347 c 0x93f0
 124 -347 74 -388 63 -437 c 0
361 403 m 0
 421 403 459 434 472 494 c 0
 474 502 475 509 475 516 c 0x03f4
 475 552 451 571 408 571 c 0
 358 571 319 544 307 490 c 0
 305 482 304 473 304 465 c 0
 304 431 321 403 361 403 c 0
EndSplineSet
Substitution: 0 65534 'nds0' uni0E10.descless
Substitution: 0 65534 'ndsc' uni0E10.descless
EndChar
StartChar: uni0E11
Encoding: 139 3601 141
OldEncoding: 3601
Width: 1700
Flags: W
HStem: 0 21G<636 838 1374 1534> 508 112<433 458> 789 99<496 530> 932 204<1517 1579>
VStem: 266 126<671 689> 561 113<728 755> 932 160<831 864>
DStem: 761 587 920 587 636 0 851 263 1556 857 1727 910 1374 0 1534 0
Fore
456 620 m 0
 512 620 547 656 559 712 c 0
 560 717 561 723 561 728 c 0
 561 759 541 789 496 789 c 0
 444 789 405 756 394 708 c 0
 392 700 392 692 392 685 c 0
 392 650 410 620 456 620 c 0
751 1041 m 1
 918 1149 l 1
 1034 1086 1092 986 1092 849 c 0
 1092 828 1091 806 1088 783 c 1
 993 727 934 656 920 587 c 2
 851 263 l 1
 1342 990 l 2
 1404 1087 1483 1136 1579 1136 c 0
 1674 1136 1735 1079 1735 977 c 0
 1735 957 1732 934 1727 910 c 2
 1534 0 l 1
 1374 0 l 1
 1556 857 l 2
 1559 868 1560 878 1560 887 c 0
 1560 915 1547 930 1521 932 c 0
 1520 932 1518 932 1517 932 c 0
 1492 932 1464 908 1433 862 c 2
 838 0 l 1
 636 0 l 1
 761 587 l 2
 776 666 832 736 927 796 c 1
 930 814 932 832 932 848 c 0
 932 901 915 944 882 979 c 1
 717 881 l 1
 579 979 l 1
 546 961 520 930 500 886 c 1
 510 887 520 888 530 888 c 0
 611 888 674 841 674 755 c 0
 674 742 672 727 669 712 c 0
 645 596 572 508 433 508 c 0
 324 508 266 568 266 678 c 0
 266 704 269 733 276 765 c 0
 293 846 329 921 389 991 c 128
 449 1061 524 1114 615 1149 c 1
 751 1041 l 1
EndSplineSet
EndChar
StartChar: uni0E12
Encoding: 140 3602 142
OldEncoding: 3602
Width: 1850
Flags: W
HStem: -10 112<982 992> 357 97<576 625> 622 123<672 711> 1119 20G<1772 1932>
VStem: 250 160<394 503> 466 103<476 522> 738 124<562 607> 827 110<133 155> 1156 158<799 828>
DStem: 1149 734 1297 677 1088 446 1240 409 1204 243 1240 409 1528 0 1564 160 1772 1139 1932 1139 1564 160 1690 0
Fore
1149 734 m 2xfd80
 1154 758 1156 780 1156 801 c 0
 1156 889 1112 948 1024 979 c 1
 826 863 l 1
 687 979 l 1
 546 931 450 820 428 676 c 0
 415 598 410 523 410 450 c 0
 410 395 413 342 418 290 c 2
 415 197 l 1
 500 231 568 287 620 365 c 1
 606 360 591 357 576 357 c 0
 559 357 543 361 527 370 c 0
 483 394 466 430 466 476 c 0
 466 495 468 514 473 536 c 0
 501 668 602 745 711 745 c 0
 809 745 862 699 862 607 c 0xfe80
 862 587 859 565 854 541 c 0
 813 348 657 167 389 0 c 1
 204 0 l 1
 227 108 l 2
 241 178 250 272 250 394 c 0
 250 412 249 431 249 450 c 0
 249 483 l 0
 249 560 255 630 270 702 c 0
 315 915 468 1076 723 1149 c 1
 863 1033 l 1
 1060 1149 l 1
 1230 1109 1314 1003 1314 828 c 0
 1314 782 1309 732 1297 677 c 2
 1240 409 l 1
 1564 160 l 1
 1772 1139 l 1
 1932 1139 l 1
 1690 0 l 1
 1528 0 l 1
 1204 243 l 1
 1183 146 l 2
 1162 49 1099 -3 992 -10 c 0
 883 -9 827 38 827 133 c 0
 827 155 830 179 836 205 c 0
 861 324 948 413 1088 446 c 1
 1149 734 l 2xfd80
1063 328 m 1
 1062 328 1062 328 1061 328 c 0
 997 328 960 283 943 202 c 0
 939 184 937 169 937 155 c 0xfd80
 937 126 948 108 976 103 c 0
 978 103 980 102 982 102 c 0
 1002 102 1019 121 1028 166 c 2
 1063 328 l 1
625 454 m 0
 685 454 723 485 736 545 c 0
 737 551 738 556 738 562 c 0xfe80
 738 597 714 622 672 622 c 0
 622 622 583 596 571 541 c 0
 570 535 569 529 569 522 c 0
 569 485 594 454 625 454 c 0
EndSplineSet
EndChar
StartChar: uni0E13
Encoding: 141 3603 143
OldEncoding: 3603
Width: 1900
Flags: W
HStem: -11 114<404 431> 271 124<477 514> 989 160<839 875>
VStem: 237 135<155 175> 541 112<207 259> 1081 168<767 824> 1496 157<126 142> 1763 113<248 288>
DStem: 1068 657 1231 673 928 0 1127 183 1548 409 1514 243 1127 183 1083 0 1702 1139 1862 1139 1548 409 1715 446
Fore
1068 657 m 2
 1076 697 1081 734 1081 767 c 0
 1081 907 1006 989 841 989 c 0
 694 989 573 934 478 825 c 1
 547 810 598 756 633 663 c 1
 527 594 463 508 441 403 c 2
 433 369 l 1
 458 386 485 395 514 395 c 0
 599 395 653 345 653 259 c 0
 653 242 651 224 647 204 c 0
 612 36 531 -10 404 -11 c 0
 293 -10 237 46 237 157 c 0
 237 187 241 220 249 258 c 2
 280 403 l 2
 304 518 366 607 466 671 c 1
 425 738 368 779 293 792 c 1
 455 1030 649 1149 875 1149 c 0
 1123 1149 1249 1037 1249 824 c 0
 1249 779 1243 728 1231 673 c 2
 1127 183 l 1
 1548 409 l 1
 1702 1139 l 1
 1862 1139 l 1
 1715 446 l 1
 1822 442 1876 390 1876 288 c 0
 1876 263 1872 236 1866 205 c 0
 1836 64 1760 -7 1637 -9 c 0
 1543 -8 1496 37 1496 126 c 0
 1496 150 1500 176 1506 206 c 2
 1514 243 l 1
 1083 0 l 1
 928 0 l 1
 1068 657 l 2
1690 328 m 1
 1657 173 l 2
 1654 160 1653 149 1653 140 c 0
 1653 120 1661 110 1683 109 c 0
 1720 116 1745 147 1757 202 c 0
 1761 219 1763 234 1763 248 c 0
 1763 295 1741 323 1690 328 c 1
429 103 m 0
 490 103 527 134 540 194 c 0
 541 198 541 203 541 207 c 0
 541 238 520 271 477 271 c 0
 427 271 385 236 375 190 c 0
 373 181 372 173 372 165 c 0
 372 130 389 103 429 103 c 0
EndSplineSet
EndChar
StartChar: uni0E14
Encoding: 142 3604 144
OldEncoding: 3604
Width: 1330
Flags: W
HStem: 0 21G<222 407 1011 1171> 362 102<613 642> 632 113<689 729> 989 160<861 906>
VStem: 267 164<450 520> 487 99<500 528> 756 124<581 611> 1164 163<759 805>
DStem: 1154 675 1310 652 1011 0 1171 0
Fore
407 0 m 1
 222 0 l 1
 245 108 l 2
 260 178 262 292 267 450 c 0
 269 532 268 604 282 669 c 0
 345 964 548 1149 904 1149 c 0
 1187 1149 1327 1032 1327 805 c 0
 1327 758 1322 707 1310 652 c 2
 1171 0 l 1
 1011 0 l 1
 1154 675 l 2
 1160 705 1164 733 1164 759 c 0
 1164 900 1070 989 874 989 c 0
 633 989 485 860 444 668 c 0
 436 629 432 596 431 551 c 16
 431 540 431 530 431 520 c 0
 431 438 437 381 437 306 c 0
 437 293 436 280 436 266 c 8
 435 239 433 197 433 197 c 1
 503 218 571 274 638 365 c 1
 638 365 622 362 613 362 c 16
 570 362 487 408 487 500 c 0
 487 511 488 523 491 536 c 0
 519 668 600 745 729 745 c 0
 830 745 880 700 880 611 c 0
 880 591 878 568 872 542 c 0
 828 332 674 153 407 0 c 1
642 464 m 0
 707 464 740 492 753 555 c 0
 755 564 756 573 756 581 c 0
 756 613 738 632 689 632 c 0
 639 632 600 605 588 551 c 0
 586 543 586 536 586 528 c 0
 586 494 603 464 642 464 c 0
EndSplineSet
EndChar
StartChar: uni0E15
Encoding: 143 3605 145
OldEncoding: 3605
Width: 1330
Flags: W
HStem: 0 21G<232 417 1021 1181> 357 97<605 653> 622 123<700 739>
VStem: 277 162<369.569 515> 495 101<487 513> 767 123<572 608> 1184 158<799 828>
DStem: 1177 734 1325 677 1021 0 1181 0
Fore
1177 734 m 2
 1182 758 1184 780 1184 801 c 0
 1184 889 1140 948 1052 979 c 1
 854 863 l 1
 715 979 l 1
 574 931 491 840 456 676 c 0
 445 624 439 541 439 453 c 0
 439 398 441 341 446 290 c 0
 447 283 447 275 447 267 c 0
 447 234 443 197 443 197 c 1
 528 231 596 287 648 365 c 1
 633 360 619 357 605 357 c 0
 532 361 495 416 495 487 c 0
 495 502 497 519 501 536 c 0
 526 656 615 745 739 745 c 0
 845 745 890 692 890 608 c 0
 890 587 887 565 882 541 c 0
 841 348 685 167 417 0 c 1
 232 0 l 1
 255 108 l 2
 269 180 277 279 277 406 c 0
 277 420 277 435 277 450 c 0
 277 480 l 0
 277 560 284 634 298 702 c 0
 346 928 496 1076 751 1149 c 1
 891 1033 l 1
 1088 1149 l 1
 1258 1109 1342 1003 1342 828 c 0
 1342 782 1337 732 1325 677 c 2
 1181 0 l 1
 1021 0 l 1
 1177 734 l 2
653 454 m 0
 721 454 751 485 764 545 c 0
 766 555 767 564 767 572 c 0
 767 607 746 622 700 622 c 0
 650 622 610 592 599 541 c 0
 597 532 596 522 596 513 c 0
 596 480 612 454 653 454 c 0
EndSplineSet
EndChar
StartChar: uni0E16
Encoding: 144 3606 146
OldEncoding: 3606
Width: 1240
Flags: W
HStem: -11 116<394 429> 273 124<477 513> 989 160<838 874>
VStem: 237 136<161 182> 543 114<213 267> 1079 168<764 821>
DStem: 1067 657 1230 673 927 0 1087 0
Fore
927 0 m 1
 1067 657 l 2
 1075 696 1079 732 1079 764 c 0
 1079 911 997 989 840 989 c 0
 694 989 573 934 477 825 c 1
 552 808 604 754 632 663 c 1
 525 592 460 505 439 403 c 2
 431 369 l 1
 451 387 479 396 513 397 c 0
 614 396 657 348 657 267 c 0
 657 247 654 225 649 201 c 0
 621 69 526 -11 394 -11 c 0
 293 -11 237 51 237 163 c 0
 237 191 241 223 248 258 c 2
 279 403 l 2
 301 508 363 598 465 671 c 1
 450 730 392 770 292 792 c 1
 448 1030 642 1149 874 1149 c 0
 1117 1149 1247 1037 1247 821 c 0
 1247 776 1241 727 1230 673 c 2
 1087 0 l 1
 927 0 l 1
429 105 m 0
 496 105 528 136 541 196 c 0
 542 202 543 208 543 213 c 0
 543 250 515 273 477 273 c 0
 427 273 387 243 376 192 c 0
 374 184 373 175 373 167 c 0
 373 133 391 105 429 105 c 0
EndSplineSet
EndChar
StartChar: uni0E17
Encoding: 145 3607 147
OldEncoding: 3607
Width: 1350
Flags: W
HStem: 0 21G<317 518 1054 1214> 743 116<411 431> 1026 124<475 518>
VStem: 258 113<884 918> 542 132<959 986>
DStem: 481 770 664 881 317 0 533 263 1236 857 1407 910 1054 0 1214 0
Fore
481 770 m 1
 466 756 443 743 411 743 c 0
 309 743 258 792 258 884 c 0
 258 904 261 928 266 953 c 0
 289 1064 391 1150 518 1150 c 0
 614 1150 674 1085 674 969 c 0
 674 942 671 913 664 881 c 2
 533 263 l 1
 1022 990 l 2
 1084 1087 1163 1136 1259 1136 c 0
 1361 1136 1416 1082 1416 984 c 0
 1416 962 1413 937 1407 910 c 2
 1214 0 l 1
 1054 0 l 1
 1236 857 l 2
 1239 869 1240 880 1240 890 c 0
 1240 917 1228 932 1201 932 c 0
 1174 932 1146 911 1113 862 c 2
 518 0 l 1
 317 0 l 1
 481 770 l 1
431 859 m 0
 487 859 526 889 539 949 c 0
 541 958 542 966 542 974 c 0
 542 1008 520 1026 475 1026 c 0
 425 1026 386 1000 374 945 c 0
 372 936 371 927 371 918 c 0
 371 883 390 859 431 859 c 0
EndSplineSet
EndChar
StartChar: uni0E18
Encoding: 146 3608 148
OldEncoding: 3608
Width: 1250
Flags: W
HStem: 0 151<442 1023> 908 149<1157 1205> 997 151<824 856>
VStem: 970 172<518 589>
DStem: 387 650 548 650 249 0 442 151 966 480 1134 518 896 151 1023 0
Fore
966 480 m 2xb0
 969 493 970 505 970 518 c 0
 970 559 956 596 922 604 c 2
 755 657 549 710 305 761 c 1
 430 1020 608 1148 856 1148 c 0xb0
 953 1148 1060 1128 1122 1076 c 0
 1138 1063 1169 1057 1205 1057 c 0
 1239 1057 1276 1062 1308 1071 c 1
 1236 916 l 1
 1213 911 1184 908 1157 908 c 0xd0
 1123 908 1090 913 1067 923 c 0
 997 956 900 997 837 997 c 0
 720 997 635 960 572 871 c 1
 749 832 1008 753 1008 753 c 2
 1101 728 1142 672 1142 589 c 0
 1142 567 1139 543 1134 518 c 2
 1023 0 l 1
 249 0 l 1
 387 650 l 1
 548 650 l 1
 442 151 l 1
 896 151 l 1
 966 480 l 2xb0
EndSplineSet
EndChar
StartChar: uni0E19
Encoding: 147 3609 149
OldEncoding: 3609
Width: 1400
Flags: W
HStem: 0 21G<364 519> 741 115<446 466> 1024 125<514 565>
VStem: 302 108<885 919> 579 144<965 980> 1023 153<132 151> 1284 121<236 301>
DStem: 527 769 711 880 364 0 561 174 1069 402 1037 243 561 174 519 0 1226 1139 1386 1139 1069 402 1245 475
Fore
527 769 m 1
 511 753 484 741 446 741 c 0
 361 741 302 795 302 885 c 0
 302 901 304 919 308 937 c 0
 339 1080 428 1149 565 1149 c 0
 668 1149 723 1089 723 978 c 0
 723 949 719 916 711 880 c 2
 561 174 l 1
 1069 402 l 1
 1226 1139 l 1
 1386 1139 l 1
 1245 475 l 1
 1352 468 1405 410 1405 301 c 0
 1405 273 1401 241 1394 205 c 0
 1364 56 1276 -10 1141 -10 c 0
 1060 -10 1023 45 1023 134 c 0
 1023 166 1027 203 1037 243 c 1
 519 0 l 1
 364 0 l 1
 527 769 l 1
1214 328 m 1
 1179 165 l 2
 1177 154 1176 145 1176 137 c 0
 1176 117 1183 105 1205 103 c 0
 1241 106 1266 139 1280 202 c 0
 1282 214 1284 225 1284 236 c 0
 1284 261 1277 283 1263 301 c 0
 1249 319 1238 328 1214 328 c 1
466 856 m 0
 526 856 565 887 577 947 c 0
 579 954 579 961 579 968 c 0
 579 1001 558 1024 514 1024 c 0
 464 1024 425 1000 412 943 c 0
 410 935 410 927 410 919 c 0
 410 884 427 856 466 856 c 0
EndSplineSet
EndChar
StartChar: uni0E1A
Encoding: 148 3610 150
OldEncoding: 3610
Width: 1300
Flags: W
HStem: 0 148<519 1153> 743 112<381 435> 1023 127<482 529>
VStem: 271 108<891 919> 548 140<964 986>
DStem: 492 770 675 881 328 0 519 148 1235 1139 1395 1139 1024 148 1153 0
Fore
519 148 m 1
 1024 148 l 1
 1235 1139 l 1
 1395 1139 l 1
 1153 0 l 1
 328 0 l 1
 492 770 l 1
 468 749 432 743 381 743 c 0
 306 743 271 810 271 891 c 0
 271 913 273 935 278 957 c 0
 303 1071 413 1150 529 1150 c 0
 633 1150 688 1097 688 986 c 0
 688 955 683 920 675 881 c 2
 519 148 l 1
435 855 m 0
 495 855 533 886 546 946 c 0
 547 953 548 960 548 966 c 0
 548 1001 525 1023 482 1023 c 0
 432 1023 392 993 381 942 c 0
 379 934 379 927 379 919 c 0
 379 884 397 855 435 855 c 0
EndSplineSet
EndChar
StartChar: uni0E1B
Encoding: 149 3611 151
OldEncoding: 3611
Width: 1300
Flags: W
HStem: 0 148<545 1179> 743 112<407 461> 1023 127<508 555>
VStem: 297 108<891 919> 574 140<964 986>
DStem: 518 770 701 881 354 0 545 148 1334 1480 1494 1480 1050 148 1179 0
Fore
545 148 m 1
 1050 148 l 1
 1334 1480 l 1
 1494 1480 l 1
 1179 0 l 1
 354 0 l 1
 518 770 l 1
 494 749 458 743 407 743 c 0
 332 743 297 810 297 891 c 0
 297 913 299 935 304 957 c 0
 329 1071 439 1150 555 1150 c 0
 659 1150 714 1097 714 986 c 0
 714 955 709 920 701 881 c 2
 545 148 l 1
461 855 m 0
 521 855 559 886 572 946 c 0
 573 953 574 960 574 966 c 0
 574 1001 551 1023 508 1023 c 0
 458 1023 418 993 407 942 c 0
 405 934 405 927 405 919 c 0
 405 884 423 855 461 855 c 0
EndSplineSet
EndChar
StartChar: uni0E1C
Encoding: 150 3612 152
OldEncoding: 3612
Width: 1200
Flags: W
HStem: 0 21G<134 294 880 1040> 741 109<517 538> 1018 132<565 583>
VStem: 640 113<961 994>
DStem: 321 881 458 770 134 0 339 214 1122 1139 1282 1139 925 211 1040 0
Fore
321 881 m 2
 357 1048 456 1150 581 1150 c 0
 696 1150 753 1091 753 994 c 0
 753 974 751 953 746 930 c 0
 722 817 618 741 536 741 c 0
 499 741 473 751 458 770 c 1
 339 214 l 1
 703 627 l 1
 751 627 l 1
 925 211 l 1
 1122 1139 l 1
 1282 1139 l 1
 1040 0 l 1
 880 0 l 1
 683 406 l 1
 294 0 l 1
 134 0 l 1
 321 881 l 2
527 850 m 0
 587 850 625 881 638 941 c 0
 639 948 640 954 640 961 c 0
 640 994 619 1018 574 1018 c 0
 532 1018 483 984 473 937 c 0
 472 931 471 925 471 919 c 0
 471 881 494 850 527 850 c 0
EndSplineSet
EndChar
StartChar: uni0E1D
Encoding: 151 3613 153
OldEncoding: 3613
Width: 1200
Flags: W
HStem: 0 21G<153 313 899 1059> 741 109<536 557> 1018 132<584 602>
VStem: 659 113<961 994>
DStem: 340 881 477 770 153 0 358 214 1214 1480 1374 1480 944 211 1059 0
Fore
358 214 m 1
 722 627 l 1
 770 627 l 1
 944 211 l 1
 1214 1480 l 1
 1374 1480 l 1
 1059 0 l 1
 899 0 l 1
 702 406 l 1
 313 0 l 1
 153 0 l 1
 340 881 l 2
 376 1048 475 1150 600 1150 c 0
 715 1150 772 1091 772 994 c 0
 772 974 770 953 765 930 c 0
 741 817 637 741 555 741 c 0
 518 741 492 751 477 770 c 1
 358 214 l 1
546 850 m 0
 606 850 644 881 657 941 c 0
 658 948 659 954 659 961 c 0
 659 994 638 1018 593 1018 c 0
 551 1018 502 984 492 937 c 0
 491 931 490 925 490 919 c 0
 490 881 513 850 546 850 c 0
EndSplineSet
EndChar
StartChar: uni0E1E
Encoding: 152 3614 154
OldEncoding: 3614
Width: 1350
Flags: W
HStem: 0 21G<300 490 1016 1206> 740 117<373 409> 1025 124<457 501>
VStem: 239 114<880 919> 523 136<959 979>
DStem: 463 769 647 880 300 0 516 263 917 810 999 1083 1016 0 1101 260 951 1083 917 810 516 263 490 0 1288 1139 1448 1139 1101 260 1206 0
Fore
516 263 m 1
 951 1083 l 1
 999 1083 l 1
 1101 260 l 1
 1288 1139 l 1
 1448 1139 l 1
 1206 0 l 1
 1016 0 l 1
 917 810 l 1
 490 0 l 1
 300 0 l 1
 463 769 l 1
 440 750 410 740 373 740 c 0
 289 740 239 790 239 880 c 0
 239 899 241 920 246 943 c 0
 274 1074 367 1149 501 1149 c 0
 604 1149 659 1091 659 979 c 0
 659 950 655 917 647 880 c 2
 516 263 l 1
409 857 m 0
 469 857 508 888 521 948 c 0
 522 954 523 960 523 965 c 0
 523 1003 495 1025 457 1025 c 0
 407 1025 365 990 356 944 c 0
 354 936 353 927 353 919 c 0
 353 885 371 857 409 857 c 0
EndSplineSet
EndChar
StartChar: uni0E1F
Encoding: 153 3615 155
OldEncoding: 3615
Width: 1450
Flags: W
HStem: 0 21G<381 571 1097 1287> 740 117<454 490> 1025 124<538 582>
VStem: 320 114<880 919> 604 136<959 979>
DStem: 544 769 728 880 381 0 597 263 998 810 1080 1083 1097 0 1182 260 1032 1083 998 810 597 263 571 0 1442 1480 1602 1480 1182 260 1287 0
Fore
597 263 m 1
 1032 1083 l 1
 1080 1083 l 1
 1182 260 l 1
 1442 1480 l 1
 1602 1480 l 1
 1287 0 l 1
 1097 0 l 1
 998 810 l 1
 571 0 l 1
 381 0 l 1
 544 769 l 1
 521 750 491 740 454 740 c 0
 370 740 320 790 320 880 c 0
 320 899 322 920 327 943 c 0
 355 1074 448 1149 582 1149 c 0
 685 1149 740 1091 740 979 c 0
 740 950 736 917 728 880 c 2
 597 263 l 1
490 857 m 0
 550 857 589 888 602 948 c 0
 603 954 604 960 604 965 c 0
 604 1003 576 1025 538 1025 c 0
 488 1025 446 990 437 944 c 0
 435 936 434 927 434 919 c 0
 434 885 452 857 490 857 c 0
EndSplineSet
EndChar
StartChar: uni0E20
Encoding: 154 3616 156
OldEncoding: 3616
Width: 1350
Flags: W
HStem: -10 122<265 283> 280 119<313 331> 990 160<969 1005>
VStem: 106 109<143 180> 1210 169<763 825>
DStem: 1198 658 1361 674 1058 0 1218 0
Fore
1198 658 m 2
 1206 696 1210 731 1210 763 c 0
 1210 909 1127 990 971 990 c 0
 841 990 720 937 609 826 c 1
 688 801 740 747 763 664 c 1
 656 591 591 505 570 404 c 2
 539 259 l 2
 502 84 399 -10 279 -10 c 0
 168 -10 106 49 106 143 c 0
 106 161 108 179 112 198 c 0
 138 318 226 399 325 399 c 0
 361 399 387 389 403 370 c 1
 410 404 l 2
 434 513 496 603 596 672 c 1
 572 731 514 771 424 793 c 1
 578 1031 772 1150 1005 1150 c 0
 1251 1150 1379 1039 1379 825 c 0
 1379 779 1373 729 1361 674 c 2
 1218 0 l 1
 1058 0 l 1
 1198 658 l 2
271 112 m 0
 333 112 369 143 382 203 c 0
 383 210 384 216 384 223 c 0
 384 256 364 280 319 280 c 0
 267 280 227 246 217 199 c 0
 216 192 215 186 215 180 c 0
 215 143 237 112 271 112 c 0
EndSplineSet
EndChar
StartChar: uni0E21
Encoding: 155 3617 157
OldEncoding: 3617
Width: 1350
Flags: W
HStem: -10 123<355 370> 739 116<457 478> 1023 127<525 563>
VStem: 206 111<135 165> 313 109<890 924> 592 139<965 985>
DStem: 535 770 718 881 466 446 618 409 582 243 618 409 990 0 1025 159 1233 1139 1393 1139 1025 159 1151 0
Fore
466 446 m 1xf4
 535 770 l 1
 517 751 490 739 457 739 c 0
 368 739 313 794 313 890 c 0xec
 313 911 316 933 321 957 c 0
 346 1071 436 1150 563 1150 c 0
 675 1150 731 1095 731 985 c 0
 731 955 726 920 718 881 c 2
 618 409 l 1
 1025 159 l 1
 1233 1139 l 1
 1393 1139 l 1
 1151 0 l 1
 990 0 l 1
 582 243 l 1
 561 146 l 2
 533 43 470 -10 370 -10 c 0
 263 -10 206 39 206 135 c 0
 206 156 208 179 214 205 c 0
 248 369 334 443 466 446 c 1xf4
441 328 m 1
 376 326 339 285 321 202 c 0
 318 188 317 176 317 165 c 0xf4
 317 134 329 116 356 113 c 0
 358 113 359 113 361 113 c 0
 388 113 400 135 408 174 c 2
 441 328 l 1
478 855 m 0
 536 855 576 886 589 946 c 0
 591 955 592 963 592 970 c 0
 592 1003 572 1023 525 1023 c 0
 475 1023 435 993 424 942 c 0
 423 936 422 930 422 924 c 0xec
 422 886 445 855 478 855 c 0
EndSplineSet
EndChar
StartChar: uni0E22
Encoding: 156 3618 158
OldEncoding: 3618
Width: 1200
Flags: W
HStem: 0 156<378 1027> 505 113<678 734> 743 112<582 601> 1023 126<639 662>
VStem: 346 154<735 755> 707 112<966 1004>
DStem: 273 349 419 347 199 0 378 156 1109 1139 1269 1139 900 156 1027 0
Fore
469 562 m 1
 386 579 346 654 346 753 c 0
 346 782 349 813 356 845 c 0
 391 1011 478 1149 662 1149 c 0
 765 1149 819 1102 819 1004 c 0
 819 981 816 955 810 926 c 0
 785 809 704 743 599 743 c 0
 548 743 516 753 503 770 c 1
 501 758 500 747 500 737 c 0
 500 689 521 656 561 637 c 0
 590 624 647 618 734 618 c 0
 755 618 l 1
 731 505 l 1
 635 505 566 497 525 481 c 0
 468 458 433 413 419 347 c 2
 378 156 l 1
 900 156 l 1
 1109 1139 l 1
 1269 1139 l 1
 1027 0 l 1
 199 0 l 1
 273 349 l 2
 293 444 359 515 469 562 c 1
594 855 m 0
 656 855 692 886 705 946 c 0
 706 953 707 960 707 966 c 0
 707 1001 684 1023 641 1023 c 0
 591 1023 551 993 540 942 c 0
 538 934 538 927 538 919 c 0
 538 884 556 855 594 855 c 0
EndSplineSet
EndChar
StartChar: uni0E23
Encoding: 157 3619 159
OldEncoding: 3619
Width: 1100
Flags: W
HStem: -10 119<681 699> 277 106<722 747> 906 157<1134 1188> 998 151<773 817>
VStem: 523 116<126 177> 838 171<557 609>
DStem: 835 529 1005 574 800 363 948 304
Fore
948 304 m 2xdc
 899 77 836 -10 681 -10 c 0
 577 -10 523 36 523 126 c 0
 523 145 525 166 530 189 c 0
 553 297 621 383 722 383 c 0
 757 383 784 379 800 363 c 1
 835 529 l 2
 837 539 838 548 838 557 c 0
 838 598 815 631 768 656 c 0
 667 692 500 727 266 762 c 1
 390 1020 574 1149 817 1149 c 0xdc
 883 1149 943 1137 997 1114 c 128
 1052 1090 1094 1078 1121 1071 c 0
 1143 1065 1165 1063 1188 1063 c 0
 1214 1063 1241 1066 1269 1072 c 1
 1197 917 l 1
 1178 910 1158 906 1134 906 c 0xec
 1114 906 1091 909 1065 914 c 0
 1025 922 982 935 938 960 c 128
 893 985 838 998 773 998 c 0
 680 998 593 957 533 872 c 1
 740 829 873 786 930 745 c 0
 983 707 1009 660 1009 609 c 0
 1009 598 1008 586 1005 574 c 2
 948 304 l 2xdc
694 109 m 0
 754 109 793 140 806 200 c 0
 807 205 807 210 807 215 c 0
 807 247 788 277 742 277 c 0
 689 277 652 249 641 196 c 0
 640 190 639 184 639 177 c 0
 639 140 664 109 694 109 c 0
EndSplineSet
EndChar
StartChar: uni0E24
Encoding: 158 3620 160
OldEncoding: 3620
Width: 1240
Flags: W
HStem: -11 116<392 427> 273 124<475 511> 989 160<836 872>
VStem: 235 136<161 181> 541 114<213 267> 1077 168<764 822>
DStem: 1065 657 1228 673 844 -380 1004 -380
Fore
1228 673 m 2
 1004 -380 l 1
 844 -380 l 1
 1065 657 l 2
 1073 696 1077 732 1077 764 c 0
 1077 911 995 989 838 989 c 0
 692 989 571 934 475 825 c 1
 550 808 602 754 630 663 c 1
 523 592 458 505 437 403 c 2
 429 369 l 1
 449 387 477 396 511 397 c 0
 612 396 655 348 655 267 c 0
 655 247 652 225 647 201 c 0
 619 69 524 -11 392 -11 c 0
 291 -11 235 51 235 163 c 0
 235 191 239 223 246 258 c 2
 277 403 l 2
 299 508 361 598 463 671 c 1
 448 730 390 770 290 792 c 1
 446 1030 640 1149 872 1149 c 0
 1115 1149 1245 1038 1245 822 c 0
 1245 777 1240 727 1228 673 c 2
427 105 m 0
 494 105 526 136 539 196 c 0
 540 202 541 208 541 213 c 0
 541 250 513 273 475 273 c 0
 425 273 385 243 374 192 c 0
 372 184 371 175 371 167 c 0
 371 133 389 105 427 105 c 0
EndSplineSet
EndChar
StartChar: uni0E25
Encoding: 159 3621 161
OldEncoding: 3621
Width: 1255
Flags: W
HStem: -11 115<431 466> 272 127<514 556> 604 140<734 765> 984 165<805 842>
VStem: 264 146<158 169> 580 106<217 273> 1083 166<778 830>
DStem: 980 263 1236 713 924 0 1084 0
Fore
1236 713 m 2
 1084 0 l 1
 924 0 l 1
 980 263 l 2
 987 295 990 326 990 354 c 0
 990 413 976 464 948 508 c 128
 907 572 839 604 736 604 c 0
 668 604 609 586 560 548 c 128
 510 511 480 464 468 407 c 2
 459 369 l 1
 482 389 514 399 556 399 c 0
 645 399 686 355 686 273 c 0
 686 249 682 223 676 193 c 0
 662 128 629 77 583 42 c 128
 537 7 487 -11 431 -11 c 0
 371 -11 325 9 293 52 c 128
 274 78 264 114 264 160 c 0
 264 189 268 222 276 258 c 2
 303 388 l 2
 329 508 388 598 480 656 c 128
 573 716 665 744 763 744 c 0
 765 744 766 744 768 744 c 0
 770 744 773 744 775 744 c 0
 846 744 906 730 957 702 c 128
 1009 673 1041 642 1053 609 c 1
 1076 714 l 2
 1081 737 1083 758 1083 778 c 0
 1083 910 983 984 805 984 c 0
 677 984 538 934 387 834 c 1
 357 944 l 1
 520 1077 683 1149 842 1149 c 0
 1107 1149 1249 1037 1249 830 c 0
 1249 794 1245 755 1236 713 c 2
466 104 m 0
 535 104 565 135 577 195 c 0
 579 203 580 210 580 217 c 0
 580 252 557 272 514 272 c 0
 464 272 424 243 413 191 c 0
 411 183 410 175 410 167 c 0
 410 132 429 104 466 104 c 0
EndSplineSet
EndChar
StartChar: uni0E26
Encoding: 160 3622 162
OldEncoding: 3622
Width: 1350
Flags: W
HStem: -10 122<280 298> 280 119<328 346> 990 160<984 1020>
VStem: 121 109<143 180> 1225 168<762 824>
DStem: 1213 658 1376 674 992 -380 1152 -380
Fore
1376 674 m 2
 1152 -380 l 1
 992 -380 l 1
 1213 658 l 2
 1221 696 1225 730 1225 762 c 0
 1225 908 1142 990 986 990 c 0
 856 990 735 937 624 826 c 1
 703 801 755 747 778 664 c 1
 671 591 606 505 585 404 c 2
 554 259 l 2
 517 84 414 -10 294 -10 c 0
 183 -10 121 49 121 143 c 0
 121 161 123 179 127 198 c 0
 153 318 241 399 340 399 c 0
 376 399 402 389 418 370 c 1
 425 404 l 2
 449 513 511 603 611 672 c 1
 587 731 529 771 439 793 c 1
 593 1031 787 1150 1020 1150 c 0
 1266 1150 1393 1038 1393 824 c 0
 1393 779 1388 729 1376 674 c 2
286 112 m 0
 348 112 384 143 397 203 c 0
 398 210 399 216 399 223 c 0
 399 256 379 280 334 280 c 0
 282 280 242 246 232 199 c 0
 231 192 230 186 230 180 c 0
 230 143 252 112 286 112 c 0
EndSplineSet
EndChar
StartChar: uni0E27
Encoding: 161 3623 163
OldEncoding: 3623
Width: 1150
Flags: W
HStem: -10 123<772 792> 281 117<820 838> 1002 147<757 792>
VStem: 613 113<142 177> 1000 165<817 854>
DStem: 991 738 1152 742 912 369 1049 258
Fore
1152 742 m 2
 1049 258 l 2
 1011 79 922 -10 788 -10 c 0
 676 -10 613 57 613 142 c 0
 613 154 614 166 617 179 c 0
 643 300 715 398 834 398 c 0
 871 398 897 388 912 369 c 1
 991 738 l 2
 997 767 1000 793 1000 817 c 0
 1000 859 991 894 970 925 c 128
 938 974 868 1002 759 1002 c 0
 615 1002 478 958 354 866 c 1
 293 927 l 1
 445 1070 622 1149 790 1149 c 0
 939 1149 1043 1111 1103 1040 c 128
 1144 992 1165 930 1165 854 c 0
 1165 819 1160 782 1152 742 c 2
782 113 m 0
 842 113 881 144 893 204 c 0
 895 212 896 220 896 227 c 0
 896 261 874 281 830 281 c 0
 774 281 740 252 729 200 c 0
 727 192 726 184 726 177 c 0
 726 142 746 113 782 113 c 0
EndSplineSet
EndChar
StartChar: uni0E28
Encoding: 162 3624 164
OldEncoding: 3624
Width: 1300
Flags: W
HStem: 0 21G<181 391 971 1131> 344 116<737 771> 625 121<804 827> 989 160<815 858>
VStem: 222 147<271 385> 876 104<566 605> 1118 168<732 801>
DStem: 1109 650 1269 651 971 0 1131 0
Fore
1168 1067 m 1
 1220 1096 1271 1148 1322 1224 c 1
 1540 1224 l 1
 1479 1108 1387 1013 1264 939 c 1
 1279 899 1286 853 1286 801 c 0
 1286 756 1281 706 1269 651 c 2
 1131 0 l 1
 971 0 l 1
 1109 650 l 2
 1115 679 1118 706 1118 732 c 0
 1118 891 1005 989 827 989 c 0
 610 989 442 857 397 646 c 0
 378 547 369 439 369 321 c 0
 369 300 369 278 370 256 c 1
 428 418 498 540 578 623 c 128
 659 706 739 746 817 746 c 0
 923 746 980 693 980 605 c 0
 980 589 978 572 974 553 c 0
 948 432 857 344 737 344 c 0
 657 344 630 368 615 424 c 1
 540 319 465 177 391 0 c 1
 181 0 l 1
 204 108 l 2
 216 166 222 241 222 335 c 0
 222 363 221 393 220 424 c 0
 220 451 l 0
 220 530 228 604 242 673 c 0
 307 973 540 1149 856 1149 c 0
 993 1149 1096 1120 1168 1067 c 1
771 460 m 0
 826 460 862 491 873 543 c 0
 875 551 876 559 876 566 c 0
 876 602 853 625 812 625 c 0
 758 625 718 592 707 543 c 0
 705 535 704 527 704 520 c 0
 704 483 725 460 771 460 c 0
EndSplineSet
EndChar
StartChar: uni0E29
Encoding: 163 3625 165
OldEncoding: 3625
Width: 1350
Flags: W
HStem: -1 148<486 1119> 423 112<994 1024> 698 67<940 957> 741 113<371 404> 1022 127<449 496>
VStem: 235 111<888 920> 516 139<968 985> 785 87<586 632> 988 73<657 676>
DStem: 458 769 642 880 295 -1 486 147 1052 435 1225 493 991 147 1119 -1 1202 1138 1362 1138 1075 543 1259 654
Fore
1259 654 m 1xef80
 1292 681 1314 721 1325 773 c 1
 1432 773 l 1
 1407 655 1338 562 1225 493 c 1
 1119 -1 l 1
 295 -1 l 1
 458 769 l 1
 432 743 419 741 371 741 c 0xdf80
 278 741 235 805 235 888 c 0
 235 907 237 926 241 946 c 0
 271 1089 371 1149 496 1149 c 0
 602 1149 655 1093 655 985 c 0
 655 954 650 919 642 880 c 2
 486 147 l 1
 991 147 l 1
 1052 435 l 1
 1021 424 1017 423 994 423 c 0
 990 423 986 423 981 423 c 128
 828 423 785 514 785 586 c 0
 785 598 787 610 789 621 c 0
 807 705 883 765 957 765 c 0
 1023 765 1061 735 1061 676 c 0
 1061 665 1060 653 1057 639 c 0
 1049 603 1019 563 970 548 c 1
 986 539 1004 535 1024 535 c 0
 1040 535 1057 538 1075 543 c 1
 1202 1138 l 1
 1362 1138 l 1
 1259 654 l 1xef80
986 641 m 0
 987 647 988 653 988 658 c 0
 988 682 974 698 941 698 c 0xef80
 908 698 880 678 873 644 c 0
 872 640 872 636 872 632 c 0
 872 610 886 588 917 588 c 0
 959 588 979 608 986 641 c 0
402 854 m 0xdf80
 462 854 500 885 513 945 c 0
 515 954 516 962 516 970 c 0
 516 1006 493 1022 449 1022 c 0
 406 1022 358 987 348 941 c 0
 347 934 346 927 346 920 c 0
 346 884 366 854 402 854 c 0xdf80
EndSplineSet
EndChar
StartChar: uni0E2A
Encoding: 164 3626 166
OldEncoding: 3626
Width: 1250
Flags: W
HStem: -11 115<396 431> 272 127<479 521> 604 140<700 733> 984 165<770 807>
VStem: 229 147<158 182> 544 106<215 266> 1048 165<780 831>
DStem: 945 263 1201 713 889 0 1049 0
Fore
1142 1037 m 1
 1212 1081 1266 1138 1303 1209 c 1
 1469 1209 l 1
 1447 1142 1407 1082 1350 1031 c 128
 1293 980 1243 948 1200 936 c 1
 1209 906 1213 869 1213 831 c 0
 1213 791 1209 750 1201 713 c 2
 1049 0 l 1
 889 0 l 1
 945 263 l 2
 952 295 955 326 955 354 c 0
 955 413 941 464 913 508 c 128
 872 572 791 604 701 604 c 0
 633 604 574 586 525 548 c 128
 475 511 445 464 433 407 c 2
 424 369 l 1
 447 389 479 399 521 399 c 0
 606 399 650 351 650 266 c 0
 650 244 647 220 641 193 c 0
 627 128 594 77 548 42 c 128
 502 7 451 -11 396 -11 c 0
 395 -11 393 -11 392 -11 c 0
 333 -11 289 10 258 52 c 128
 239 78 229 114 229 160 c 0
 229 189 233 222 241 258 c 2
 268 388 l 2
 294 508 356 593 445 656 c 128
 534 720 641 744 733 744 c 0
 806 744 869 731 922 702 c 128
 974 673 1006 642 1018 609 c 1
 1041 714 l 2
 1046 738 1048 760 1048 780 c 0
 1048 911 951 984 770 984 c 0
 632 984 503 934 352 834 c 1
 322 944 l 1
 485 1077 649 1149 807 1149 c 0
 965 1149 1076 1107 1142 1037 c 1
431 104 m 0
 493 104 530 135 542 195 c 0
 544 202 544 209 544 215 c 0
 544 253 517 272 479 272 c 0
 429 272 387 234 378 191 c 0
 376 184 376 177 376 170 c 0
 376 134 397 104 431 104 c 0
EndSplineSet
EndChar
StartChar: uni0E2B
Encoding: 165 3627 167
OldEncoding: 3627
Width: 1350
Flags: W
HStem: 0 21G<332 556 1038 1198> 748 115<414 455> 1019 125<1191 1215> 1031 118<503 540>
VStem: 296 104<892 930> 569 128<975 1004> 969 121<882 915> 1167 163<617 632> 1259 134<958 1001>
DStem: 495 767 688 924 332 0 532 190 1164 594 1328 610 1038 0 1198 0
Fore
532 190 m 1xdf
 602 315 685 430 784 538 c 128
 882 644 964 721 1028 767 c 1
 988 790 969 828 969 882 c 0
 969 903 972 925 977 950 c 0
 1002 1068 1089 1144 1215 1144 c 0
 1330 1144 1393 1088 1393 1001 c 0xee80
 1393 987 1391 972 1388 956 c 0
 1369 865 1329 801 1269 764 c 1
 1305 737 1330 680 1330 632 c 0
 1330 625 1329 617 1328 610 c 2
 1198 0 l 1
 1038 0 l 1
 1164 594 l 2
 1166 603 1167 611 1167 619 c 0
 1167 650 1153 673 1123 690 c 1
 1055 646 961 556 843 419 c 128
 725 282 629 143 556 0 c 1
 332 0 l 1
 495 767 l 1
 474 754 447 748 414 748 c 0
 347 748 296 799 296 892 c 0
 296 911 298 933 303 956 c 0
 326 1062 424 1149 540 1149 c 0
 645 1149 697 1101 697 1004 c 0
 697 980 694 954 688 924 c 2
 532 190 l 1xdf
455 863 m 0
 519 863 554 894 567 954 c 0
 569 962 569 969 569 975 c 0
 569 1014 542 1031 503 1031 c 0xde
 453 1031 412 996 402 950 c 0
 401 943 400 937 400 930 c 0
 400 893 423 863 455 863 c 0
1146 851 m 0
 1206 851 1244 882 1257 942 c 0
 1258 947 1259 953 1259 958 c 0
 1259 989 1239 1019 1194 1019 c 0xee80
 1141 1019 1102 984 1092 938 c 0
 1090 930 1090 922 1090 915 c 0
 1090 879 1107 851 1146 851 c 0
EndSplineSet
EndChar
StartChar: uni0E2C
Encoding: 166 3628 168
OldEncoding: 3628
Width: 1400
Flags: W
HStem: 0 21G<317 507 1033 1223> 740 117<390 426> 1025 124<474 518> 1167 108<1311 1331> 1412 107<1359 1385>
VStem: 256 114<878 918> 541 135<959 981> 1175 98<1290 1326> 1417 98<1362 1400>
DStem: 480 769 664 880 317 0 533 263 934 810 1016 1083 1033 0 1118 260 968 1083 934 810 533 263 507 0 1311 1167 1469 1159 1118 260 1223 0
Fore
1311 1167 m 1
 1223 1169 1175 1210 1175 1290 c 0
 1175 1308 1177 1327 1182 1348 c 0
 1207 1468 1277 1519 1385 1519 c 0
 1470 1519 1515 1478 1515 1400 c 0
 1515 1384 1514 1367 1510 1349 c 2
 1495 1281 l 1
 1536 1281 1572 1296 1606 1328 c 128
 1640 1358 1662 1405 1671 1467 c 1
 1771 1467 l 1
 1755 1360 1718 1282 1660 1234 c 128
 1602 1186 1540 1161 1469 1159 c 1
 1223 0 l 1
 1033 0 l 1
 934 810 l 1
 507 0 l 1
 317 0 l 1
 480 769 l 1
 457 750 427 740 390 740 c 0
 307 740 256 787 256 878 c 0
 256 898 258 919 263 943 c 0
 292 1076 384 1149 518 1149 c 0
 621 1149 676 1091 676 979 c 0
 676 950 672 917 664 880 c 2
 533 263 l 1
 968 1083 l 1
 1016 1083 l 1
 1118 260 l 1
 1311 1167 l 1
426 857 m 0
 486 857 525 888 538 948 c 0
 540 957 541 966 541 973 c 0
 541 1006 523 1025 474 1025 c 0
 424 1025 385 1004 373 944 c 0
 371 935 370 927 370 918 c 0
 370 884 387 857 426 857 c 0
1331 1275 m 0
 1371 1275 1406 1304 1415 1345 c 0
 1416 1351 1417 1357 1417 1362 c 0
 1417 1394 1395 1412 1362 1412 c 0
 1315 1412 1285 1388 1275 1343 c 0
 1274 1337 1273 1331 1273 1326 c 0
 1273 1294 1296 1275 1331 1275 c 0
EndSplineSet
EndChar
StartChar: uni0E2D
Encoding: 167 3629 169
OldEncoding: 3629
Width: 1230
Flags: W
HStem: 0 159<418 1050> 340 120<528 544> 628 120<574 597> 1002 147<781 812>
VStem: 653 104<566 592> 1053 169<791 861>
DStem: 315 434 461 366 223 0 418 159 1047 738 1209 749 924 159 1050 0
Fore
1209 749 m 2
 1050 0 l 1
 223 0 l 1
 315 434 l 2
 361 641 454 748 595 748 c 0
 704 748 757 688 757 592 c 0
 757 571 755 549 750 525 c 0
 724 404 640 340 530 340 c 0
 504 340 481 349 461 366 c 1
 418 159 l 1
 924 159 l 1
 1047 738 l 2
 1051 757 1053 774 1053 791 c 0
 1053 921 944 1002 783 1002 c 0
 642 1002 518 957 410 866 c 1
 349 927 l 1
 494 1075 648 1149 810 1149 c 0
 1089 1149 1222 1051 1222 861 c 0
 1222 827 1218 789 1209 749 c 2
540 460 m 0
 602 460 638 491 651 551 c 0
 652 556 653 561 653 566 c 0
 653 598 630 628 587 628 c 0
 537 628 495 588 486 547 c 0
 484 538 483 530 483 522 c 0
 483 487 500 460 540 460 c 0
EndSplineSet
EndChar
StartChar: uni0E2E
Encoding: 168 3630 170
OldEncoding: 3630
Width: 1250
Flags: W
HStem: 0 159<422 1057> 343 117<536 560> 628 120<579 602> 764 111<739 789> 1038 111<787 837>
VStem: 656 108<572 600> 1057 170<793 860>
DStem: 320 434 467 373 228 0 422 159 1047 715 1213 739 929 159 1057 0
Fore
1057 0 m 1
 228 0 l 1
 320 434 l 2
 363 639 459 748 600 748 c 0
 707 748 764 700 764 600 c 0
 764 578 761 553 755 525 c 0
 730 407 645 343 538 343 c 0
 504 343 482 356 467 373 c 1
 422 159 l 1
 929 159 l 1
 1047 715 l 2
 1054 746 1057 772 1057 793 c 0
 1057 814 1054 830 1047 842 c 1
 967 791 868 764 750 764 c 0
 520 764 405 827 405 943 c 0
 405 948 406 953 406 958 c 1
 479 1085 616 1149 829 1149 c 0
 955 1149 1054 1121 1124 1064 c 1
 1160 1100 1184 1131 1196 1158 c 1
 1309 1116 l 1
 1274 1061 1238 1014 1201 975 c 1
 1218 946 1227 908 1227 860 c 0
 1227 825 1222 784 1213 739 c 2
 1057 0 l 1
1026 952 m 1
 975 1009 905 1038 817 1038 c 0
 697 1038 616 1011 558 958 c 1
 565 910 662 875 769 875 c 0
 859 875 945 901 1026 952 c 1
543 460 m 0
 606 460 641 491 654 551 c 0
 656 558 656 565 656 572 c 0
 656 606 635 628 590 628 c 0
 529 628 501 604 489 547 c 0
 488 540 487 534 487 527 c 0
 487 490 508 460 543 460 c 0
EndSplineSet
EndChar
StartChar: uni0E2F
Encoding: 169 3631 171
OldEncoding: 3631
Width: 1150
Flags: W
HStem: 0 21G<865 1025> 692 140<607 643> 1034 104<547 572>
VStem: 322 122<899 934> 612 127<976 1000>
DStem: 1041 830 1269 1149 865 0 1025 0
Fore
1269 1149 m 1
 1025 0 l 1
 865 0 l 1
 1041 830 l 1
 928 746 777 692 607 692 c 0
 453 692 322 762 322 899 c 0
 322 915 324 932 328 950 c 0
 350 1056 450 1138 572 1138 c 0
 681 1138 739 1084 739 1000 c 0
 739 986 737 971 734 955 c 0
 721 894 691 853 639 832 c 1
 737 832 826 857 925 915 c 128
 1024 973 1086 1051 1109 1149 c 1
 1269 1149 l 1
499 866 m 0
 560 866 598 897 610 957 c 0
 612 963 612 970 612 976 c 0
 612 1009 589 1034 547 1034 c 0
 497 1034 457 1008 446 953 c 0
 445 947 444 941 444 934 c 0
 444 897 469 866 499 866 c 0
EndSplineSet
EndChar
StartChar: uni0E30
Encoding: 170 3632 172
OldEncoding: 3632
Width: 1100
Flags: W
HStem: 62 123<497 564> 393 92<425 446> 548 123<600 668> 879 92<528 549>
VStem: 235 102<261 309> 338 102<747 789> 483 95<339 367> 586 95<823 851>
Fore
243 330 m 0
 262 420 339 485 446 485 c 0
 536 485 578 440 578 367 c 0
 578 352 577 336 573 318 c 0
 562 269 528 230 480 199 c 1
 507 190 535 185 564 185 c 0
 614 185 667 198 723 226 c 128
 814 268 873 353 900 479 c 1
 1016 479 l 1
 986 341 924 237 830 166 c 128
 735 95 625 62 497 62 c 0
 405 62 334 87 286 132 c 128
 252 165 235 208 235 261 c 0
 235 283 238 305 243 330 c 0
385 248 m 0
 441 248 470 275 482 327 c 0
 483 331 483 335 483 339 c 0
 483 365 466 393 427 393 c 0
 383 393 349 372 339 323 c 0
 338 318 337 314 337 309 c 0
 337 276 364 248 385 248 c 0
346 816 m 0
 364 900 442 971 549 971 c 0
 634 971 681 927 681 851 c 0
 681 836 680 821 676 804 c 0
 666 755 631 716 584 685 c 1
 610 676 638 671 668 671 c 0
 717 671 770 684 827 712 c 128
 918 754 976 839 1003 965 c 1
 1119 965 l 1
 1090 827 1028 723 933 652 c 128
 838 581 720 548 600 548 c 0
 508 548 438 573 389 618 c 128
 355 651 338 694 338 747 c 0
 338 769 341 791 346 816 c 0
488 734 m 0
 544 734 574 761 585 813 c 0
 586 816 586 819 586 823 c 0
 586 851 563 879 530 879 c 0
 487 879 451 852 442 809 c 0
 441 802 440 795 440 789 c 0
 440 758 455 734 488 734 c 0
EndSplineSet
EndChar
StartChar: uni0E31
Encoding: 171 3633 173
OldEncoding: 3633
Width: 0
Flags: W
HStem: 1214 123<-187 -120> 1545 92<-260 -238>
VStem: -449 101<1413 1452> -201 95<1496 1521>
Fore
-441 1482 m 0
 -421 1576 -346 1637 -238 1637 c 0
 -151 1637 -106 1595 -106 1521 c 0
 -106 1506 -108 1489 -112 1470 c 0
 -122 1421 -156 1382 -204 1351 c 1
 -178 1342 -150 1337 -120 1337 c 0
 -71 1337 -18 1350 39 1378 c 128
 130 1420 189 1505 216 1631 c 1
 332 1631 l 1
 302 1493 240 1389 146 1318 c 128
 51 1247 -54 1214 -187 1214 c 0
 -280 1214 -350 1239 -398 1284 c 128
 -432 1317 -449 1360 -449 1413 c 0
 -449 1435 -446 1457 -441 1482 c 0
-299 1400 m 0
 -246 1400 -214 1427 -203 1479 c 0
 -202 1485 -201 1491 -201 1496 c 0
 -201 1527 -222 1545 -258 1545 c 0
 -301 1545 -334 1528 -345 1475 c 0
 -347 1467 -348 1459 -348 1452 c 0
 -348 1423 -333 1400 -299 1400 c 0
EndSplineSet
EndChar
StartChar: uni0E32
Encoding: 172 3634 174
OldEncoding: 3634
Width: 1150
Flags: W
HStem: 0 21G<796 956> 990 159<756 790>
VStem: 960 167<810 850>
DStem: 951 729 1116 753 796 0 956 0
Fore
1116 753 m 2
 956 0 l 1
 796 0 l 1
 951 729 l 2
 957 758 960 785 960 810 c 0
 960 856 949 894 927 923 c 128
 893 968 836 990 756 990 c 0
 626 990 512 930 431 816 c 1
 316 837 l 1
 430 1043 588 1149 790 1149 c 0
 919 1149 1011 1108 1068 1033 c 128
 1107 980 1127 921 1127 850 c 0
 1127 820 1123 788 1116 753 c 2
EndSplineSet
EndChar
StartChar: uni0E33
Encoding: 173 3635 175
OldEncoding: 3635
Width: 1050
Flags: W
HStem: 0 21G<781 941> 990 159<739 775> 1212 138<-41 -8> 1521 147<28 56>
VStem: -228 150<1378 1411> 101 145<1458 1498> 945 167<811 848>
DStem: 936 729 1101 753 781 0 941 0
Fore
56 1668 m 0
 178 1668 246 1601 246 1498 c 0
 246 1480 244 1461 240 1441 c 0
 211 1304 110 1212 -41 1212 c 0
 -157 1212 -228 1271 -228 1378 c 0
 -228 1398 -226 1419 -221 1441 c 0
 -192 1576 -84 1668 56 1668 c 0
1101 753 m 2
 941 0 l 1
 781 0 l 1
 936 729 l 2
 942 759 945 786 945 811 c 0
 945 857 934 894 912 923 c 128
 878 968 821 990 741 990 c 0
 614 990 497 930 416 816 c 1
 301 837 l 1
 415 1043 560 1149 775 1149 c 0
 904 1149 996 1108 1053 1033 c 128
 1092 980 1112 919 1112 848 c 0
 1112 818 1108 786 1101 753 c 2
28 1521 m 0
 -24 1521 -64 1488 -75 1436 c 0
 -77 1427 -78 1418 -78 1411 c 0
 -78 1372 -53 1350 -8 1350 c 0
 43 1350 87 1384 98 1436 c 0
 100 1444 101 1451 101 1458 c 0
 101 1498 72 1521 28 1521 c 0
EndSplineSet
MultipleSubs: 0 1 'ccmp' uni0E4D uni0E32
EndChar
StartChar: uni0E34
Encoding: 174 3636 176
OldEncoding: 3636
Width: 0
Flags: W
HStem: 1322 91<-843 -587> 1528 116<-332 -298>
Fore
81 1227 m 1
 -51 1257 -218 1280 -421 1297 c 128
 -624 1314 -764 1322 -843 1322 c 1
 -776 1433 -682 1520 -561 1583 c 0
 -479 1624 -395 1644 -309 1644 c 0
 -150 1644 -73 1595 -5 1515 c 0
 53 1448 82 1362 82 1258 c 0
 82 1248 82 1237 81 1227 c 1
-76 1359 m 1
 -112 1462 -175 1528 -317 1528 c 0
 -431 1528 -524 1490 -598 1413 c 1
 -594 1413 -591 1413 -587 1413 c 0
 -524 1413 -432 1405 -310 1392 c 128
 -181 1376 -103 1366 -76 1359 c 1
EndSplineSet
EndChar
StartChar: uni0E35
Encoding: 175 3637 177
OldEncoding: 3637
Width: 0
Flags: W
HStem: 1323 101<-843 -570> 1511 131<-332 -282>
DStem: 32 1735 182 1735 -13 1525 81 1260
Fore
81 1260 m 1
 81 1249 81 1238 81 1228 c 1
 -56 1259 -260 1285 -532 1308 c 0
 -661 1318 -765 1323 -843 1323 c 1
 -807 1392 -738 1463 -636 1534 c 128
 -533 1606 -424 1642 -309 1642 c 0
 -175 1642 -80 1603 -13 1525 c 1
 32 1735 l 1
 182 1735 l 1
 81 1260 l 1
-88 1370 m 1
 -107 1457 -187 1511 -295 1511 c 0
 -418 1511 -509 1483 -570 1424 c 1
 -472 1424 -351 1413 -205 1392 c 0
 -154 1385 -115 1377 -88 1370 c 1
EndSplineSet
EndChar
StartChar: uni0E36
Encoding: 176 3638 178
OldEncoding: 3638
Width: 0
Flags: W
HStem: 1321 108<79 106> 1514 128<-348 -298> 1568 113<135 159>
VStem: 196 114<1511 1544>
Fore
-38 1548 m 1xd0
 -5 1633 61 1681 159 1681 c 0xb0
 253 1681 310 1624 310 1544 c 0
 310 1530 308 1516 305 1502 c 0
 283 1396 202 1321 79 1321 c 1
 80 1309 81 1289 81 1261 c 0
 81 1251 81 1240 81 1228 c 1
 -56 1259 -260 1285 -532 1308 c 0
 -661 1318 -765 1323 -843 1323 c 1
 -810 1401 -746 1474 -649 1542 c 128
 -553 1610 -443 1642 -309 1642 c 0
 -215 1642 -97 1611 -38 1548 c 1xd0
135 1568 m 0
 91 1568 57 1540 49 1500 c 0
 47 1492 46 1485 46 1478 c 0
 46 1447 66 1429 106 1429 c 0
 144 1429 185 1455 195 1500 c 0
 196 1503 196 1507 196 1511 c 0
 196 1535 181 1568 135 1568 c 0
-85 1358 m 1
 -100 1460 -182 1514 -326 1514 c 0xd0
 -438 1514 -525 1480 -577 1412 c 1
 -478 1412 -355 1401 -208 1380 c 0
 -153 1373 -112 1365 -85 1358 c 1
EndSplineSet
EndChar
StartChar: uni0E37
Encoding: 177 3639 179
OldEncoding: 3639
Width: 0
Flags: W
HStem: 1479 128<-336 -299>
DStem: 23 1695 173 1695 -20 1493 80 1258
Fore
-88 1544 m 1
 -73 1544 -51 1528 -23 1497 c 2
 -20 1493 l 1
 23 1695 l 1
 173 1695 l 1
 80 1258 l 1
 70 1201 l 1
 -65 1232 -275 1258 -558 1281 c 0
 -675 1291 -766 1296 -830 1296 c 1
 -779 1389 -697 1468 -583 1534 c 0
 -505 1579 -411 1607 -299 1607 c 0
 -272 1607 -248 1603 -226 1598 c 1
 -206 1696 l 1
 -56 1696 l 1
 -88 1544 l 1
-114 1343 m 1
 -124 1382 -149 1415 -188 1442 c 0
 -229 1470 -271 1479 -334 1479 c 0
 -433 1479 -508 1446 -565 1387 c 1
 -565 1387 -490 1386 -443 1382 c 16
 -300 1371 -166 1358 -114 1343 c 1
EndSplineSet
EndChar
StartChar: uni0E38
Encoding: 178 3640 180
OldEncoding: 3640
Width: 0
Flags: W
HStem: -375 67<-457 -446> -163 78<-418 -390>
VStem: -582 81<-284 -261> -380 115<-221 -197>
DStem: -418 -360 -274 -299 -455 -534 -324 -534
Fore
-455 -534 m 5
 -418 -360 l 5
 -429 -369 -442 -375 -454 -375 c 4
 -542 -375 -582 -344 -582 -284 c 0
 -582 -272 -580 -258 -577 -244 c 4
 -555 -142 -492 -85 -390 -85 c 4
 -308 -85 -265 -130 -265 -219 c 0
 -265 -242 -268 -269 -274 -299 c 6
 -324 -534 l 5
 -455 -534 l 5
-418 -163 m 4
 -461 -163 -488 -186 -498 -236 c 4
 -500 -245 -501 -254 -501 -261 c 0
 -501 -293 -483 -308 -448 -308 c 4
 -413 -308 -393 -284 -383 -237 c 4
 -381 -227 -380 -218 -380 -210 c 0
 -380 -180 -394 -163 -418 -163 c 4
EndSplineSet
EndChar
StartChar: uni0E39
Encoding: 179 3641 181
OldEncoding: 3641
Width: 0
Flags: W
HStem: -534 99<-588 -331> -376 69<-774 -743> -163 78<-704 -676>
VStem: -866 79<-274 -259> -665 115<-215 -197>
DStem: -704 -360 -560 -299 -741 -534 -588 -435 -371 -96 -237 -96 -443 -435 -331 -534
Fore
-371 -96 m 5
 -237 -96 l 5
 -331 -534 l 5
 -741 -534 l 5
 -704 -360 l 5
 -723 -376 -745 -376 -774 -376 c 4
 -829 -376 -866 -333 -866 -274 c 0
 -866 -264 -865 -254 -863 -244 c 4
 -843 -152 -766 -85 -676 -85 c 4
 -615 -85 -575 -106 -560 -145 c 4
 -553 -162 -550 -184 -550 -211 c 0
 -550 -237 -553 -268 -560 -299 c 6
 -588 -435 l 5
 -443 -435 l 5
 -371 -96 l 5
-704 -163 m 4
 -742 -163 -776 -196 -784 -236 c 4
 -786 -245 -787 -253 -787 -261 c 0
 -787 -289 -773 -307 -743 -307 c 4
 -699 -307 -677 -271 -668 -232 c 4
 -666 -223 -665 -215 -665 -208 c 0
 -665 -179 -679 -163 -704 -163 c 4
EndSplineSet
EndChar
StartChar: uni0E3A
Encoding: 180 3642 182
OldEncoding: 3642
Width: 0
Flags: W
Fore
-259 -60 m 0
 -193 -60 -149 -112 -149 -171 c 0
 -149 -179 -150 -187 -152 -195 c 0
 -168 -269 -245 -330 -316 -330 c 0
 -378 -330 -424 -282 -424 -222 c 0
 -424 -213 -423 -204 -421 -195 c 0
 -406 -123 -334 -60 -259 -60 c 0
EndSplineSet
EndChar
StartChar: uni0E3F
Encoding: 181 3647 183
OldEncoding: 3647
Width: 1250
Flags: W
HStem: -20 20G<152 541> 717 170<805 842> 1321 168<468 822>
VStem: 1061 208<538 556> 1131 215<1181 1238>
DStem: 468 1489 629 1321 152 0 536 885 468 1489 501 719 152 0 384 170 541 0 653 2 513 -133 625 -133 694 719 805 717 577 170 690 174 822 1321 933 1319 729 885 842 887
Fore
1059 827 m 1xe8
 1143 802 1202 757 1236 693 c 0
 1258 651 1269 603 1269 551 c 0xf0
 1269 521 1265 490 1258 457 c 0
 1230 324 1160 216 1048 133 c 0
 937 50 805 6 653 2 c 1
 625 -133 l 1
 513 -133 l 1
 541 0 l 1
 152 0 l 1
 468 1489 l 1
 857 1489 l 1
 880 1595 l 1
 992 1595 l 1
 969 1489 l 1
 1114 1487 1218 1458 1280 1402 c 0
 1324 1363 1346 1308 1346 1238 c 0
 1346 1209 1342 1178 1335 1144 c 0
 1322 1082 1289 1024 1241 965 c 0
 1182 892 1128 868 1059 827 c 1xe8
729 885 m 1
 822 1321 l 1
 629 1321 l 1
 536 885 l 1
 729 885 l 1
842 887 m 1
 900 888 958 906 1014 941 c 0
 1069 976 1105 1037 1124 1124 c 0
 1129 1145 1131 1164 1131 1181 c 0xe8
 1131 1217 1121 1244 1102 1264 c 0
 1060 1305 1015 1312 933 1319 c 1
 842 887 l 1
577 170 m 1
 694 719 l 1
 501 719 l 1
 384 170 l 1
 577 170 l 1
690 174 m 1
 779 178 856 202 921 246 c 0
 988 291 1030 359 1049 449 c 0
 1057 488 1061 519 1061 546 c 0xf0
 1061 615 1032 649 972 683 c 0
 932 706 877 717 805 717 c 1
 690 174 l 1
EndSplineSet
EndChar
StartChar: uni0E40
Encoding: 182 3648 184
OldEncoding: 3648
Width: 700
Flags: W
HStem: -11 108<377 416> 304 93<460 487> 1129 20G<411 571>
VStem: 210 148<157 166> 531 96<233 258>
DStem: 411 1149 571 1149 222 258 405 369
Fore
411 1149 m 1
 571 1149 l 1
 405 369 l 1
 426 388 453 397 487 397 c 0
 579 397 627 351 627 258 c 0
 627 234 624 206 617 175 c 0
 594 66 505 -11 377 -11 c 0
 265 -11 210 47 210 157 c 0
 210 187 214 221 222 258 c 2
 411 1149 l 1
416 97 m 0
 480 97 512 128 526 194 c 0
 529 209 531 223 531 235 c 0
 531 282 506 304 460 304 c 0
 408 304 377 264 363 196 c 0
 360 181 358 168 358 157 c 0
 358 117 377 97 416 97 c 0
EndSplineSet
EndChar
StartChar: uni0E41
Encoding: 183 3649 185
OldEncoding: 3649
Width: 1320
Flags: W
HStem: -11 108<401 440 1016 1055> 304 93<484 511 1099 1126> 1129 20G<435 595 1050 1210>
VStem: 234 148<157 166> 555 98<234 255> 849 148<157 166> 1169 96<228 252>
DStem: 435 1149 595 1149 246 258 429 369 1050 1149 1210 1149 861 258 1044 369
Fore
435 1149 m 1
 595 1149 l 1
 429 369 l 1
 450 388 477 397 511 397 c 0
 598 397 653 346 653 255 c 0
 653 237 650 217 646 196 c 0
 617 60 531 -11 401 -11 c 0
 289 -11 234 47 234 157 c 0
 234 187 238 221 246 258 c 2
 435 1149 l 1
440 97 m 0
 505 97 536 128 550 194 c 0
 553 209 555 222 555 234 c 0
 555 281 530 304 484 304 c 0
 432 304 400 260 387 196 c 0
 384 181 382 168 382 157 c 0
 382 117 401 97 440 97 c 0
1050 1149 m 1
 1210 1149 l 1
 1044 369 l 1
 1065 388 1092 397 1126 397 c 0
 1217 397 1265 345 1265 252 c 0
 1265 229 1262 203 1256 175 c 0
 1233 68 1146 -11 1016 -11 c 0
 904 -11 849 47 849 157 c 0
 849 187 853 221 861 258 c 2
 1050 1149 l 1
1055 97 m 0
 1113 97 1151 128 1165 194 c 0
 1168 207 1169 219 1169 230 c 0
 1169 275 1146 304 1099 304 c 0
 1047 304 1015 260 1002 196 c 0
 999 181 997 168 997 157 c 0
 997 117 1016 97 1055 97 c 0
EndSplineSet
EndChar
StartChar: uni0E42
Encoding: 184 3650 186
OldEncoding: 3650
Width: 1100
Flags: W
HStem: -11 108<771 810> 304 93<854 882> 1603 140<1180 1242> 1704 140<777 823>
VStem: 605 147<148 165> 816 163<1244 1273> 926 95<228 253>
DStem: 801 1130 962 1132 616 258 799 369
Fore
801 1130 m 2xda
 811 1176 816 1214 816 1244 c 0
 816 1266 813 1284 807 1297 c 0
 795 1322 755 1363 692 1392 c 128
 629 1421 508 1442 330 1455 c 1
 356 1530 413 1613 500 1706 c 128
 586 1798 694 1844 823 1844 c 0xdc
 928 1844 1037 1776 1121 1757 c 128
 1157 1748 1197 1743 1242 1743 c 0
 1320 1743 1386 1763 1439 1804 c 1
 1385 1650 l 1
 1319 1619 1250 1603 1180 1603 c 0xec
 1136 1603 1101 1607 1073 1615 c 128
 1014 1629 882 1704 777 1704 c 0
 700 1704 628 1653 562 1560 c 1
 701 1541 802 1509 866 1466 c 128
 929 1422 964 1376 975 1321 c 0
 978 1307 979 1291 979 1273 c 0xdc
 979 1235 973 1188 962 1132 c 2
 799 369 l 1
 820 386 848 397 882 397 c 0
 984 397 1021 336 1021 253 c 0
 1021 228 1018 202 1012 175 c 0
 986 54 905 -11 771 -11 c 0
 666 -11 605 47 605 163 c 0
 605 191 609 223 616 258 c 2
 801 1130 l 2xda
810 97 m 0
 867 97 907 134 922 201 c 0
 925 214 926 225 926 236 c 0xca
 926 278 904 304 854 304 c 0
 806 304 771 264 757 196 c 0
 754 182 752 169 752 157 c 0
 752 118 771 97 810 97 c 0
EndSplineSet
EndChar
StartChar: uni0E43
Encoding: 185 3651 187
OldEncoding: 3651
Width: 1000
Flags: W
HStem: -11 108<744 783> 304 93<827 854> 1266 112<594 621> 1683 156<876 893>
VStem: 376 137<1428 1469> 576 150<148 177> 794 119<1539 1563> 899 95<238 261> 1079 144<1524 1547>
DStem: 728 913 888 911 589 258 772 369
Fore
888 911 m 2xfe80
 772 369 l 1
 787 383 815 397 854 397 c 0
 948 397 994 353 994 261 c 0xfd80
 994 236 991 207 984 175 c 0
 958 51 878 -11 744 -11 c 0
 630 -11 576 41 576 150 c 0
 576 181 580 217 589 258 c 2
 728 913 l 2
 745 995 767 1052 796 1098 c 128
 825 1145 867 1192 922 1240 c 0
 1005 1311 1056 1390 1074 1479 c 0
 1078 1495 1079 1511 1079 1525 c 0
 1079 1572 1061 1608 1024 1633 c 128
 976 1666 926 1682 876 1683 c 1
 900 1646 913 1606 913 1563 c 0
 913 1500 885 1432 827 1367 c 0
 763 1296 681 1266 594 1266 c 0
 454 1266 376 1315 376 1428 c 0
 376 1449 379 1471 384 1496 c 0
 399 1565 427 1633 486 1682 c 0
 597 1775 721 1839 877 1839 c 0
 1016 1839 1112 1795 1162 1720 c 128
 1204 1658 1223 1600 1223 1547 c 0
 1223 1533 1222 1519 1219 1505 c 0
 1189 1365 1154 1292 1074 1221 c 0
 1016 1170 975 1126 950 1086 c 128
 925 1048 903 985 888 911 c 2xfe80
783 97 m 0
 841 97 880 131 893 194 c 0
 897 211 899 226 899 240 c 0
 899 281 879 304 827 304 c 0
 776 304 744 265 730 196 c 0
 727 183 726 171 726 160 c 0
 726 119 746 97 783 97 c 0
666 1629 m 0
 587 1629 536 1595 517 1505 c 0
 514 1492 513 1480 513 1469 c 0
 513 1410 550 1378 621 1378 c 0
 713 1378 773 1424 791 1509 c 0
 793 1520 794 1530 794 1539 c 0xfe80
 794 1596 752 1629 666 1629 c 0
EndSplineSet
EndChar
StartChar: uni0E44
Encoding: 186 3652 188
OldEncoding: 3652
Width: 1030
Flags: W
HStem: -11 108<721 760> 304 93<804 831> 1326 114<450 480> 1694 145<822 877>
VStem: 552 150<148 166> 856 167<1646 1695> 875 96<232 256>
DStem: 850 1594 1013 1608 566 258 749 369
Fore
1013 1608 m 2xfc
 749 369 l 1
 777 391 805 396 831 397 c 0
 924 395 971 348 971 256 c 0xfa
 971 232 967 205 961 175 c 0
 936 56 851 -11 721 -11 c 0
 605 -11 552 44 552 150 c 0
 552 181 557 217 566 258 c 2
 850 1594 l 2
 854 1615 856 1632 856 1646 c 0
 856 1678 846 1694 824 1694 c 0
 823 1694 823 1694 822 1694 c 0
 790 1694 737 1605 689 1488 c 0
 654 1400 553 1326 450 1326 c 0
 382 1326 335 1351 309 1400 c 0
 283 1448 262 1577 245 1788 c 1
 394 1788 l 1
 406 1573 l 2
 412 1484 436 1440 480 1440 c 0
 514 1440 545 1464 574 1513 c 0
 579 1523 599 1563 633 1634 c 128
 667 1704 695 1750 717 1771 c 0
 749 1816 802 1839 877 1839 c 0
 975 1839 1023 1791 1023 1695 c 0
 1023 1670 1020 1641 1013 1608 c 2xfc
760 97 m 0
 817 97 857 134 872 201 c 0
 874 212 875 223 875 232 c 0
 875 277 851 304 804 304 c 0
 753 304 721 264 707 196 c 0
 704 182 702 169 702 157 c 0
 702 118 721 97 760 97 c 0
EndSplineSet
EndChar
StartChar: uni0E45
Encoding: 187 3653 189
OldEncoding: 3653
Width: 1000
Flags: W
HStem: 989 160<668 695>
VStem: 888 168<811 868>
DStem: 878 729 1043 753 642 -380 802 -380
Fore
1043 753 m 2
 802 -380 l 1
 642 -380 l 1
 878 729 l 2
 884 759 888 786 888 811 c 0
 888 929 815 989 670 989 c 0
 552 989 465 928 410 811 c 1
 243 837 l 1
 281 927 338 1002 416 1060 c 128
 493 1120 586 1149 693 1149 c 0
 848 1149 945 1114 1000 1046 c 128
 1038 999 1056 940 1056 868 c 0
 1056 833 1052 794 1043 753 c 2
EndSplineSet
EndChar
StartChar: uni0E46
Encoding: 188 3654 190
OldEncoding: 3654
Width: 1100
Flags: W
HStem: 512 95<449 481> 808 92<526 583>
VStem: 289 127<665 683> 596 104<743 784> 966 158<841 875>
DStem: 962 817 1116 789 709 -374 869 -374
Fore
481 607 m 0
 541 607 579 652 593 718 c 0
 595 727 596 736 596 743 c 0
 596 786 568 808 526 808 c 0
 472 808 434 775 421 713 c 0
 418 699 416 685 416 673 c 0
 416 633 434 607 481 607 c 0
709 -374 m 1
 962 817 l 2
 965 830 966 843 966 856 c 0
 966 910 944 962 908 985 c 1
 744 887 l 1
 605 985 l 1
 574 966 548 935 527 892 c 1
 545 899 563 900 583 900 c 0
 587 900 591 900 596 900 c 0
 661 900 700 856 700 784 c 0
 700 768 698 751 694 732 c 0
 663 588 577 512 449 512 c 0
 335 512 289 573 289 668 c 0
 289 695 293 724 300 756 c 0
 315 828 343 916 425 1005 c 128
 482 1066 550 1118 642 1155 c 1
 642 1155 l 0
 642 1153 688 1117 778 1047 c 1
 945 1155 l 1
 1021 1142 1073 1096 1099 1018 c 128
 1116 968 1124 918 1124 870 c 0
 1124 842 1122 815 1116 789 c 2
 869 -374 l 1
 709 -374 l 1
EndSplineSet
EndChar
StartChar: uni0E47
Encoding: 189 3655 191
OldEncoding: 3655
Width: 0
Flags: W
HStem: 1284 124<-195 -189> 1284 146<-545 -522> 1372 152<-462 -430> 1417 43<-154 -135> 1583 53<-119 -104> 1660 118<-289 -239>
VStem: -720 152<1457 1485> -254 62<1495 1511> -60 86<1514 1534>
Fore
-117 1583 m 0x1f80
 -150 1583 -182 1558 -191 1517 c 0
 -192 1513 -192 1509 -192 1505 c 0
 -192 1477 -169 1460 -135 1460 c 0
 -98 1460 -70 1483 -62 1519 c 0
 -61 1524 -60 1529 -60 1534 c 0
 -60 1564 -82 1583 -117 1583 c 0x1f80
-221 1434 m 0
 -243 1449 -254 1470 -254 1497 c 0
 -254 1505 -253 1513 -251 1522 c 0
 -237 1590 -168 1636 -104 1636 c 0
 -36 1636 14 1610 21 1566 c 0
 23 1549 26 1532 26 1514 c 0
 26 1502 25 1489 22 1476 c 0
 -1 1370 -87 1284 -195 1284 c 0x9f80
 -270 1284 -331 1300 -377 1333 c 0
 -401 1348 -423 1372 -462 1372 c 0x2f80
 -504 1372 -509 1298 -522 1284 c 1
 -621 1284 -683 1322 -709 1393 c 0
 -716 1413 -720 1434 -720 1457 c 0
 -720 1474 -718 1491 -714 1510 c 0
 -689 1630 -601 1710 -477 1751 c 0
 -423 1769 -352 1777 -263 1778 c 0
 -203 1779 -161 1782 -137 1789 c 0
 -75 1807 -25 1840 6 1894 c 1
 148 1894 l 1
 132 1841 92 1790 29 1742 c 0
 -15 1708 -59 1686 -103 1675 c 0
 -137 1666 -194 1661 -275 1660 c 0
 -355 1659 -417 1650 -460 1631 c 0
 -520 1602 -552 1573 -567 1505 c 0
 -568 1499 -568 1492 -568 1485 c 0
 -568 1458 -562 1430 -539 1430 c 0
 -538 1430 -536 1430 -535 1430 c 1x4f80
 -535 1430 -529 1449 -523 1461 c 16
 -505 1502 -471 1524 -430 1524 c 0x2f80
 -408 1524 -384 1511 -357 1486 c 0
 -324 1455 -298 1435 -277 1426 c 0
 -256 1418 -225 1408 -195 1408 c 0x8f80
 -180 1408 -166 1411 -154 1417 c 1
 -185 1417 -203 1420 -221 1434 c 0
EndSplineSet
EndChar
StartChar: uni0E48
Encoding: 190 3656 192
OldEncoding: 3656
Width: 0
Flags: W
Fore
99 2195 m 1
 304 2195 l 1
 197 1826 l 1
 55 1826 l 1
 99 2195 l 1
EndSplineSet
Substitution: 0 65534 'loww' uni0E48.low
Substitution: 0 65534 'amni' uni0E4D
EndChar
StartChar: uni0E49
Encoding: 191 3657 193
OldEncoding: 3657
Width: 0
Flags: W
HStem: 1882 63<-143 -112> 2102 68<-78 -76>
VStem: -253 75<1989 2008> -16 98<2038 2049>
Fore
525 2156 m 1
 463 2021 355 1910 201 1825 c 0
 55 1748 -59 1708 -229 1703 c 1
 -212 1783 l 1
 -158 1798 -115 1831 -87 1893 c 1
 -105 1886 -124 1882 -143 1882 c 0
 -208 1882 -253 1925 -253 1989 c 0
 -253 1999 -252 2009 -250 2020 c 0
 -231 2110 -153 2170 -78 2170 c 0
 27 2170 82 2119 82 2045 c 0
 82 2034 81 2022 78 2009 c 0
 65 1950 34 1888 -4 1848 c 1
 120 1891 222 1957 304 2046 c 0
 336 2081 362 2117 383 2156 c 1
 525 2156 l 1
-112 1945 m 0
 -74 1945 -27 1982 -18 2024 c 0
 -17 2029 -16 2035 -16 2040 c 0
 -16 2077 -47 2102 -78 2102 c 0
 -118 2102 -167 2066 -176 2024 c 0
 -177 2019 -178 2014 -178 2008 c 0
 -178 1973 -151 1945 -112 1945 c 0
EndSplineSet
Substitution: 0 65534 'loww' uni0E49.low
Substitution: 0 65534 'amni' uni0E4D
EndChar
StartChar: uni0E4A
Encoding: 192 3658 194
OldEncoding: 3658
Width: 0
Flags: W
HStem: 1668 68<-321 -271> 1856 58<-245 -228>
VStem: -478 127<1821 1845> -478 161<1778 1821> -196 57<1810 1828> 124 129<1891 1923>
Fore
-197 1799 m 0xdc
 -196 1803 -196 1807 -196 1810 c 0
 -196 1835 -215 1856 -243 1856 c 0
 -282 1856 -307 1832 -315 1792 c 0
 -316 1787 -317 1783 -317 1778 c 0
 -317 1753 -300 1736 -271 1736 c 0
 -237 1736 -205 1761 -197 1799 c 0xdc
236 1839 m 1
 451 2169 l 1
 586 2169 l 1
 585 2169 385 1832 385 1832 c 2
 336 1748 240 1695 102 1677 c 0
 78 1674 54 1672 30 1672 c 1
 76 1725 106 1781 118 1840 c 0
 122 1858 124 1875 124 1891 c 0
 124 1948 101 1994 64 2020 c 1
 -103 1902 l 1
 -136 1937 -182 1993 -218 2020 c 1
 -269 2001 -304 1968 -332 1915 c 0
 -345 1890 -351 1862 -351 1837 c 1
 -347 1846 -338 1859 -323 1875 c 0
 -300 1901 -268 1914 -228 1914 c 0
 -169 1914 -139 1875 -139 1828 c 0
 -139 1820 -140 1811 -142 1803 c 0
 -161 1712 -231 1668 -321 1668 c 0
 -425 1668 -478 1726 -478 1821 c 0xec
 -478 1841 -476 1863 -471 1886 c 0
 -450 1984 -388 2044 -300 2101 c 0
 -271 2120 -225 2142 -189 2154 c 1
 -74 2036 l 1
 93 2154 l 1
 146 2135 191 2099 219 2042 c 0
 240 1999 253 1963 253 1923 c 0
 253 1897 248 1870 236 1839 c 1
EndSplineSet
Substitution: 0 65534 'loww' uni0E4A.low
Substitution: 0 65534 'amni' uni0E4D
EndChar
StartChar: uni0E4B
Encoding: 193 3659 195
OldEncoding: 3659
Width: 0
Flags: W
HStem: 1812 142<-176 -63 109 221>
DStem: -63 1812 79 1812 -93 1670 49 1670 -2 2096 140 2096 -33 1954 109 1954
Fore
221 1812 m 1
 79 1812 l 1
 49 1670 l 1
 -93 1670 l 1
 -63 1812 l 1
 -205 1812 l 1
 -175 1954 l 1
 -33 1954 l 1
 -2 2096 l 1
 140 2096 l 1
 109 1954 l 1
 251 1954 l 1
 221 1812 l 1
EndSplineSet
Substitution: 0 65534 'loww' uni0E4B.low
Substitution: 0 65534 'amni' uni0E4D
EndChar
StartChar: uni0E4C
Encoding: 194 3660 196
OldEncoding: 3660
Width: 0
Flags: W
HStem: 1621 84<-46 -28>
VStem: -237 113<1767 1789> 71 105<1817 1832>
Fore
489 2169 m 5
 465 2112 368 2051 294 2010 c 4
 257 1985 164 1955 92 1942 c 5
 148 1931 176 1887 176 1830 c 0
 176 1817 174 1803 171 1789 c 4
 156 1716 73 1621 -44 1621 c 4
 -163 1621 -237 1682 -237 1769 c 0
 -237 1781 -236 1793 -233 1805 c 4
 -217 1883 -182 1929 -134 1969 c 4
 -75 2020 99 2047 160 2063 c 4
 222 2080 294 2120 334 2169 c 5
 489 2169 l 5
-8 1885 m 4
 -62 1885 -110 1852 -123 1792 c 4
 -124 1787 -124 1782 -124 1778 c 0
 -124 1736 -85 1705 -42 1705 c 4
 2 1705 56 1740 68 1795 c 4
 70 1803 71 1811 71 1819 c 0
 71 1863 38 1885 -8 1885 c 4
EndSplineSet
Substitution: 0 65534 'loww' uni0E4C.low
EndChar
StartChar: uni0E4D
Encoding: 195 3661 197
OldEncoding: 3661
Width: 0
Flags: W
HStem: 1213 72<-4 12> 1441 73<43 60>
VStem: -126 71<1330 1347> 109 72<1378 1395>
Fore
60 1514 m 0
 131 1514 181 1464 181 1395 c 0
 181 1384 179 1373 177 1362 c 0
 160 1282 78 1213 -4 1213 c 0
 -73 1213 -126 1261 -126 1330 c 0
 -126 1340 -124 1351 -122 1362 c 0
 -105 1444 -21 1514 60 1514 c 0
10 1285 m 0
 49 1285 98 1321 107 1362 c 0
 108 1368 109 1373 109 1378 c 0
 109 1415 81 1441 43 1441 c 0
 -6 1441 -45 1404 -53 1362 c 0
 -54 1357 -55 1352 -55 1347 c 0
 -55 1313 -27 1285 10 1285 c 0
EndSplineSet
Substitution: 0 65534 'G007' uni0E4B
Substitution: 0 65534 'G006' uni0E4A
Substitution: 0 65534 'G005' uni0E49
Substitution: 0 65534 'G004' uni0E48
EndChar
StartChar: uni0E4E
Encoding: 196 3662 198
OldEncoding: 3662
Width: 0
Flags: W
HStem: 1444 110<85 172> 1686 112<115 190> 1925 111<123 167>
VStem: -125 124<1841 1857>
Fore
302 1901 m 1
 242 1917 188 1925 139 1925 c 0
 55 1925 8 1905 -0 1866 c 0
 -1 1862 -1 1858 -1 1855 c 0
 -1 1817 47 1798 144 1798 c 2
 214 1798 l 1
 190 1686 l 1
 125 1686 l 2
 1 1686 -66 1666 -74 1626 c 0
 -75 1624 -75 1621 -75 1619 c 0
 -75 1602 -60 1587 -29 1575 c 0
 5 1561 54 1554 117 1554 c 2
 195 1554 l 1
 172 1444 l 1
 88 1444 l 2
 -12 1444 -87 1461 -138 1495 c 128
 -181 1524 -202 1557 -202 1595 c 0
 -202 1602 -201 1609 -200 1616 c 0
 -185 1679 -123 1729 -64 1743 c 1
 -105 1766 -125 1799 -125 1841 c 0
 -125 1851 -124 1861 -122 1872 c 0
 -112 1921 -82 1961 -33 1991 c 0
 16 2021 78 2036 154 2036 c 0
 210 2036 267 2028 326 2013 c 1
 302 1901 l 1
EndSplineSet
EndChar
StartChar: uni0E4F
Encoding: 197 3663 199
OldEncoding: 3663
Width: 1250
Flags: W
HStem: -21 121<607 640> 258 103<671 696> 658 105<755 778> 917 123<810 839>
VStem: 192 112<392 421> 465 103<449 475> 882 103<545 571> 1147 111<595 628>
Fore
812 917 m 0
 699 917 593 877 496 797 c 0
 399 717 338 621 314 508 c 0
 307 477 304 448 304 419 c 0
 304 344 327 277 374 219 c 0
 437 140 525 100 638 100 c 0
 752 100 857 140 955 219 c 0
 1052 299 1113 395 1137 508 c 0
 1144 539 1147 568 1147 597 c 0
 1147 672 1124 739 1077 797 c 0
 1014 877 925 917 812 917 c 0
694 361 m 0
 738 361 778 375 813 403 c 0
 847 431 869 466 878 509 c 0
 881 522 882 534 882 545 c 0
 882 572 874 596 858 616 c 0
 835 644 802 658 757 658 c 0
 712 658 673 644 638 616 c 0
 603 588 581 552 572 509 c 0
 569 497 568 485 568 475 c 0
 568 447 576 423 593 403 c 0
 615 375 649 361 694 361 c 0
837 1040 m 0
 981 1040 1093 988 1173 884 c 0
 1230 810 1258 725 1258 628 c 0
 1258 590 1254 550 1245 509 c 0
 1214 363 1137 238 1013 134 c 0
 890 31 756 -21 612 -21 c 0
 469 -21 358 31 278 134 c 0
 221 209 192 295 192 392 c 0
 192 429 196 468 205 509 c 0
 236 656 314 781 438 884 c 0
 561 988 694 1040 837 1040 c 0
671 258 m 0
 597 258 541 282 504 330 c 0
 478 363 465 403 465 449 c 0
 465 469 467 489 472 511 c 0
 487 584 524 644 581 692 c 0
 638 739 704 763 778 763 c 0
 852 763 908 739 945 692 c 0
 972 658 985 617 985 571 c 0
 985 552 983 532 979 511 c 0
 963 438 926 377 868 330 c 1
 811 282 745 258 671 258 c 0
EndSplineSet
EndChar
StartChar: uni0E50
Encoding: 198 3664 200
OldEncoding: 3664
Width: 1250
Flags: W
HStem: -10 173<620 660> 751 173<784 818>
VStem: 234 178<346 391> 1043 178<519 562>
Fore
660 163 m 0
 746 163 826 192 900 250 c 128
 974 308 1019 377 1036 457 c 0
 1041 478 1043 499 1043 519 c 0
 1043 576 1024 626 986 668 c 0
 937 723 877 751 785 751 c 0
 700 751 622 721 550 663 c 0
 480 606 436 534 419 457 c 0
 414 434 412 412 412 391 c 0
 412 333 431 282 469 240 c 0
 515 189 579 163 660 163 c 0
620 -10 m 0
 501 -10 405 28 332 105 c 0
 272 176 234 245 234 346 c 0
 234 380 238 416 247 458 c 0
 271 570 332 682 432 767 c 0
 539 858 657 924 818 924 c 0
 985 924 1070 870 1144 779 c 0
 1193 718 1221 648 1221 562 c 0
 1221 529 1217 495 1209 458 c 0
 1186 347 1128 244 1030 159 c 0
 901 48 790 -10 620 -10 c 0
EndSplineSet
EndChar
StartChar: uni0E51
Encoding: 199 3665 201
OldEncoding: 3665
Width: 1300
Flags: W
HStem: -10 155<579 612> 203 159<615 650> 409 76<707 750> 603 84<773 799> 765 159<784 810>
VStem: 320 181<471 497> 601 99<506 532> 827 131<528 562> 1042 174<541 575>
Fore
786 765 m 0
 658 765 536 678 505 541 c 0
 502 525 501 511 501 497 c 0
 501 409 559 362 650 362 c 0
 697 362 743 378 756 421 c 1
 743 413 727 409 707 409 c 0
 636 409 601 445 601 506 c 0
 601 520 603 534 606 550 c 0
 623 630 704 687 799 687 c 0
 908 687 958 621 958 528 c 0
 958 507 956 485 951 462 c 0
 919 312 775 203 615 203 c 4
 451 203 320 299 320 471 c 0
 320 496 323 523 329 552 c 0
 377 774 591 924 808 924 c 0
 1018 924 1146 846 1194 715 c 0
 1208 676 1216 628 1216 575 c 0
 1216 536 1212 495 1203 453 c 0
 1178 336 1121 244 1041 159 c 0
 941 54 771 -10 581 -10 c 0
 418 -10 285 34 209 115 c 1
 325 254 l 1
 391 186 475 146 612 145 c 0
 796 151 979 258 1030 450 c 0
 1038 486 1042 519 1042 549 c 0
 1042 691 954 762 786 765 c 0
701 545 m 0
 700 540 700 536 700 532 c 0
 700 505 719 485 750 485 c 0
 781 485 817 509 825 548 c 0
 826 553 827 557 827 562 c 0
 827 588 806 603 773 603 c 0
 740 603 707 576 701 545 c 0
EndSplineSet
EndChar
StartChar: uni0E52
Encoding: 200 3666 202
OldEncoding: 3666
Width: 1350
Flags: W
HStem: 0 174<614 1214> 343 110<732 751> 571 108<772 824>
VStem: 350 181<799 868> 570 129<495 513> 826 113<525 547> 1158 177<589 623>
DStem: 1149 506 1322 506 1078 174 1214 0
Fore
700 513 m 0
 699 509 699 504 699 500 c 0
 699 473 718 453 749 453 c 0
 786 453 816 477 825 516 c 0
 826 519 826 522 826 525 c 0
 826 549 807 571 772 571 c 0
 739 571 709 555 700 513 c 0
534 0 m 18
 444 0 400 36 347 92 c 0
 309 132 295 178 295 250 c 0
 295 268 295 286 297 307 c 0
 306 417 325 493 338 611 c 16
 346 686 350 754 350 818 c 0
 350 932 338 1032 316 1134 c 1
 510 1134 l 1
 524 1054 531 965 531 866 c 0
 531 773 525 671 512 560 c 0
 500 429 487 361 487 314 c 0
 487 290 491 271 499 252 c 0
 519 206 565 174 619 174 c 2
 619 174 930 174 1078 174 c 1
 1149 506 l 2
 1155 536 1158 563 1158 589 c 0
 1158 618 1154 644 1146 667 c 0
 1134 698 1118 724 1094 744 c 1
 1094 743 1054 720 975 674 c 1
 876 744 l 1
 849 733 823 711 797 679 c 1
 797 679 814 679 824 679 c 16
 875 679 939 630 939 547 c 0
 939 536 938 524 935 511 c 0
 917 426 835 343 732 343 c 0
 623 343 570 415 570 509 c 0
 570 529 573 549 577 570 c 0
 597 664 634 724 694 790 c 0
 732 832 848 906 914 924 c 1
 914 923 946 892 1009 831 c 1
 1132 924 l 1
 1186 913 1242 859 1275 813 c 0
 1313 759 1325 720 1331 679 c 0
 1334 662 1335 643 1335 623 c 0
 1335 588 1331 549 1322 506 c 2
 1214 0 l 1
 988 0 534 0 534 0 c 18
EndSplineSet
EndChar
StartChar: uni0E53
Encoding: 201 3667 203
OldEncoding: 3667
Width: 1400
Flags: W
HStem: -11 103<389 400> 210 122<415 454> 753 171<570 599 1141 1163>
VStem: 190 173<352 406> 469 121<164 199> 1249 174<609 655>
Fore
398 92 m 0
 444 92 461 118 468 152 c 0
 469 156 469 160 469 164 c 0
 469 190 448 210 415 210 c 0
 385 210 353 184 348 160 c 0
 346 151 345 143 345 136 c 0
 345 106 362 92 398 92 c 0
208 561 m 0
 252 768 388 924 599 924 c 0
 748 924 835 862 868 768 c 1
 938 856 1035 924 1163 924 c 0
 1334 924 1423 834 1423 655 c 0
 1423 606 1416 551 1403 489 c 0
 1365 312 1316 195 1229 0 c 1
 1053 0 l 1
 1158 252 1206 360 1238 511 c 0
 1245 547 1249 580 1249 609 c 0
 1249 698 1214 753 1143 753 c 0
 1048 753 965 664 928 570 c 0
 887 465 847 338 820 216 c 1
 690 216 l 1
 717 335 716 472 719 573 c 0
 719 575 719 576 719 578 c 0
 719 661 670 753 572 753 c 0
 483 753 409 680 391 597 c 0
 374 520 363 449 363 384 c 0
 363 360 364 337 368 314 c 1
 396 326 424 332 454 332 c 0
 538 332 590 275 590 199 c 0
 590 188 589 175 586 163 c 0
 566 69 494 -11 392 -11 c 0
 285 -11 241 15 218 94 c 0
 200 155 190 254 190 354 c 0
 190 428 196 503 208 561 c 0
EndSplineSet
EndChar
StartChar: uni0E54
Encoding: 202 3668 204
OldEncoding: 3668
Width: 1550
Flags: W
HStem: -6 164<579 619> 580 112<1158 1183> 762 162<823 1117>
VStem: 216 177<367 395> 906 160<417 487> 1221 118<519 543>
Fore
1730 1262 m 1
 1680 1097 1600 972 1488 888 c 0
 1376 804 1238 762 1075 762 c 2
 815 762 l 2
 582 762 442 652 401 461 c 0
 396 437 393 414 393 391 c 0
 393 258 481 158 619 158 c 0
 621 158 622 158 624 158 c 0
 685 158 807 182 991 231 c 1
 949 266 906 340 906 417 c 0
 906 431 908 445 911 459 c 0
 941 604 1051 692 1183 692 c 0
 1273 692 1339 626 1339 543 c 0
 1339 530 1337 517 1334 504 c 0
 1312 400 1211 316 1105 313 c 1
 1129 282 1159 262 1195 254 c 0
 1295 229 1368 193 1413 145 c 1
 1253 -2 l 1
 1206 48 1163 76 1052 76 c 0
 1046 76 l 0
 1045 76 1044 76 1042 76 c 0
 940 76 674 -6 579 -6 c 0
 362 -6 216 160 216 369 c 0
 216 402 220 435 227 469 c 0
 291 770 555 924 862 924 c 0
 868 924 l 2
 1114 924 l 2
 1326 924 1470 1037 1546 1262 c 1
 1730 1262 l 1
1127 428 m 0
 1128 428 1128 428 1129 428 c 0
 1167 428 1211 462 1219 502 c 0
 1220 508 1221 514 1221 519 c 0
 1221 553 1197 580 1161 580 c 0
 1160 580 1160 580 1159 580 c 0
 1158 580 1158 580 1157 580 c 0
 1117 580 1077 547 1068 502 c 0
 1067 497 1066 492 1066 487 c 0
 1066 454 1091 428 1125 428 c 0
 1126 428 1126 428 1127 428 c 0
EndSplineSet
EndChar
StartChar: uni0E55
Encoding: 203 3669 205
OldEncoding: 3669
Width: 1550
Flags: W
HStem: -6 164<583 624> 580 112<1159 1183> 762 160<983 1075> 1073 113<1021 1045>
VStem: 216 178<371 398> 810 117<960 982> 1080 119<1007 1032> 1220 118<515 540>
Fore
1730 1262 m 1
 1680 1097 1600 972 1488 888 c 0
 1376 804 1238 762 1075 762 c 2
 815 762 l 2
 582 762 442 652 401 461 c 0
 396 439 394 417 394 396 c 0
 394 259 491 158 624 158 c 0
 685 158 807 182 991 231 c 1
 949 266 906 340 906 417 c 0
 906 431 908 445 911 459 c 0
 938 588 1051 692 1183 692 c 0
 1274 692 1338 624 1338 540 c 0
 1338 528 1337 516 1334 504 c 0
 1312 400 1211 316 1105 313 c 1
 1129 282 1159 262 1193 254 c 0
 1293 229 1366 193 1411 145 c 1
 1253 -2 l 1
 1205 49 1156 76 1046 76 c 0
 946 76 683 -6 583 -6 c 0
 581 -6 580 -6 579 -6 c 0
 365 -1 216 162 216 371 c 0
 216 403 220 436 227 469 c 0
 286 748 523 907 814 922 c 1
 812 935 810 948 810 960 c 0
 810 973 812 985 814 997 c 0
 836 1100 944 1186 1045 1186 c 0
 1139 1186 1199 1114 1199 1032 c 0
 1199 1021 1197 1009 1195 997 c 0
 1189 970 1180 947 1166 926 c 1
 1350 945 1477 1057 1546 1262 c 1
 1730 1262 l 1
989 922 m 0
 1016 922 1071 956 1079 995 c 0
 1080 999 1080 1003 1080 1007 c 0
 1080 1043 1045 1073 1021 1073 c 0
 979 1073 936 1028 928 995 c 0
 927 991 927 986 927 982 c 0
 927 949 954 922 989 922 c 0
1127 428 m 0
 1167 428 1210 461 1219 502 c 0
 1220 506 1220 511 1220 515 c 0
 1220 549 1194 580 1159 580 c 0
 1118 580 1077 548 1068 502 c 1
 1067 497 1066 491 1066 486 c 0
 1066 453 1092 428 1127 428 c 0
EndSplineSet
EndChar
StartChar: uni0E56
Encoding: 204 3670 206
OldEncoding: 3670
Width: 1300
Flags: W
HStem: -16 155<716 751> 481 113<655 677> 760 168<813 850>
VStem: 717 115<420 448> 1122 180<513 551>
Fore
610 885 m 1
 692 914 772 928 850 928 c 0
 1010 928 1131 883 1212 792 c 0
 1272 727 1302 646 1302 551 c 0
 1302 515 1298 476 1289 436 c 0
 1260 301 1191 191 1082 108 c 0
 973 25 851 -16 716 -16 c 0
 604 -16 519 20 459 91 c 0
 415 144 392 204 392 270 c 0
 392 292 395 315 400 338 c 0
 416 412 450 474 503 522 c 0
 556 570 615 594 677 594 c 0
 730 594 770 575 799 538 c 0
 821 511 832 482 832 448 c 0
 832 435 830 421 827 406 c 0
 817 356 790 313 749 276 c 0
 708 239 658 219 601 215 c 1
 612 177 686 139 747 139 c 0
 747 139 748 139 749 139 c 0
 836 139 914 166 982 222 c 128
 1050 276 1094 348 1113 436 c 0
 1119 463 1122 489 1122 513 c 0
 1122 577 1102 629 1062 672 c 0
 1007 731 925 760 815 760 c 0
 702 760 596 741 497 702 c 1
 448 945 376 1131 280 1262 c 1
 528 1262 l 1
 580 1141 607 1015 610 885 c 1
623 330 m 0
 624 330 624 330 625 330 c 0
 663 330 707 365 715 403 c 0
 716 409 717 414 717 420 c 0
 717 454 691 481 657 481 c 0
 656 481 656 481 655 481 c 0
 654 481 654 481 653 481 c 0
 614 481 570 444 563 403 c 0
 562 398 561 394 561 389 c 0
 561 357 588 330 621 330 c 0
 622 330 622 330 623 330 c 0
EndSplineSet
EndChar
StartChar: uni0E57
Encoding: 205 3671 207
OldEncoding: 3671
Width: 1540
Flags: W
HStem: -16 112<390 413> 0 178<1057 1096> 248 114<444 472> 760 164<568 602 961 995>
VStem: 508 117<189 212> 1021 177<639 684>
DStem: 1469 1130 1657 1130 1301 338 1488 334
Fore
1488 334 m 2x7c
 1441 111 1297 -0 1057 0 c 2
 791 0 l 1x7c
 793 10 l 1
 829 53 867 117 908 203 c 0
 949 289 977 367 992 436 c 0
 1012 530 1021 602 1021 653 c 0
 1021 665 1021 675 1020 684 c 128
 1015 734 995 760 961 760 c 0
 887 760 829 662 787 467 c 1
 613 467 l 1
 628 539 636 598 636 643 c 0
 636 721 613 760 568 760 c 0
 499 760 442 652 396 436 c 0
 387 396 383 368 383 354 c 0
 383 348 l 1
 405 357 435 362 472 362 c 0
 526 362 567 343 595 306 c 0
 615 278 625 247 625 212 c 0
 625 199 624 186 621 172 c 0
 610 120 581 76 536 39 c 0
 490 2 442 -16 390 -16 c 0xbc
 306 -16 250 23 219 101 c 0
 204 140 197 187 197 242 c 0
 197 298 204 363 220 436 c 0
 289 761 416 924 602 924 c 0
 694 924 749 875 767 776 c 1
 829 875 905 924 995 924 c 0
 1131 924 1198 837 1198 665 c 0
 1198 600 1189 524 1170 436 c 0
 1151 349 1121 263 1080 178 c 1
 1095 178 l 2
 1210 178 1278 231 1301 338 c 2
 1469 1130 l 1
 1657 1130 l 1
 1488 334 l 2x7c
413 96 m 0xbc
 456 96 497 129 506 174 c 0
 507 179 508 184 508 189 c 0
 508 222 483 248 446 248 c 0
 405 248 363 217 354 174 c 0
 353 168 352 162 352 157 c 0
 352 123 375 96 413 96 c 0xbc
EndSplineSet
EndChar
StartChar: uni0E58
Encoding: 206 3672 208
OldEncoding: 3672
Width: 1580
Flags: W
HStem: -12 165<1152 1199> 309 115<1268 1296> 575 113<1326 1350>
VStem: 214 178<353 385> 1115 117<458 482> 1388 161<471 517>
Fore
1730 1262 m 1
 1681 1099 1600 975 1488 888 c 0
 1406 825 1291 787 1144 776 c 0
 1118 774 1037 772 899 769 c 0
 769 766 672 753 608 728 c 0
 498 684 431 602 401 461 c 0
 395 434 392 409 392 385 c 0
 392 338 403 296 425 260 c 0
 458 205 506 175 568 170 c 1
 585 251 616 318 659 370 c 128
 702 423 752 449 808 449 c 0
 843 449 877 439 909 420 c 0
 941 401 980 357 1024 287 c 1
 1084 203 1084 168 1188 154 c 0
 1192 153 1196 153 1199 153 c 0
 1232 153 1264 172 1293 200 c 0
 1323 230 1344 271 1357 324 c 1
 1335 314 1306 309 1268 309 c 0
 1214 309 1174 328 1146 366 c 0
 1126 393 1115 424 1115 458 c 0
 1115 472 1117 486 1120 500 c 0
 1131 551 1159 595 1204 632 c 0
 1250 669 1298 688 1350 688 c 0
 1425 688 1480 660 1515 603 c 0
 1538 566 1549 522 1549 471 c 0
 1549 443 1546 413 1539 381 c 0
 1513 258 1464 161 1394 92 c 0
 1323 23 1242 -12 1152 -12 c 0
 1108 -12 1065 1 1023 28 c 0
 981 54 934 110 882 196 c 0
 846 254 820 283 803 283 c 0
 774 283 750 236 730 141 c 2
 700 0 l 1
 575 0 l 2
 446 0 349 45 282 134 c 0
 237 196 214 269 214 353 c 0
 214 390 218 428 227 469 c 0
 258 615 332 728 449 808 c 0
 538 869 658 906 808 917 c 0
 824 918 901 921 1039 925 c 0
 1166 929 1262 944 1325 971 c 0
 1439 1019 1514 1114 1546 1262 c 1
 1730 1262 l 1
1294 424 m 0
 1335 424 1377 455 1386 498 c 0
 1387 505 1388 511 1388 517 c 0
 1388 551 1367 575 1326 575 c 0
 1284 575 1244 547 1234 498 c 0
 1233 493 1232 487 1232 482 c 0
 1232 449 1256 424 1294 424 c 0
EndSplineSet
EndChar
StartChar: uni0E59
Encoding: 207 3673 209
OldEncoding: 3673
Width: 1500
Flags: W
HStem: -16 112<390 413> 248 114<444 472> 555 166<1238 1259> 760 164<629 663 1036 1070>
VStem: 507 118<187 212>
DStem: 737 546 896 604 825 0 999 0
Fore
1639 1130 m 1
 1582 912 1521 762 1454 679 c 0
 1387 596 1315 555 1238 555 c 0
 1206 555 1177 564 1152 582 c 0
 1127 599 1103 637 1081 696 c 0
 1065 739 1050 760 1036 760 c 0
 1002 760 955 708 896 604 c 1
 999 0 l 1
 825 0 l 1
 737 546 l 1
 725 616 712 669 696 706 c 0
 681 742 659 760 629 760 c 0
 576 760 529 732 489 676 c 128
 449 620 418 540 396 436 c 0
 387 395 383 366 383 348 c 1
 405 357 435 362 472 362 c 0
 526 362 567 343 595 306 c 0
 615 278 625 247 625 212 c 0
 625 199 624 186 621 172 c 0
 610 120 581 76 536 39 c 0
 490 2 442 -16 390 -16 c 0
 306 -16 250 23 219 101 c 0
 204 140 197 187 197 242 c 0
 197 298 204 363 220 436 c 0
 253 593 308 714 384 798 c 0
 460 882 553 924 663 924 c 0
 767 924 835 875 867 776 c 1
 931 875 998 924 1070 924 c 0
 1095 924 1118 916 1138 900 c 128
 1158 884 1179 849 1202 794 c 0
 1222 745 1241 721 1257 721 c 0
 1317 721 1382 857 1454 1130 c 1
 1639 1130 l 1
413 96 m 0
 455 96 497 132 506 174 c 0
 507 178 507 183 507 187 c 0
 507 220 481 248 446 248 c 128
 406 248 362 213 354 174 c 0
 353 169 352 163 352 158 c 0
 352 123 377 96 413 96 c 0
EndSplineSet
EndChar
StartChar: uni0E5A
Encoding: 208 3674 210
OldEncoding: 3674
Width: 1400
Flags: W
HStem: 0 21G<845 1025 1065 1253> 995 111<542 584>
VStem: 310 140<855 909> 602 125<943 962>
DStem: 1010 777 1263 1120 845 0 1025 0 1303 1120 1491 1120 1065 0 1253 0
Fore
1263 1120 m 1
 1025 0 l 1
 845 0 l 1
 1010 777 l 1
 944 728 885 693 833 678 c 0
 771 660 697 646 624 646 c 0
 533 646 458 667 402 698 c 0
 354 725 310 788 310 855 c 0
 310 865 311 875 313 885 c 0
 327 950 357 1005 414 1049 c 0
 452 1079 526 1106 584 1106 c 0
 622 1106 654 1089 688 1058 c 0
 711 1037 727 999 727 962 c 0
 727 954 727 947 725 939 c 0
 714 891 691 845 633 803 c 1
 641 799 652 797 665 797 c 0
 685 797 712 801 745 809 c 0
 868 837 968 906 1032 1008 c 0
 1053 1042 1070 1079 1083 1120 c 1
 1263 1120 l 1
452 929 m 0
 451 922 450 915 450 909 c 0
 450 875 470 858 507 858 c 0
 552 858 591 884 600 929 c 0
 601 934 602 940 602 945 c 0
 602 976 578 995 542 995 c 0
 497 995 461 970 452 929 c 0
1253 0 m 1
 1065 0 l 1
 1303 1120 l 1
 1491 1120 l 1
 1253 0 l 1
EndSplineSet
EndChar
StartChar: uni0E5B
Encoding: 209 3675 211
OldEncoding: 3675
Width: 2370
Flags: W
HStem: -10 158<602 641> 218 108<2032.8 2404> 272 158<670 731> 340 167<1848 1868> 462 88<682 697> 658 75<715 720> 812 174<745 788>
VStem: 222 159<362 399> 762 85<611 626> 934 168<667 710> 1227 126<364 393>
Fore
1848 340 m 0xd7e0
 1837 340 1818 318 1792 275 c 0
 1752 209 1724 166 1708 147 c 0
 1677 112 1648 94 1620 94 c 0
 1589 94 1571 129 1565 165 c 16
 1557 213 1558 243 1551 297 c 8
 1548 321 1536 351 1525 351 c 0
 1513 351 1496 326 1480 295 c 0
 1442 229 1422 192 1410 171 c 0
 1385 126 1351 88 1311 88 c 0
 1260 88 1243 117 1232 170 c 0
 1230 180 1228 243 1225 315 c 0
 1225 318 l 0
 1225 330 1227 352 1227 364 c 0
 1227 371 1227 375 1225 375 c 0
 1211 375 1201 357 1179 322 c 0
 1123 231 1090 193 1033 138 c 0
 925 33 789 -10 602 -10 c 0
 481 -10 387 30 308 130 c 0
 256 195 222 263 222 362 c 0
 222 398 226 438 236 483 c 0
 261 603 310 704 381 787 c 0
 484 899 637 986 788 986 c 0
 932 986 1028 937 1072 848 c 0
 1092 807 1102 761 1102 710 c 0
 1102 679 1098 646 1091 611 c 0
 1072 522 1006 426 957 388 c 0
 902 344 805 272 670 272 c 0
 597 272 543 296 508 348 c 0
 492 373 479 398 479 439 c 0
 479 456 481 476 486 500 c 0
 498 556 525 609 580 666 c 0
 614 702 669 733 717 733 c 0
 801 733 847 686 847 626 c 0
 847 618 846 609 844 600 c 0
 823 504 734 462 682 462 c 8
 665 462 640 471 640 471 c 1
 645 438 695 430 731 430 c 0xafe0
 807 430 845 474 871 502 c 0
 899 532 922 593 929 626 c 0
 932 641 934 655 934 667 c 0
 934 707 919 733 901 757 c 0
 876 790 797 812 745 812 c 0
 665 812 583 775 531 730 c 0
 458 666 411 585 390 483 c 0
 384 453 381 425 381 399 c 0
 381 340 396 291 424 254 c 0
 469 194 546 148 639 148 c 0
 767 148 910 203 985 282 c 0
 1066 368 1074 387 1143 489 c 0
 1185 552 1219 615 1282 615 c 0
 1332 615 1355 579 1359 508 c 0
 1359 505 1359 501 1359 497 c 0
 1359 465 1353 423 1353 393 c 0
 1353 372 1356 357 1368 357 c 0
 1387 357 1409 389 1422 416 c 16
 1443 456 1450 484 1465 518 c 0
 1487 568 1526 615 1588 615 c 0
 1627 615 1653 580 1655 524 c 8
 1657 472 1655 436 1661 390 c 8
 1664 369 1675 348 1690 348 c 0
 1705 348 1722 362 1740 392 c 0
 1767 436 1781 457 1787 463 c 0
 1819 496 1839 507 1868 507 c 0
 1891 507 1913 485 1923 457 c 16
 1931 435 1935 413 1950 389 c 16
 1974 351 2003 326 2048 326 c 2
 2427 326 l 1
 2404 218 l 1
 2019 218 l 2
 1955 218 1912 243 1870 310 c 0
 1858 329 1851 340 1848 340 c 0xd7e0
761 605 m 0
 762 609 762 613 762 617 c 0
 762 641 746 658 718 658 c 0
 688 658 659 636 652 602 c 0
 651 598 651 594 651 591 c 0
 651 567 668 550 697 550 c 0
 728 550 754 572 761 605 c 0
EndSplineSet
EndChar
StartChar: afii61664
Encoding: 210 8204 212
OldEncoding: 8204
Width: 0
Flags: HW
Fore
310 1289 m 1
 -22 -275 l 1
 -94 -275 l 1
 238 1289 l 1
 310 1289 l 1
EndSplineSet
EndChar
StartChar: afii301
Encoding: 211 8205 213
OldEncoding: 8205
Width: 0
Flags: HW
Fore
-22 -275 m 1
 -94 -275 l 1
 201 1114 l 1
 38 978 l 1
 -1 1027 l 1
 206 1196 l 1
 71 1364 l 1
 130 1413 l 1
 264 1242 l 1
 470 1413 l 1
 509 1364 l 1
 302 1196 l 1
 437 1027 l 1
 378 978 l 1
 273 1114 l 1
 -22 -275 l 1
EndSplineSet
EndChar
StartChar: afii299
Encoding: 212 8206 214
OldEncoding: 8206
Width: 0
Flags: HW
Fore
685 1198 m 1
 422 984 l 1
 384 1033 l 1
 548 1163 l 1
 282 1163 l 1
 -23 -275 l 1
 -94 -275 l 1
 226 1234 l 1
 563 1234 l 1
 454 1364 l 1
 513 1413 l 1
 685 1198 l 1
EndSplineSet
EndChar
StartChar: afii300
Encoding: 213 8207 215
OldEncoding: 8207
Width: 0
Flags: HW
Fore
-23 -275 m 1
 -94 -275 l 1
 211 1163 l 1
 -55 1163 l 1
 55 1033 l 1
 -5 984 l 1
 -176 1198 l 1
 86 1413 l 1
 125 1364 l 1
 -40 1234 l 1
 297 1234 l 1
 -23 -275 l 1
EndSplineSet
EndChar
StartChar: uni2010
Encoding: 214 8208 216
OldEncoding: 8208
Width: 973
Flags: HW
Fore
348 745 m 1
 973 745 l 1
 938 580 l 1
 313 580 l 1
 348 745 l 1
EndSplineSet
EndChar
StartChar: endash
Encoding: 215 8211 217
OldEncoding: 8211
Width: 1125
Flags: HW
Fore
1244 572 m 1
 118 572 l 1
 152 732 l 1
 1278 732 l 1
 1244 572 l 1
EndSplineSet
EndChar
StartChar: emdash
Encoding: 216 8212 218
OldEncoding: 8212
Width: 1886
Flags: HW
Fore
1988 572 m 1
 118 572 l 1
 152 732 l 1
 2022 732 l 1
 1988 572 l 1
EndSplineSet
EndChar
StartChar: afii00208
Encoding: 217 8213 219
OldEncoding: 8213
Width: 1862
Flags: HW
Fore
1874 572 m 1
 232 572 l 1
 266 732 l 1
 1908 732 l 1
 1874 572 l 1
EndSplineSet
EndChar
StartChar: underscoredbl
Encoding: 218 8215 220
OldEncoding: 8215
Width: 1118
Flags: HW
Fore
1089 -212 m 1
 -61 -212 l 1
 -33 -82 l 1
 1117 -82 l 1
 1089 -212 l 1
1044 -423 m 1
 -106 -423 l 1
 -78 -293 l 1
 1072 -293 l 1
 1044 -423 l 1
EndSplineSet
EndChar
StartChar: quoteleft
Encoding: 219 8216 221
OldEncoding: 8216
Width: 450
Flags: HW
Fore
547 997 m 1
 409 997 l 1
 267 1556 l 1
 509 1556 l 1
 547 997 l 1
EndSplineSet
EndChar
StartChar: quoteright
Encoding: 220 8217 222
OldEncoding: 8217
Width: 580
Flags: HW
Fore
827 1556 m 1
 447 997 l 1
 309 997 l 1
 585 1556 l 1
 827 1556 l 1
EndSplineSet
EndChar
StartChar: quotesinglbase
Encoding: 221 8218 223
OldEncoding: 8218
Width: 432
Flags: HW
Fore
446 283 m 1
 66 -276 l 1
 -72 -276 l 1
 204 283 l 1
 446 283 l 1
EndSplineSet
EndChar
StartChar: quotereversed
Encoding: 222 8219 224
OldEncoding: 8219
Width: 432
Flags: HW
Fore
666 1556 m 1
 390 997 l 1
 148 997 l 1
 528 1556 l 1
 666 1556 l 1
EndSplineSet
EndChar
StartChar: quotedblleft
Encoding: 223 8220 225
OldEncoding: 8220
Width: 850
Flags: HW
Fore
937 997 m 1
 803 997 l 1
 661 1556 l 1
 899 1556 l 1
 937 997 l 1
543 997 m 1
 409 997 l 1
 267 1556 l 1
 505 1556 l 1
 543 997 l 1
EndSplineSet
EndChar
StartChar: quotedblright
Encoding: 224 8221 226
OldEncoding: 8221
Width: 1000
Flags: HW
Fore
1227 1556 m 1
 847 997 l 1
 713 997 l 1
 989 1556 l 1
 1227 1556 l 1
833 1556 m 1
 453 997 l 1
 319 997 l 1
 595 1556 l 1
 833 1556 l 1
EndSplineSet
EndChar
StartChar: quotedblbase
Encoding: 225 8222 227
OldEncoding: 8222
Width: 814
Flags: HW
Fore
841 283 m 1
 461 -276 l 1
 327 -276 l 1
 603 283 l 1
 841 283 l 1
447 283 m 1
 67 -276 l 1
 -67 -276 l 1
 209 283 l 1
 447 283 l 1
EndSplineSet
EndChar
StartChar: dagger
Encoding: 226 8224 228
OldEncoding: 8224
Width: 1118
Flags: HW
Fore
1203 1034 m 1
 841 1039 l 1
 654 135 l 1
 522 135 l 1
 719 1039 l 1
 355 1034 l 1
 382 1163 l 1
 744 1158 l 1
 824 1556 l 1
 956 1556 l 1
 866 1158 l 1
 1230 1163 l 1
 1203 1034 l 1
EndSplineSet
EndChar
StartChar: daggerdbl
Encoding: 227 8225 229
OldEncoding: 8225
Width: 1118
Flags: HW
Fore
1091 507 m 1
 729 512 l 1
 651 124 l 1
 519 124 l 1
 607 512 l 1
 243 507 l 1
 270 636 l 1
 632 631 l 1
 721 1049 l 1
 357 1044 l 1
 384 1173 l 1
 746 1168 l 1
 824 1556 l 1
 956 1556 l 1
 868 1168 l 1
 1232 1173 l 1
 1205 1044 l 1
 843 1049 l 1
 754 631 l 1
 1118 636 l 1
 1091 507 l 1
EndSplineSet
EndChar
StartChar: bullet
Encoding: 228 8226 230
OldEncoding: 8226
Width: 950
Flags: HW
Fore
958 662 m 0
 937 565 885 483 802 414 c 128
 717 345 628 311 531 311 c 0
 434 311 359 345 305 414 c 128
 265.976 463.864 246.275 520.518 246.275 584.716 c 0
 246.275 609.352 249.176 635.099 255 662 c 128
 275 759 327 841 410 910 c 128
 494 979 583 1013 680 1013 c 0
 777 1013 853 979 907 910 c 0
 946.895 859.95 966.27 803.06 966.27 738.566 c 0
 966.27 714.148 963.493 688.64 958 662 c 0
EndSplineSet
EndChar
StartChar: ellipsis
Encoding: 229 8230 231
OldEncoding: 8230
Width: 1650
Flags: HW
Fore
1497 0 m 1
 1293 0 l 1
 1340 223 l 1
 1544 223 l 1
 1497 0 l 1
939 0 m 1
 735 0 l 1
 782 223 l 1
 986 223 l 1
 939 0 l 1
381 0 m 1
 177 0 l 1
 224 223 l 1
 428 223 l 1
 381 0 l 1
EndSplineSet
EndChar
StartChar: perthousand
Encoding: 230 8240 232
OldEncoding: 8240
Width: 2848
Flags: HW
Fore
1036 1076 m 0
 1004 926 950 815 874 742 c 128
 798 670 704 634 590 634 c 0
 474 634 394 671 350 744 c 128
 324.045 787.062 310.964 843.347 310.964 912.445 c 0
 310.964 960.483 317.287 1014.71 330 1075 c 0
 362 1224 416 1335 492 1408 c 128
 569 1481 663 1517 777 1517 c 0
 893 1517 974 1480 1017 1407 c 128
 1042.67 1364.41 1055.41 1308.89 1055.41 1240.82 c 0
 1055.41 1192.23 1048.91 1137.24 1036 1076 c 0
1789 1489 m 1
 693 0 l 1
 528 0 l 1
 1624 1489 l 1
 1789 1489 l 1
1985 413 m 0
 1953 263 1899 152 1823 80 c 128
 1747 7 1653 -29 1539 -29 c 0
 1423 -29 1343 8 1299 81 c 128
 1273.25 123.729 1260.17 179.478 1260.17 247.846 c 0
 1260.17 296.279 1266.73 351.044 1280 412 c 0
 1311 561 1365 672 1441 745 c 128
 1518 818 1613 854 1727 854 c 0
 1843 854 1923 817 1966 744 c 128
 1991.67 701.41 2004.41 645.885 2004.41 577.823 c 0
 2004.41 529.226 1997.91 474.236 1985 413 c 0
858 1076 m 0
 871.51 1140.97 878.398 1196.02 878.398 1240.86 c 0
 878.398 1265.72 876.28 1287.45 872 1306 c 128
 859 1358 818 1384 749 1384 c 128
 680 1384 629 1358 593 1305 c 128
 558 1252 530 1176 508 1075 c 0
 494.49 1010.67 487.602 956.269 487.602 911.536 c 0
 487.602 886.735 489.72 864.904 494 846 c 128
 506 793 547 767 618 767 c 0
 687 767 739 793 774 846 c 128
 808 899 836 975 858 1076 c 0
1807 413 m 0
 1820.51 477.975 1827.4 533.017 1827.4 577.861 c 0
 1827.4 602.724 1825.28 624.453 1821 643 c 128
 1808 695 1767 721 1698 721 c 128
 1629 721 1578 695 1542 642 c 128
 1507 589 1479 513 1458 412 c 0
 1443.76 347.294 1436.65 292.637 1436.65 247.757 c 0
 1436.65 223.277 1438.76 201.706 1443 183 c 128
 1455 130 1496 104 1567 104 c 0
 1636 104 1688 130 1723 183 c 128
 1757 236 1785 312 1807 413 c 0
2829 413 m 0
 2797 263 2743 152 2667 80 c 128
 2591 7 2497 -29 2383 -29 c 0
 2267 -29 2187 8 2143 81 c 128
 2117.25 123.729 2104.17 179.478 2104.17 247.846 c 0
 2104.17 296.279 2110.73 351.044 2124 412 c 0
 2155 561 2209 672 2285 745 c 128
 2362 818 2457 854 2571 854 c 0
 2687 854 2767 817 2810 744 c 128
 2835.67 701.41 2848.41 645.885 2848.41 577.823 c 0
 2848.41 529.226 2841.91 474.236 2829 413 c 0
2651 413 m 0
 2664.51 477.975 2671.4 533.017 2671.4 577.861 c 0
 2671.4 602.724 2669.28 624.453 2665 643 c 128
 2652 695 2611 721 2542 721 c 128
 2473 721 2422 695 2386 642 c 128
 2351 589 2323 513 2302 412 c 0
 2287.76 347.294 2280.65 292.637 2280.65 247.757 c 0
 2280.65 223.277 2282.76 201.706 2287 183 c 128
 2299 130 2340 104 2411 104 c 0
 2480 104 2532 130 2567 183 c 128
 2601 236 2629 312 2651 413 c 0
EndSplineSet
EndChar
StartChar: minute
Encoding: 231 8242 233
OldEncoding: 8242
Width: 602
Flags: HW
Fore
887 1489 m 1
 458 870 l 1
 322 870 l 1
 647 1489 l 1
 887 1489 l 1
EndSplineSet
EndChar
StartChar: second
Encoding: 232 8243 234
OldEncoding: 8243
Width: 972
Flags: HW
Fore
883 1489 m 1
 454 870 l 1
 322 870 l 1
 647 1489 l 1
 883 1489 l 1
1277 1489 m 1
 848 870 l 1
 716 870 l 1
 1041 1489 l 1
 1277 1489 l 1
EndSplineSet
EndChar
StartChar: guilsinglleft
Encoding: 233 8249 235
OldEncoding: 8249
Width: 784
Flags: HW
Fore
670 172 m 1
 252 608 l 1
 271 697 l 1
 874 1132 l 1
 831 933 l 1
 441 652 l 1
 712 371 l 1
 670 172 l 1
EndSplineSet
EndChar
StartChar: guilsinglright
Encoding: 234 8250 236
OldEncoding: 8250
Width: 784
Flags: HW
Fore
790 608 m 1
 188 172 l 1
 230 371 l 1
 621 652 l 1
 349 933 l 1
 392 1132 l 1
 809 697 l 1
 790 608 l 1
EndSplineSet
EndChar
StartChar: uni203E
Encoding: 236 8254 238
OldEncoding: 8254
Width: 1118
Flags: HW
Fore
1470 1658 m 1
 304 1658 l 1
 332 1789 l 1
 1498 1789 l 1
 1470 1658 l 1
EndSplineSet
EndChar
StartChar: fraction
Encoding: 237 8260 239
OldEncoding: 8260
Width: 886
Flags: HW
Fore
1232 1489 m 1
 136 0 l 1
 -29 0 l 1
 1067 1489 l 1
 1232 1489 l 1
EndSplineSet
EndChar
StartChar: uni207F
Encoding: 238 8319 240
OldEncoding: 8319
Width: 1010
Flags: HW
Fore
1010 566 m 1
 838 566 l 1
 949 1088 l 2
 959 1135 967 1176 971 1210 c 128
 972.657 1224.08 973.627 1237.31 973.627 1249.75 c 0
 973.627 1267.34 971.686 1283.36 967 1298 c 0
 960 1322 946 1340 924 1351 c 128
 903 1362 872 1368 832 1368 c 0
 790 1368 746 1357 702 1336 c 128
 656 1314 611 1287 563 1254 c 1
 416 566 l 1
 245 566 l 1
 441 1488 l 1
 612 1488 l 1
 591 1388 l 1
 649 1430 703 1462 753 1485 c 128
 803 1508 855 1519 909 1519 c 0
 1006 1519 1074 1489 1114 1428 c 128
 1139.18 1391.16 1151.53 1343.76 1151.53 1285.57 c 0
 1151.53 1249 1146.65 1208.16 1137 1163 c 2
 1010 566 l 1
EndSplineSet
EndChar
StartChar: dottedcircle
Encoding: 239 9676 241
OldEncoding: 9676
Width: 1255
Flags: HW
Fore
340 928 m 0
 344 945 353 960 367 972 c 128
 380 983 396 989 413 989 c 0
 430 989 444 983 453 972 c 128
 459.374 963.502 462.738 953.498 462.738 942.346 c 0
 462.738 937.751 462.167 932.961 461 928 c 0
 458 911 448 896 434 885 c 128
 421 874 404 868 387 868 c 0
 370 868 357 874 348 885 c 128
 341.555 892.877 338.7 902.806 338.7 914.051 c 0
 338.7 918.509 339.148 923.174 340 928 c 0
560 1071 m 0
 563 1088 572 1103 586 1114 c 128
 599 1126 616 1132 633 1132 c 0
 650 1132 663 1126 673 1114 c 128
 678.956 1105.81 682.141 1095.4 682.141 1083.6 c 0
 682.141 1079.55 681.766 1075.34 681 1071 c 0
 677 1054 668 1039 655 1028 c 128
 640 1017 624 1011 607 1011 c 0
 590 1011 576 1017 568 1028 c 128
 561.626 1035.79 558.262 1045.59 558.262 1056.68 c 0
 558.262 1061.25 558.833 1066.04 560 1071 c 0
800 1139 m 0
 804 1156 813 1171 826 1182 c 128
 840 1194 856 1200 873 1200 c 0
 890 1200 904 1194 913 1182 c 128
 919.374 1174.21 922.738 1164.41 922.738 1153.32 c 0
 922.738 1148.75 922.167 1143.96 921 1139 c 0
 917 1122 908 1107 895 1096 c 128
 881 1085 864 1079 847 1079 c 0
 830 1079 817 1085 808 1096 c 128
 801.626 1103.79 798.262 1113.59 798.262 1124.68 c 0
 798.262 1129.25 798.833 1134.04 800 1139 c 0
129 505 m 0
 133 522 142 537 155 548 c 128
 169 560 185 566 202 566 c 0
 219 566 233 560 242 548 c 128
 248.374 540.21 251.738 530.413 251.738 519.321 c 0
 251.738 514.751 251.167 509.961 250 505 c 0
 247 488 238 473 224 462 c 128
 210 451 194 445 177 445 c 0
 160 445 146 451 137 462 c 128
 131.044 470.19 127.859 480.598 127.859 492.398 c 0
 127.859 496.446 128.234 500.658 129 505 c 0
209 309 m 0
 212 326 221 341 235 352 c 128
 248 364 265 370 282 370 c 0
 299 370 312 364 321 352 c 128
 327.75 343.75 331.125 333.25 331.125 321.344 c 0
 331.125 317.375 330.75 313.25 330 309 c 0
 326 292 317 277 303 266 c 128
 289 255 273 249 256 249 c 0
 239 249 225 255 217 266 c 128
 210.626 273.79 207.262 283.587 207.262 294.679 c 0
 207.262 299.249 207.833 304.039 209 309 c 0
320 158 m 0
 323 175 332 190 346 202 c 128
 359 213 376 219 393 219 c 0
 410 219 423 213 433 202 c 128
 438.957 193.065 442.141 182.467 442.141 170.619 c 0
 442.141 166.554 441.766 162.342 441 158 c 0
 437 141 428 126 414 115 c 128
 400 104 384 98 367 98 c 0
 350 98 336 104 327 115 c 128
 321.388 122.717 318.236 132.403 318.236 143.367 c 0
 318.236 148.031 318.806 152.927 320 158 c 0
565 67 m 0
 569 84 578 99 591 110 c 128
 605 122 621 128 638 128 c 0
 655 128 669 122 677 110 c 128
 684.143 102.143 687.714 92.2449 687.714 81.035 c 0
 687.714 76.551 687.143 71.8571 686 67 c 0
 683 50 673 35 659 24 c 128
 646 13 629 7 612 7 c 0
 595 7 582 13 573 24 c 128
 566.555 31.8773 563.7 41.8059 563.7 53.0513 c 0
 563.7 57.5092 564.148 62.174 565 67 c 0
872 128 m 0
 876 145 885 160 899 172 c 128
 912 183 928 189 945 189 c 0
 962 189 976 183 985 172 c 128
 991.374 163.502 994.738 153.498 994.738 142.346 c 0
 994.738 137.751 994.167 132.961 993 128 c 0
 990 111 980 96 966 85 c 128
 953 74 936 68 919 68 c 0
 902 68 889 74 880 85 c 128
 873.555 92.8773 870.7 102.806 870.7 114.051 c 0
 870.7 118.509 871.148 123.174 872 128 c 0
1073 294 m 0
 1077 311 1086 326 1100 338 c 128
 1113 349 1129 355 1146 355 c 0
 1163 355 1177 349 1186 338 c 128
 1192.37 329.502 1195.74 319.498 1195.74 308.346 c 0
 1195.74 303.751 1195.17 298.961 1194 294 c 0
 1191 277 1182 262 1167 251 c 128
 1154 240 1138 234 1121 234 c 0
 1104 234 1090 240 1081 251 c 128
 1075.04 259.19 1071.86 269.598 1071.86 281.398 c 0
 1071.86 285.446 1072.23 289.658 1073 294 c 0
1192 498 m 0
 1195 515 1205 530 1218 542 c 128
 1232 553 1248 559 1265 559 c 0
 1282 559 1296 553 1305 542 c 128
 1311.45 533.407 1314.3 523.275 1314.3 511.972 c 0
 1314.3 507.491 1313.85 502.826 1313 498 c 0
 1309 481 1300 466 1287 455 c 128
 1272 444 1256 438 1239 438 c 0
 1222 438 1208 444 1200 455 c 128
 1193.63 462.79 1190.26 472.587 1190.26 483.679 c 0
 1190.26 488.249 1190.83 493.039 1192 498 c 0
1229 739 m 0
 1233 756 1242 771 1255 782 c 128
 1269 794 1285 800 1302 800 c 0
 1319 800 1333 794 1342 782 c 128
 1348.37 774.21 1351.74 764.413 1351.74 753.321 c 0
 1351.74 748.751 1351.17 743.961 1350 739 c 0
 1346 722 1337 707 1324 696 c 128
 1310 685 1293 679 1276 679 c 0
 1259 679 1246 685 1237 696 c 128
 1230.63 703.79 1227.26 713.587 1227.26 724.679 c 0
 1227.26 729.249 1227.83 734.039 1229 739 c 0
1167 951 m 0
 1171 968 1180 983 1193 994 c 128
 1207 1006 1223 1012 1240 1012 c 0
 1257 1012 1271 1006 1279 994 c 128
 1286.14 986.143 1289.71 976.245 1289.71 965.035 c 0
 1289.71 960.551 1289.14 955.857 1288 951 c 0
 1285 934 1275 919 1261 908 c 128
 1248 897 1231 891 1214 891 c 0
 1197 891 1184 897 1175 908 c 128
 1168.55 915.877 1165.7 925.806 1165.7 937.051 c 0
 1165.7 941.509 1166.15 946.174 1167 951 c 0
1010 1094 m 0
 1013 1111 1022 1126 1036 1138 c 128
 1049 1149 1066 1155 1083 1155 c 0
 1100 1155 1113 1149 1122 1138 c 128
 1128.75 1129 1132.12 1118.31 1132.12 1106.36 c 0
 1132.12 1102.38 1131.75 1098.25 1131 1094 c 0
 1127 1077 1118 1062 1103 1051 c 128
 1090 1040 1074 1034 1057 1034 c 0
 1040 1034 1026 1040 1017 1051 c 128
 1011.39 1058.72 1008.24 1068.4 1008.24 1079.37 c 0
 1008.24 1084.03 1008.81 1088.93 1010 1094 c 0
194 739 m 0
 198 756 207 771 220 782 c 128
 234 794 250 800 267 800 c 0
 284 800 298 794 306 782 c 128
 313.143 774.143 316.714 764.245 316.714 753.035 c 0
 316.714 748.551 316.143 743.857 315 739 c 0
 311 722 302 707 288 696 c 128
 275 685 258 679 241 679 c 0
 224 679 211 685 202 696 c 128
 195.626 703.79 192.262 713.587 192.262 724.679 c 0
 192.262 729.249 192.833 734.039 194 739 c 0
EndSplineSet
EndChar
StartChar: uni0E10.descless
Encoding: 240 63232 242
OldEncoding: 63232
Width: 1130
Flags: W
HStem: -10 160<635 669> 290 113<353 363> 571 126<408 453> 998 151<761 795>
VStem: 198 106<424 465> 406 166<187 237> 475 144<503.644 529> 871 171<547 604>
DStem: 869 529 1039 574 816 279 976 279
Fore
869 529 m 2xfd
 870 535 871 541 871 547 c 0
 871 592 828 628 744 656 c 0
 624 695 456 730 242 762 c 1
 380 1020 564 1149 793 1149 c 0
 880 1148 963 1132 1040 1098 c 128
 1093 1076 1142 1065 1187 1065 c 0
 1207 1065 1226 1067 1245 1072 c 1
 1173 917 l 1
 1158 915 1143 913 1128 913 c 0
 1079 913 1029 926 979 952 c 128
 917 982 845 998 763 998 c 0
 748 998 l 0
 645 995 566 953 509 872 c 1
 740 823 885 780 945 744 c 0
 1010 705 1042 658 1042 604 c 0
 1042 595 1041 584 1039 574 c 2
 976 279 l 2
 935 86 821 -10 635 -10 c 0
 482 -10 406 56 406 187 c 0xfd
 406 216 410 248 417 283 c 2
 424 317 l 1
 410 303 386 290 355 290 c 0
 255 290 198 334 198 424 c 0
 198 441 200 460 204 481 c 0
 234 620 320 697 453 697 c 0
 562 697 619 636 619 524 c 0xfb
 619 495 616 463 608 428 c 2
 577 283 l 2
 573 266 572 251 572 237 c 0
 572 179 604 150 669 150 c 0
 749 151 798 194 816 279 c 2
 869 529 l 2xfd
361 403 m 0
 421 403 459 434 472 494 c 0
 474 502 475 509 475 516 c 0xfb
 475 552 451 571 408 571 c 0
 358 571 319 544 307 490 c 0
 305 482 304 473 304 465 c 0
 304 431 321 403 361 403 c 0
EndSplineSet
EndChar
StartChar: uni0E34.left
Encoding: 241 63233 243
OldEncoding: 63233
Width: 0
Flags: W
HStem: 1479 111<-635 -596>
Fore
-206 1176 m 1
 -342 1207 -542 1232 -819 1255 c 0
 -948 1266 -1052 1271 -1131 1271 c 1
 -1095 1340 -1031 1404 -944 1472 c 0
 -842 1552 -734 1590 -596 1590 c 0
 -450 1590 -362 1541 -292 1464 c 0
 -242 1409 -206 1308 -206 1186 c 0
 -206 1183 -206 1179 -206 1176 c 1
-363 1308 m 1
 -397 1424 -474 1479 -635 1479 c 0
 -734 1479 -825 1430 -884 1362 c 1
 -884 1362 -831 1362 -797 1360 c 16
 -621 1352 -486 1336 -363 1308 c 1
EndSplineSet
EndChar
StartChar: uni0E35.left
Encoding: 242 63234 244
OldEncoding: 63234
Width: 0
Flags: W
HStem: 1259 101<-1169 -896> 1448 130<-671 -636>
DStem: -294 1671 -144 1671 -338 1461 -245 1196
Fore
-245 1196 m 1
 -244 1190 -244 1185 -244 1180 c 0
 -244 1174 -244 1169 -245 1164 c 1
 -382 1195 -586 1221 -859 1244 c 0
 -996 1255 -1072 1259 -1169 1259 c 1
 -1134 1328 -1069 1392 -983 1460 c 0
 -886 1536 -773 1578 -636 1578 c 0
 -485 1578 -424 1532 -338 1461 c 1
 -294 1671 l 1
 -144 1671 l 1
 -245 1196 l 1
-413 1306 m 1
 -439 1379 -528 1448 -669 1448 c 0
 -749 1448 -843 1409 -896 1360 c 1
 -798 1360 -676 1349 -531 1328 c 0
 -479 1321 -441 1313 -413 1306 c 1
EndSplineSet
EndChar
StartChar: uni0E36.left
Encoding: 243 63235 245
OldEncoding: 63235
Width: 0
Flags: W
HStem: 1267 108<-332 -305> 1460 128<-751 -719> 1514 113<-275 -251>
VStem: -214 113<1461 1487>
Fore
-448 1494 m 1xd0
 -431 1531 -407 1560 -379 1581 c 0
 -338 1612 -296 1627 -251 1627 c 0xb0
 -196 1627 -154 1607 -126 1566 c 0
 -109 1543 -101 1516 -101 1487 c 0
 -101 1474 -102 1462 -105 1448 c 0
 -117 1391 -150 1344 -203 1308 c 0
 -243 1281 -286 1267 -332 1267 c 1
 -329 1250 -329 1219 -329 1174 c 1
 -466 1205 -670 1231 -942 1254 c 0
 -1071 1264 -1175 1269 -1253 1269 c 1
 -1218 1338 -1156 1405 -1068 1470 c 0
 -973 1541 -854 1588 -719 1588 c 0
 -582 1588 -530 1555 -448 1494 c 1xd0
-275 1514 m 0
 -276 1514 -276 1514 -277 1514 c 0
 -314 1514 -352 1484 -362 1446 c 0
 -363 1441 -364 1436 -364 1431 c 0
 -364 1400 -340 1375 -305 1375 c 0
 -304 1375 -302 1375 -301 1375 c 0
 -261 1375 -225 1404 -216 1446 c 0
 -215 1451 -214 1456 -214 1461 c 0
 -214 1491 -235 1514 -275 1514 c 0
-496 1304 m 1
 -521 1377 -602 1460 -749 1460 c 0xd0
 -818 1460 -928 1415 -987 1358 c 1
 -888 1358 -766 1347 -618 1326 c 0
 -564 1319 -523 1311 -496 1304 c 1
EndSplineSet
EndChar
StartChar: uni0E37.left
Encoding: 244 63236 246
OldEncoding: 63236
Width: 0
Flags: W
HStem: 1454 125<-734 -698>
DStem: -376 1667 -226 1667 -419 1465 -319 1230
Fore
-487 1516 m 1
 -464 1514 -440 1487 -419 1465 c 1
 -376 1667 l 1
 -226 1667 l 1
 -319 1230 l 1
 -329 1173 l 1
 -465 1204 -675 1230 -957 1253 c 0
 -1074 1263 -1164 1268 -1229 1268 c 1
 -1179 1361 -1097 1440 -982 1506 c 0
 -905 1551 -807 1579 -698 1579 c 0
 -671 1579 -647 1575 -625 1570 c 1
 -604 1668 l 1
 -454 1668 l 1
 -487 1516 l 1
-512 1315 m 1
 -537 1396 -624 1454 -732 1454 c 0
 -815 1454 -912 1414 -964 1359 c 1
 -964 1359 -890 1357 -843 1354 c 16
 -713 1347 -565 1330 -512 1315 c 1
EndSplineSet
EndChar
StartChar: uni0E48.low_left
Encoding: 245 63237 247
OldEncoding: 63237
Width: 0
Flags: W
DStem: -282 1580 -140 1580 -342 1300 -200 1300
Fore
-282 1580 m 1
 -140 1580 l 1
 -200 1300 l 1
 -342 1300 l 1
 -282 1580 l 1
EndSplineSet
EndChar
StartChar: uni0E49.low_left
Encoding: 246 63238 248
OldEncoding: 63238
Width: 0
Flags: W
HStem: 1283 71<-630 -591> 1483 82<-570 -561>
VStem: -739 93<1380 1406> -514 110<1423 1441>
Fore
-591 1354 m 4
 -558 1354 -523 1385 -515 1419 c 4
 -514 1423 -514 1427 -514 1431 c 0
 -514 1459 -535 1483 -564 1483 c 4
 -596 1483 -637 1456 -644 1419 c 4
 -645 1414 -646 1410 -646 1406 c 0
 -646 1377 -624 1354 -591 1354 c 4
40 1551 m 5
 -22 1416 -131 1305 -285 1220 c 4
 -406 1153 -508 1120 -654 1101 c 12
 -678 1098 -715 1098 -715 1098 c 5
 -698 1178 l 5
 -664 1186 -633 1205 -605 1235 c 4
 -593 1249 -580 1270 -568 1297 c 5
 -587 1288 -608 1283 -630 1283 c 4
 -669 1283 -694 1294 -715 1315 c 4
 -731 1332 -739 1353 -739 1380 c 0
 -739 1393 -737 1408 -733 1425 c 4
 -725 1464 -701 1495 -670 1522 c 4
 -646 1544 -602 1565 -563 1565 c 4
 -489 1565 -453 1548 -424 1508 c 4
 -410 1488 -404 1466 -404 1441 c 0
 -404 1429 -405 1417 -408 1404 c 4
 -421 1340 -452 1283 -490 1243 c 5
 -366 1286 -264 1352 -182 1441 c 4
 -149 1476 -124 1512 -102 1551 c 5
 40 1551 l 5
EndSplineSet
EndChar
